<svg width="40" height="40" viewBox="0 0 40 40" fill="none" xmlns="http://www.w3.org/2000/svg">
<path d="M19.7812 20.3333C18.8488 20.3333 18.0859 19.5833 18.0859 18.6667C18.0859 17.75 18.8488 17 19.7812 17C20.7137 17 21.4766 17.75 21.4766 18.6667C21.4766 19.5833 20.7137 20.3333 19.7812 20.3333ZM24.8672 18.8333C24.8672 15.8083 22.6209 13.6667 19.7812 13.6667C16.9416 13.6667 14.6953 15.8083 14.6953 18.8333C14.6953 20.7833 16.3482 23.3667 19.7812 26.45C23.2143 23.3667 24.8672 20.7833 24.8672 18.8333ZM19.7812 12C23.3414 12 26.5625 14.6833 26.5625 18.8333C26.5625 21.6 24.2993 24.875 19.7812 28.6667C15.2632 24.875 13 21.6 13 18.8333C13 14.6833 16.2211 12 19.7812 12Z" fill="#C4C4C4"/>
<rect x="1" y="1" width="38" height="38" rx="19" stroke="#C4C4C4" stroke-width="2"/>
</svg>
