<svg width="40" height="40" viewBox="0 0 40 40" fill="none" xmlns="http://www.w3.org/2000/svg">
<rect x="1" y="1" width="38" height="38" rx="19" stroke="#C4C4C4" stroke-width="2"/>
<path d="M15.0007 13.6667C15.0516 14.4083 15.1787 15.1333 15.3821 15.825L14.365 16.825C14.0174 15.825 13.797 14.7667 13.7207 13.6667H15.0007ZM23.3586 23.6833C24.0791 23.8833 24.8166 24.0083 25.5625 24.0583V25.3C24.4436 25.225 23.3671 25.0083 22.3414 24.675L23.3586 23.6833ZM15.8145 12H12.8477C12.3814 12 12 12.375 12 12.8333C12 20.6583 18.4507 27 26.4102 27C26.8764 27 27.2578 26.625 27.2578 26.1667V23.2583C27.2578 22.8 26.8764 22.425 26.4102 22.425C25.3591 22.425 24.3334 22.2583 23.384 21.95C23.2993 21.9167 23.206 21.9083 23.1213 21.9083C22.9009 21.9083 22.6889 21.9917 22.5194 22.15L20.6546 23.9833C18.2557 22.775 16.2891 20.85 15.0685 18.4917L16.9334 16.6583C17.1707 16.425 17.2385 16.1 17.1453 15.8083C16.8316 14.875 16.6621 13.875 16.6621 12.8333C16.6621 12.375 16.2807 12 15.8145 12Z" fill="#C4C4C4"/>
</svg>
