<svg width="285" height="268" viewBox="0 0 285 268" fill="none" xmlns="http://www.w3.org/2000/svg">
<rect x="0.5" y="0.5" width="284" height="267" stroke="white"/>
<path d="M73.006 117.574C74.93 117.574 76.6113 117.955 78.05 118.718C79.4887 119.481 80.598 120.555 81.378 121.942C82.1753 123.311 82.574 124.897 82.574 126.7C82.574 128.485 82.1753 130.071 81.378 131.458C80.598 132.845 79.48 133.919 78.024 134.682C76.5853 135.445 74.9127 135.826 73.006 135.826H66.168V117.574H73.006ZM72.72 131.978C74.4013 131.978 75.71 131.519 76.646 130.6C77.582 129.681 78.05 128.381 78.05 126.7C78.05 125.019 77.582 123.71 76.646 122.774C75.71 121.838 74.4013 121.37 72.72 121.37H70.614V131.978H72.72Z" fill="white"/>
<path d="M89.5046 123.736C90.0246 122.939 90.6746 122.315 91.4546 121.864C92.2346 121.396 93.1013 121.162 94.0546 121.162V125.868H92.8326C91.7233 125.868 90.8913 126.111 90.3366 126.596C89.782 127.064 89.5046 127.896 89.5046 129.092V135.826H85.0586V121.318H89.5046V123.736Z" fill="white"/>
<path d="M95.2957 128.546C95.2957 127.055 95.5731 125.747 96.1277 124.62C96.6997 123.493 97.4711 122.627 98.4417 122.02C99.4124 121.413 100.496 121.11 101.692 121.11C102.714 121.11 103.607 121.318 104.37 121.734C105.15 122.15 105.748 122.696 106.164 123.372V121.318H110.61V135.826H106.164V133.772C105.73 134.448 105.124 134.994 104.344 135.41C103.581 135.826 102.688 136.034 101.666 136.034C100.487 136.034 99.4124 135.731 98.4417 135.124C97.4711 134.5 96.6997 133.625 96.1277 132.498C95.5731 131.354 95.2957 130.037 95.2957 128.546ZM106.164 128.572C106.164 127.463 105.852 126.587 105.228 125.946C104.621 125.305 103.876 124.984 102.992 124.984C102.108 124.984 101.354 125.305 100.73 125.946C100.123 126.57 99.8197 127.437 99.8197 128.546C99.8197 129.655 100.123 130.539 100.73 131.198C101.354 131.839 102.108 132.16 102.992 132.16C103.876 132.16 104.621 131.839 105.228 131.198C105.852 130.557 106.164 129.681 106.164 128.572Z" fill="white"/>
<path d="M115.906 136.034C115.126 136.034 114.485 135.809 113.982 135.358C113.497 134.89 113.254 134.318 113.254 133.642C113.254 132.949 113.497 132.368 113.982 131.9C114.485 131.432 115.126 131.198 115.906 131.198C116.669 131.198 117.293 131.432 117.778 131.9C118.281 132.368 118.532 132.949 118.532 133.642C118.532 134.318 118.281 134.89 117.778 135.358C117.293 135.809 116.669 136.034 115.906 136.034Z" fill="white"/>
<path d="M147.344 117.574V135.826H142.898V124.88L138.816 135.826H135.228L131.12 124.854V135.826H126.674V117.574H131.926L137.048 130.21L142.118 117.574H147.344Z" fill="white"/>
<path d="M149.657 128.546C149.657 127.055 149.934 125.747 150.489 124.62C151.061 123.493 151.832 122.627 152.803 122.02C153.774 121.413 154.857 121.11 156.053 121.11C157.076 121.11 157.968 121.318 158.731 121.734C159.511 122.15 160.109 122.696 160.525 123.372V121.318H164.971V135.826H160.525V133.772C160.092 134.448 159.485 134.994 158.705 135.41C157.942 135.826 157.05 136.034 156.027 136.034C154.848 136.034 153.774 135.731 152.803 135.124C151.832 134.5 151.061 133.625 150.489 132.498C149.934 131.354 149.657 130.037 149.657 128.546ZM160.525 128.572C160.525 127.463 160.213 126.587 159.589 125.946C158.982 125.305 158.237 124.984 157.353 124.984C156.469 124.984 155.715 125.305 155.091 125.946C154.484 126.57 154.181 127.437 154.181 128.546C154.181 129.655 154.484 130.539 155.091 131.198C155.715 131.839 156.469 132.16 157.353 132.16C158.237 132.16 158.982 131.839 159.589 131.198C160.213 130.557 160.525 129.681 160.525 128.572Z" fill="white"/>
<path d="M172.634 123.736C173.154 122.939 173.804 122.315 174.584 121.864C175.364 121.396 176.23 121.162 177.184 121.162V125.868H175.962C174.852 125.868 174.02 126.111 173.466 126.596C172.911 127.064 172.634 127.896 172.634 129.092V135.826H168.188V121.318H172.634V123.736Z" fill="white"/>
<path d="M181.545 119.81C180.765 119.81 180.123 119.585 179.621 119.134C179.135 118.666 178.893 118.094 178.893 117.418C178.893 116.725 179.135 116.153 179.621 115.702C180.123 115.234 180.765 115 181.545 115C182.307 115 182.931 115.234 183.417 115.702C183.919 116.153 184.171 116.725 184.171 117.418C184.171 118.094 183.919 118.666 183.417 119.134C182.931 119.585 182.307 119.81 181.545 119.81ZM183.755 121.318V135.826H179.309V121.318H183.755Z" fill="white"/>
<path d="M195.817 121.162C197.515 121.162 198.867 121.717 199.873 122.826C200.895 123.918 201.407 125.426 201.407 127.35V135.826H196.987V127.948C196.987 126.977 196.735 126.223 196.233 125.686C195.73 125.149 195.054 124.88 194.205 124.88C193.355 124.88 192.679 125.149 192.177 125.686C191.674 126.223 191.423 126.977 191.423 127.948V135.826H186.977V121.318H191.423V123.242C191.873 122.601 192.48 122.098 193.243 121.734C194.005 121.353 194.863 121.162 195.817 121.162Z" fill="white"/>
<path d="M203.612 128.546C203.612 127.055 203.889 125.747 204.444 124.62C205.016 123.493 205.787 122.627 206.758 122.02C207.729 121.413 208.812 121.11 210.008 121.11C211.031 121.11 211.923 121.318 212.686 121.734C213.466 122.15 214.064 122.696 214.48 123.372V121.318H218.926V135.826H214.48V133.772C214.047 134.448 213.44 134.994 212.66 135.41C211.897 135.826 211.005 136.034 209.982 136.034C208.803 136.034 207.729 135.731 206.758 135.124C205.787 134.5 205.016 133.625 204.444 132.498C203.889 131.354 203.612 130.037 203.612 128.546ZM214.48 128.572C214.48 127.463 214.168 126.587 213.544 125.946C212.937 125.305 212.192 124.984 211.308 124.984C210.424 124.984 209.67 125.305 209.046 125.946C208.439 126.57 208.136 127.437 208.136 128.546C208.136 129.655 208.439 130.539 209.046 131.198C209.67 131.839 210.424 132.16 211.308 132.16C212.192 132.16 212.937 131.839 213.544 131.198C214.168 130.557 214.48 129.681 214.48 128.572Z" fill="white"/>
<path d="M57 148.638C57 147.822 57.188 147.09 57.564 146.442C57.948 145.794 58.464 145.29 59.112 144.93C59.768 144.562 60.484 144.378 61.26 144.378C62.148 144.378 62.936 144.598 63.624 145.038C64.32 145.47 64.824 146.086 65.136 146.886H63.492C63.276 146.446 62.976 146.118 62.592 145.902C62.208 145.686 61.764 145.578 61.26 145.578C60.708 145.578 60.216 145.702 59.784 145.95C59.352 146.198 59.012 146.554 58.764 147.018C58.524 147.482 58.404 148.022 58.404 148.638C58.404 149.254 58.524 149.794 58.764 150.258C59.012 150.722 59.352 151.082 59.784 151.338C60.216 151.586 60.708 151.71 61.26 151.71C61.764 151.71 62.208 151.602 62.592 151.386C62.976 151.17 63.276 150.842 63.492 150.402H65.136C64.824 151.202 64.32 151.818 63.624 152.25C62.936 152.682 62.148 152.898 61.26 152.898C60.476 152.898 59.76 152.718 59.112 152.358C58.464 151.99 57.948 151.482 57.564 150.834C57.188 150.186 57 149.454 57 148.638Z" fill="white"/>
<path d="M70.0253 151.722H72.8453V152.826H68.6573V144.486H70.0253V151.722Z" fill="white"/>
<path d="M77.2773 144.486V152.826H75.9093V144.486H77.2773ZM77.8293 142.698L75.1773 144.006V142.998L77.8293 141.534V142.698Z" fill="white"/>
<path d="M87.8453 152.826H86.4773L82.3613 146.598V152.826H80.9933V144.474H82.3613L86.4773 150.69V144.474H87.8453V152.826Z" fill="white"/>
<path d="M92.9298 144.486V152.826H91.5618V144.486H92.9298Z" fill="white"/>
<path d="M96.1898 148.638C96.1898 147.822 96.3778 147.09 96.7538 146.442C97.1378 145.794 97.6538 145.29 98.3018 144.93C98.9578 144.562 99.6738 144.378 100.45 144.378C101.338 144.378 102.126 144.598 102.814 145.038C103.51 145.47 104.014 146.086 104.326 146.886H102.682C102.466 146.446 102.166 146.118 101.782 145.902C101.398 145.686 100.954 145.578 100.45 145.578C99.8978 145.578 99.4058 145.702 98.9738 145.95C98.5418 146.198 98.2018 146.554 97.9538 147.018C97.7138 147.482 97.5938 148.022 97.5938 148.638C97.5938 149.254 97.7138 149.794 97.9538 150.258C98.2018 150.722 98.5418 151.082 98.9738 151.338C99.4058 151.586 99.8978 151.71 100.45 151.71C100.954 151.71 101.398 151.602 101.782 151.386C102.166 151.17 102.466 150.842 102.682 150.402H104.326C104.014 151.202 103.51 151.818 102.814 152.25C102.126 152.682 101.338 152.898 100.45 152.898C99.6658 152.898 98.9498 152.718 98.3018 152.358C97.6538 151.99 97.1378 151.482 96.7538 150.834C96.3778 150.186 96.1898 149.454 96.1898 148.638Z" fill="white"/>
<path d="M112.875 151.122H109.383L108.783 152.826H107.355L110.343 144.474H111.927L114.915 152.826H113.475L112.875 151.122ZM112.491 150.006L111.135 146.13L109.767 150.006H112.491Z" fill="white"/>
<path d="M126.975 152.91C126.199 152.91 125.483 152.73 124.827 152.37C124.179 152.002 123.663 151.494 123.279 150.846C122.903 150.19 122.715 149.454 122.715 148.638C122.715 147.822 122.903 147.09 123.279 146.442C123.663 145.794 124.179 145.29 124.827 144.93C125.483 144.562 126.199 144.378 126.975 144.378C127.759 144.378 128.475 144.562 129.123 144.93C129.779 145.29 130.295 145.794 130.671 146.442C131.047 147.09 131.235 147.822 131.235 148.638C131.235 149.454 131.047 150.19 130.671 150.846C130.295 151.494 129.779 152.002 129.123 152.37C128.475 152.73 127.759 152.91 126.975 152.91ZM126.975 151.722C127.527 151.722 128.019 151.598 128.451 151.35C128.883 151.094 129.219 150.734 129.459 150.27C129.707 149.798 129.831 149.254 129.831 148.638C129.831 148.022 129.707 147.482 129.459 147.018C129.219 146.554 128.883 146.198 128.451 145.95C128.019 145.702 127.527 145.578 126.975 145.578C126.423 145.578 125.931 145.702 125.499 145.95C125.067 146.198 124.727 146.554 124.479 147.018C124.239 147.482 124.119 148.022 124.119 148.638C124.119 149.254 124.239 149.798 124.479 150.27C124.727 150.734 125.067 151.094 125.499 151.35C125.931 151.598 126.423 151.722 126.975 151.722Z" fill="white"/>
<path d="M137.226 144.486C138.114 144.486 138.89 144.658 139.554 145.002C140.226 145.338 140.742 145.826 141.102 146.466C141.47 147.098 141.654 147.838 141.654 148.686C141.654 149.534 141.47 150.27 141.102 150.894C140.742 151.518 140.226 151.998 139.554 152.334C138.89 152.662 138.114 152.826 137.226 152.826H134.502V144.486H137.226ZM137.226 151.71C138.202 151.71 138.95 151.446 139.47 150.918C139.99 150.39 140.25 149.646 140.25 148.686C140.25 147.718 139.99 146.962 139.47 146.418C138.95 145.874 138.202 145.602 137.226 145.602H135.87V151.71H137.226Z" fill="white"/>
<path d="M148.733 152.91C147.957 152.91 147.241 152.73 146.585 152.37C145.937 152.002 145.421 151.494 145.037 150.846C144.661 150.19 144.473 149.454 144.473 148.638C144.473 147.822 144.661 147.09 145.037 146.442C145.421 145.794 145.937 145.29 146.585 144.93C147.241 144.562 147.957 144.378 148.733 144.378C149.517 144.378 150.233 144.562 150.881 144.93C151.537 145.29 152.053 145.794 152.429 146.442C152.805 147.09 152.993 147.822 152.993 148.638C152.993 149.454 152.805 150.19 152.429 150.846C152.053 151.494 151.537 152.002 150.881 152.37C150.233 152.73 149.517 152.91 148.733 152.91ZM148.733 151.722C149.285 151.722 149.777 151.598 150.209 151.35C150.641 151.094 150.977 150.734 151.217 150.27C151.465 149.798 151.589 149.254 151.589 148.638C151.589 148.022 151.465 147.482 151.217 147.018C150.977 146.554 150.641 146.198 150.209 145.95C149.777 145.702 149.285 145.578 148.733 145.578C148.181 145.578 147.689 145.702 147.257 145.95C146.825 146.198 146.485 146.554 146.237 147.018C145.997 147.482 145.877 148.022 145.877 148.638C145.877 149.254 145.997 149.798 146.237 150.27C146.485 150.734 146.825 151.094 147.257 151.35C147.689 151.598 148.181 151.722 148.733 151.722Z" fill="white"/>
<path d="M163.112 152.826H161.744L157.628 146.598V152.826H156.26V144.474H157.628L161.744 150.69V144.474H163.112V152.826Z" fill="white"/>
<path d="M172.216 144.486V145.602H169.996V152.826H168.628V145.602H166.396V144.486H172.216Z" fill="white"/>
<path d="M179.325 152.91C178.549 152.91 177.833 152.73 177.177 152.37C176.529 152.002 176.013 151.494 175.629 150.846C175.253 150.19 175.065 149.454 175.065 148.638C175.065 147.822 175.253 147.09 175.629 146.442C176.013 145.794 176.529 145.29 177.177 144.93C177.833 144.562 178.549 144.378 179.325 144.378C180.109 144.378 180.825 144.562 181.473 144.93C182.129 145.29 182.645 145.794 183.021 146.442C183.397 147.09 183.585 147.822 183.585 148.638C183.585 149.454 183.397 150.19 183.021 150.846C182.645 151.494 182.129 152.002 181.473 152.37C180.825 152.73 180.109 152.91 179.325 152.91ZM179.325 151.722C179.877 151.722 180.369 151.598 180.801 151.35C181.233 151.094 181.569 150.734 181.809 150.27C182.057 149.798 182.181 149.254 182.181 148.638C182.181 148.022 182.057 147.482 181.809 147.018C181.569 146.554 181.233 146.198 180.801 145.95C180.369 145.702 179.877 145.578 179.325 145.578C178.773 145.578 178.281 145.702 177.849 145.95C177.417 146.198 177.077 146.554 176.829 147.018C176.589 147.482 176.469 148.022 176.469 148.638C176.469 149.254 176.589 149.798 176.829 150.27C177.077 150.734 177.417 151.094 177.849 151.35C178.281 151.598 178.773 151.722 179.325 151.722Z" fill="white"/>
<path d="M188.22 151.722H191.04V152.826H186.852V144.486H188.22V151.722Z" fill="white"/>
<path d="M197.908 152.91C197.132 152.91 196.416 152.73 195.76 152.37C195.112 152.002 194.596 151.494 194.212 150.846C193.836 150.19 193.648 149.454 193.648 148.638C193.648 147.822 193.836 147.09 194.212 146.442C194.596 145.794 195.112 145.29 195.76 144.93C196.416 144.562 197.132 144.378 197.908 144.378C198.692 144.378 199.408 144.562 200.056 144.93C200.712 145.29 201.228 145.794 201.604 146.442C201.98 147.09 202.168 147.822 202.168 148.638C202.168 149.454 201.98 150.19 201.604 150.846C201.228 151.494 200.712 152.002 200.056 152.37C199.408 152.73 198.692 152.91 197.908 152.91ZM197.908 151.722C198.46 151.722 198.952 151.598 199.384 151.35C199.816 151.094 200.152 150.734 200.392 150.27C200.64 149.798 200.764 149.254 200.764 148.638C200.764 148.022 200.64 147.482 200.392 147.018C200.152 146.554 199.816 146.198 199.384 145.95C198.952 145.702 198.46 145.578 197.908 145.578C197.356 145.578 196.864 145.702 196.432 145.95C196 146.198 195.66 146.554 195.412 147.018C195.172 147.482 195.052 148.022 195.052 148.638C195.052 149.254 195.172 149.798 195.412 150.27C195.66 150.734 196 151.094 196.432 151.35C196.864 151.598 197.356 151.722 197.908 151.722Z" fill="white"/>
<path d="M211.47 146.886C211.254 146.47 210.954 146.158 210.57 145.95C210.186 145.734 209.742 145.626 209.238 145.626C208.686 145.626 208.194 145.75 207.762 145.998C207.33 146.246 206.99 146.598 206.742 147.054C206.502 147.51 206.382 148.038 206.382 148.638C206.382 149.238 206.502 149.77 206.742 150.234C206.99 150.69 207.33 151.042 207.762 151.29C208.194 151.538 208.686 151.662 209.238 151.662C209.982 151.662 210.586 151.454 211.05 151.038C211.514 150.622 211.798 150.058 211.902 149.346H208.77V148.254H213.366V149.322C213.278 149.97 213.046 150.566 212.67 151.11C212.302 151.654 211.818 152.09 211.218 152.418C210.626 152.738 209.966 152.898 209.238 152.898C208.454 152.898 207.738 152.718 207.09 152.358C206.442 151.99 205.926 151.482 205.542 150.834C205.166 150.186 204.978 149.454 204.978 148.638C204.978 147.822 205.166 147.09 205.542 146.442C205.926 145.794 206.442 145.29 207.09 144.93C207.746 144.562 208.462 144.378 209.238 144.378C210.126 144.378 210.914 144.598 211.602 145.038C212.298 145.47 212.802 146.086 213.114 146.886H211.47Z" fill="white"/>
<path d="M218.003 144.486V152.826H216.635V144.486H218.003Z" fill="white"/>
<path d="M226.747 151.122H223.255L222.655 152.826H221.227L224.215 144.474H225.799L228.787 152.826H227.347L226.747 151.122ZM226.363 150.006L225.007 146.13L223.639 150.006H226.363Z" fill="white"/>
</svg>
