<svg width="125" height="8" viewBox="0 0 125 8" fill="none" xmlns="http://www.w3.org/2000/svg">
<path d="M0 7.032V0.132H1.584L4.44 4.776H3.672L6.468 0.132H8.064L8.088 7.032H6.312L6.3 2.832H6.564L4.452 6.3H3.6L1.416 2.832H1.764V7.032H0Z" fill="white"/>
<path d="M11.6058 2.844H14.9418V4.224H11.6058V2.844ZM11.7978 5.58H15.4818V7.032H9.92578V0.132H15.3498V1.584H11.7978V5.58Z" fill="white"/>
<path d="M16.8633 7.032V0.132H18.4473L21.3033 4.776H20.5353L23.3313 0.132H24.9273L24.9513 7.032H23.1753L23.1633 2.832H23.4273L21.3153 6.3H20.4633L18.2793 2.832H18.6273V7.032H16.8633Z" fill="white"/>
<path d="M30.1611 7.164C29.4171 7.164 28.7531 7.012 28.1691 6.708C27.5851 6.396 27.1251 5.968 26.7891 5.424C26.4531 4.88 26.2851 4.264 26.2851 3.576C26.2851 2.888 26.4531 2.276 26.7891 1.74C27.1251 1.204 27.5851 0.78 28.1691 0.468C28.7531 0.156 29.4171 0 30.1611 0C30.9051 0 31.5691 0.156 32.1531 0.468C32.7371 0.78 33.1971 1.204 33.5331 1.74C33.8691 2.276 34.0371 2.888 34.0371 3.576C34.0371 4.264 33.8691 4.88 33.5331 5.424C33.1971 5.968 32.7371 6.396 32.1531 6.708C31.5691 7.012 30.9051 7.164 30.1611 7.164ZM30.1611 5.616C30.5451 5.616 30.8811 5.532 31.1691 5.364C31.4651 5.188 31.6971 4.944 31.8651 4.632C32.0331 4.32 32.1171 3.972 32.1171 3.588C32.1171 3.188 32.0331 2.836 31.8651 2.532C31.6971 2.228 31.4651 1.988 31.1691 1.812C30.8811 1.636 30.5451 1.548 30.1611 1.548C29.7851 1.548 29.4491 1.636 29.1531 1.812C28.8571 1.988 28.6211 2.228 28.4451 2.532C28.2771 2.836 28.1931 3.184 28.1931 3.576C28.1931 3.968 28.2771 4.32 28.4451 4.632C28.6211 4.944 28.8571 5.188 29.1531 5.364C29.4491 5.532 29.7851 5.616 30.1611 5.616Z" fill="white"/>
<path d="M35.3789 7.032V0.132H38.5229C39.1629 0.132 39.7109 0.236 40.1669 0.444C40.6309 0.644 40.9909 0.932 41.2469 1.308C41.5029 1.684 41.6309 2.14 41.6309 2.676C41.6309 3.196 41.5029 3.644 41.2469 4.02C40.9909 4.396 40.6309 4.684 40.1669 4.884C39.7109 5.084 39.1629 5.184 38.5229 5.184H36.4229L37.2749 4.38V7.032H35.3789ZM39.7229 7.032L37.9829 4.524H39.9989L41.7629 7.032H39.7229ZM37.2749 4.596L36.5789 3.744H38.3909C38.8309 3.744 39.1629 3.652 39.3869 3.468C39.6109 3.276 39.7229 3.012 39.7229 2.676C39.7229 2.332 39.6109 2.068 39.3869 1.884C39.1629 1.7 38.8309 1.608 38.3909 1.608H36.5789L37.2749 0.756V4.596Z" fill="white"/>
<path d="M43.1016 7.032V0.132H44.9976V7.032H43.1016Z" fill="white"/>
<path d="M45.7961 7.032L48.8921 0.132H50.7641L53.8721 7.032H52.0001L49.5161 1.044H50.1521L47.6321 7.032H45.7961ZM47.4881 5.664L47.9801 4.296H51.3881L51.8801 5.664H47.4881Z" fill="white"/>
<path d="M54.6914 7.032V0.132H56.2754L59.1314 4.776H58.3634L61.1594 0.132H62.7554L62.7794 7.032H61.0034L60.9914 2.832H61.2554L59.1434 6.3H58.2914L56.1074 2.832H56.4554V7.032H54.6914Z" fill="white"/>
<path d="M63.5852 7.032L66.6812 0.132H68.5532L71.6612 7.032H69.7892L67.3052 1.044H67.9412L65.4212 7.032H63.5852ZM65.2772 5.664L65.7692 4.296H69.1772L69.6692 5.664H65.2772Z" fill="white"/>
<path d="M72.4805 7.032V0.132H75.6245C76.2645 0.132 76.8125 0.236 77.2685 0.444C77.7325 0.644 78.0925 0.932 78.3485 1.308C78.6045 1.684 78.7325 2.14 78.7325 2.676C78.7325 3.196 78.6045 3.644 78.3485 4.02C78.0925 4.396 77.7325 4.684 77.2685 4.884C76.8125 5.084 76.2645 5.184 75.6245 5.184H73.5245L74.3765 4.38V7.032H72.4805ZM76.8245 7.032L75.0845 4.524H77.1005L78.8645 7.032H76.8245ZM74.3765 4.596L73.6805 3.744H75.4925C75.9325 3.744 76.2645 3.652 76.4885 3.468C76.7125 3.276 76.8245 3.012 76.8245 2.676C76.8245 2.332 76.7125 2.068 76.4885 1.884C76.2645 1.7 75.9325 1.608 75.4925 1.608H73.6805L74.3765 0.756V4.596Z" fill="white"/>
<path d="M89.0136 4.932C89.0136 5.364 88.8896 5.748 88.6416 6.084C88.4016 6.42 88.0496 6.684 87.5856 6.876C87.1296 7.068 86.5656 7.164 85.8936 7.164C85.3416 7.164 84.7976 7.096 84.2616 6.96C83.7336 6.824 83.3056 6.644 82.9776 6.42L83.6376 5.016C83.9496 5.224 84.3136 5.388 84.7296 5.508C85.1456 5.628 85.5696 5.688 86.0016 5.688C86.4256 5.688 86.7216 5.628 86.8896 5.508C87.0576 5.388 87.1416 5.248 87.1416 5.088C87.1416 4.928 87.0656 4.8 86.9136 4.704C86.7696 4.608 86.5776 4.532 86.3376 4.476C86.1056 4.412 85.8456 4.352 85.5576 4.296C85.2776 4.24 84.9936 4.168 84.7056 4.08C84.4256 3.992 84.1656 3.876 83.9256 3.732C83.6936 3.58 83.5016 3.384 83.3496 3.144C83.2056 2.896 83.1336 2.588 83.1336 2.22C83.1336 1.788 83.2576 1.408 83.5056 1.08C83.7616 0.744 84.1216 0.48 84.5856 0.288C85.0496 0.096 85.6016 0 86.2416 0C86.6736 0 87.1136 0.0480001 87.5616 0.144C88.0096 0.24 88.4016 0.392 88.7376 0.6L88.1256 2.004C87.8136 1.812 87.4896 1.676 87.1536 1.596C86.8256 1.516 86.4976 1.476 86.1696 1.476C85.7696 1.476 85.4776 1.536 85.2936 1.656C85.1096 1.776 85.0176 1.928 85.0176 2.112C85.0176 2.272 85.0896 2.4 85.2336 2.496C85.3776 2.592 85.5656 2.672 85.7976 2.736C86.0376 2.792 86.3016 2.848 86.5896 2.904C86.8776 2.96 87.1616 3.032 87.4416 3.12C87.7216 3.2 87.9816 3.312 88.2216 3.456C88.4616 3.6 88.6536 3.792 88.7976 4.032C88.9416 4.264 89.0136 4.564 89.0136 4.932Z" fill="white"/>
<path d="M91.3897 7.032V1.608H89.2178V0.132H95.4577V1.608H93.2858V7.032H91.3897Z" fill="white"/>
<path d="M99.6256 7.164C98.9456 7.164 98.3616 7.04 97.8736 6.792C97.3856 6.544 97.0096 6.188 96.7456 5.724C96.4896 5.252 96.3616 4.696 96.3616 4.056V0.132H98.2576V3.996C98.2576 4.532 98.3776 4.936 98.6176 5.208C98.8576 5.48 99.2016 5.616 99.6496 5.616C100.098 5.616 100.438 5.48 100.67 5.208C100.902 4.936 101.018 4.532 101.018 3.996V0.132H102.89V4.056C102.89 4.696 102.762 5.252 102.506 5.724C102.25 6.188 101.878 6.544 101.39 6.792C100.902 7.04 100.314 7.164 99.6256 7.164Z" fill="white"/>
<path d="M104.66 7.032V0.132H107.912C108.704 0.132 109.392 0.272 109.976 0.552C110.568 0.832 111.024 1.232 111.344 1.752C111.672 2.264 111.836 2.876 111.836 3.588C111.836 4.292 111.672 4.904 111.344 5.424C111.024 5.936 110.568 6.332 109.976 6.612C109.392 6.892 108.704 7.032 107.912 7.032H104.66ZM106.556 5.544H107.852C108.276 5.544 108.64 5.468 108.944 5.316C109.256 5.164 109.496 4.944 109.664 4.656C109.832 4.36 109.916 4.004 109.916 3.588C109.916 3.164 109.832 2.808 109.664 2.52C109.496 2.224 109.256 2 108.944 1.848C108.64 1.696 108.276 1.62 107.852 1.62H106.556V5.544Z" fill="white"/>
<path d="M113.18 7.032V0.132H115.076V7.032H113.18Z" fill="white"/>
<path d="M120.278 7.164C119.534 7.164 118.87 7.012 118.286 6.708C117.702 6.396 117.242 5.968 116.906 5.424C116.57 4.88 116.402 4.264 116.402 3.576C116.402 2.888 116.57 2.276 116.906 1.74C117.242 1.204 117.702 0.78 118.286 0.468C118.87 0.156 119.534 0 120.278 0C121.022 0 121.686 0.156 122.27 0.468C122.854 0.78 123.314 1.204 123.65 1.74C123.986 2.276 124.154 2.888 124.154 3.576C124.154 4.264 123.986 4.88 123.65 5.424C123.314 5.968 122.854 6.396 122.27 6.708C121.686 7.012 121.022 7.164 120.278 7.164ZM120.278 5.616C120.662 5.616 120.998 5.532 121.286 5.364C121.582 5.188 121.814 4.944 121.982 4.632C122.15 4.32 122.234 3.972 122.234 3.588C122.234 3.188 122.15 2.836 121.982 2.532C121.814 2.228 121.582 1.988 121.286 1.812C120.998 1.636 120.662 1.548 120.278 1.548C119.902 1.548 119.566 1.636 119.27 1.812C118.974 1.988 118.738 2.228 118.562 2.532C118.394 2.836 118.31 3.184 118.31 3.576C118.31 3.968 118.394 4.32 118.562 4.632C118.738 4.944 118.974 5.188 119.27 5.364C119.566 5.532 119.902 5.616 120.278 5.616Z" fill="white"/>
</svg>
