<svg width="285" height="268" viewBox="0 0 285 268" fill="none" xmlns="http://www.w3.org/2000/svg">
<rect x="0.5" y="0.5" width="284" height="267" stroke="white"/>
<path d="M143.368 83C115.007 83 92 105.612 92 133.497C92 161.388 115.007 184 143.368 184C171.735 184 194.736 161.388 194.736 133.497C194.736 105.612 171.735 83 143.368 83ZM126.369 104.251C126.045 104.163 125.159 103.765 124.902 104.163L124.899 105.139C124.966 105.729 125.04 106.316 125.107 106.907C125.974 113.96 126.302 121.401 124.076 128.253C122.882 131.94 120.698 135.309 117.795 137.923C115.389 140.092 111.95 142.283 108.536 142.119C107.9 142.1 107.271 141.996 106.648 141.785C102.99 140.575 102.778 136.692 102.759 133.5C102.726 130.068 103.154 126.646 104.017 123.321C104.278 122.292 104.602 121.288 104.955 120.284C108.95 108.889 118.193 99.6165 129.806 95.569C134.154 94.0535 138.753 93.2926 143.368 93.2926C156.949 93.2926 169.866 100.156 177.33 111.305C179.199 114.099 180.698 117.13 181.797 120.287H181.781C182.134 121.291 182.458 122.289 182.728 123.318C183.589 126.649 184.006 130.068 183.987 133.503C183.932 139.969 181.822 147.086 173.588 143.666C169.686 142.056 166.436 138.766 164.021 135.445C161.234 131.625 158.391 127.874 155.279 124.312C152.351 120.969 149.242 117.774 145.847 114.872C142.482 111.98 138.814 109.233 134.761 107.323C132.057 106.032 129.263 105.066 126.369 104.251Z" fill="white"/>
</svg>
