<svg width="285" height="268" viewBox="0 0 285 268" fill="none" xmlns="http://www.w3.org/2000/svg">
<rect x="0.5" y="0.5" width="284" height="267" stroke="white"/>
<path d="M118.492 114.219C119.634 114.219 120.788 114.328 121.953 114.545C123.119 114.762 124.047 115.075 124.737 115.485C124.951 115.582 125.082 115.69 125.129 115.811C125.201 115.907 125.248 116.088 125.272 116.354L125.665 120.405C125.665 120.477 125.605 120.526 125.486 120.55C125.367 120.55 125.296 120.513 125.272 120.441C124.749 118.584 123.773 117.222 122.346 116.354C120.942 115.461 119.194 115.015 117.1 115.015C115.292 115.015 113.71 115.425 112.354 116.245C110.998 117.041 109.951 118.174 109.214 119.645C108.476 121.116 108.107 122.817 108.107 124.746C108.107 126.988 108.559 129.062 109.463 130.967C110.391 132.873 111.628 134.38 113.175 135.489C114.745 136.598 116.434 137.153 118.242 137.153C119.955 137.153 121.442 136.683 122.703 135.742C123.964 134.778 124.927 133.307 125.593 131.329C125.593 131.257 125.641 131.221 125.736 131.221C125.807 131.221 125.867 131.233 125.914 131.257C125.986 131.281 126.021 131.317 126.021 131.365L125.522 135.453C125.474 135.742 125.415 135.935 125.343 136.032C125.296 136.104 125.165 136.188 124.951 136.285C122.81 137.201 120.55 137.66 118.171 137.66C115.316 137.66 112.925 137.081 110.998 135.923C109.095 134.742 107.691 133.246 106.787 131.438C105.883 129.629 105.431 127.724 105.431 125.722C105.431 123.504 106.038 121.514 107.251 119.754C108.464 117.993 110.07 116.631 112.068 115.666C114.067 114.702 116.208 114.219 118.492 114.219Z" fill="white"/>
<path d="M142.363 135.272C142.459 135.272 142.518 135.332 142.542 135.453C142.566 135.549 142.53 135.622 142.435 135.67L138.759 137.442C138.664 137.491 138.569 137.515 138.474 137.515C138.164 137.515 137.891 137.31 137.653 136.9C137.415 136.49 137.26 135.923 137.189 135.2L134.977 136.393C134.239 136.779 133.632 137.057 133.157 137.225C132.681 137.394 132.217 137.479 131.765 137.479C131.027 137.479 130.456 137.286 130.052 136.9C129.671 136.49 129.481 135.983 129.481 135.381C129.481 134.729 129.719 134.211 130.195 133.825C130.694 133.415 131.575 132.993 132.835 132.559L137.153 131.004V128.001C137.153 126.41 136.951 125.3 136.547 124.673C136.142 124.022 135.583 123.697 134.869 123.697C134.061 123.697 133.43 123.986 132.978 124.565C132.526 125.144 132.253 125.843 132.157 126.663C132.062 127.579 131.622 128.037 130.837 128.037C130.456 128.037 130.159 127.941 129.945 127.748C129.731 127.555 129.624 127.29 129.624 126.952C129.624 126.398 129.981 125.807 130.694 125.18C131.408 124.553 132.264 124.022 133.264 123.588C134.287 123.154 135.203 122.937 136.011 122.937C136.963 122.937 137.724 123.275 138.295 123.95C138.866 124.601 139.152 125.59 139.152 126.916V133.319C139.152 134.163 139.259 134.778 139.473 135.164C139.687 135.549 140.044 135.742 140.543 135.742C140.995 135.742 141.578 135.586 142.292 135.272H142.363ZM137.153 134.693V131.438L133.478 132.848C132.931 133.066 132.538 133.307 132.3 133.572C132.086 133.837 131.979 134.175 131.979 134.585C131.979 135.091 132.122 135.489 132.407 135.779C132.693 136.044 133.061 136.176 133.513 136.176C133.965 136.176 134.453 136.056 134.977 135.815L137.153 134.693Z" fill="white"/>
<path d="M152.318 122.937C152.841 122.937 153.341 123.082 153.816 123.371C154.292 123.661 154.53 124.01 154.53 124.42C154.53 124.734 154.423 124.999 154.209 125.216C154.019 125.433 153.733 125.542 153.353 125.542C153.138 125.542 152.948 125.505 152.782 125.433C152.639 125.337 152.46 125.204 152.246 125.035C152.032 124.842 151.83 124.698 151.64 124.601C151.449 124.505 151.223 124.456 150.962 124.456C150.652 124.456 150.319 124.589 149.962 124.854C149.629 125.095 149.094 125.65 148.357 126.518V134.295C148.357 135.019 148.44 135.549 148.606 135.887C148.797 136.225 149.13 136.466 149.606 136.61C150.081 136.731 150.819 136.791 151.818 136.791C151.913 136.791 151.961 136.864 151.961 137.008C151.961 137.153 151.913 137.225 151.818 137.225C151.057 137.225 150.45 137.213 149.998 137.189L147.357 137.153L145.395 137.189C145.085 137.213 144.657 137.225 144.11 137.225C144.039 137.225 144.003 137.153 144.003 137.008C144.003 136.864 144.039 136.791 144.11 136.791C144.752 136.791 145.228 136.731 145.537 136.61C145.847 136.466 146.049 136.225 146.144 135.887C146.263 135.549 146.323 135.019 146.323 134.295V127.133C146.323 126.313 146.227 125.722 146.037 125.361C145.847 124.999 145.526 124.818 145.074 124.818C144.693 124.818 144.051 124.999 143.147 125.361H143.075C142.98 125.361 142.909 125.312 142.861 125.216C142.837 125.095 142.873 125.011 142.968 124.963L147.108 122.973C147.155 122.949 147.227 122.937 147.322 122.937C147.536 122.937 147.762 123.214 148 123.769C148.238 124.324 148.357 125.035 148.357 125.903V125.939C149.332 124.782 150.105 123.998 150.676 123.588C151.247 123.154 151.794 122.937 152.318 122.937Z" fill="white"/>
<path d="M156.93 137.225C156.859 137.225 156.823 137.153 156.823 137.008C156.823 136.864 156.859 136.791 156.93 136.791C157.573 136.791 158.048 136.731 158.358 136.61C158.667 136.466 158.881 136.225 159 135.887C159.119 135.525 159.178 134.995 159.178 134.295V115.594C159.178 114.726 159.095 114.099 158.929 113.713C158.762 113.327 158.465 113.134 158.037 113.134C157.68 113.134 157.133 113.303 156.395 113.641H156.324C156.252 113.641 156.193 113.58 156.145 113.46C156.121 113.339 156.145 113.267 156.217 113.243L160.784 111.036C160.832 111.012 160.891 111 160.963 111C161.01 111 161.07 111.036 161.141 111.109C161.236 111.157 161.284 111.217 161.284 111.289V134.295C161.284 134.995 161.332 135.513 161.427 135.851C161.546 136.188 161.76 136.43 162.069 136.574C162.378 136.719 162.854 136.791 163.496 136.791C163.568 136.791 163.603 136.864 163.603 137.008C163.603 137.153 163.568 137.225 163.496 137.225C162.973 137.225 162.545 137.213 162.212 137.189L160.213 137.153L158.286 137.189C157.953 137.213 157.501 137.225 156.93 137.225Z" fill="white"/>
<path d="M179.512 135.272C179.608 135.272 179.667 135.332 179.691 135.453C179.715 135.549 179.679 135.622 179.584 135.67L175.908 137.442C175.813 137.491 175.718 137.515 175.623 137.515C175.313 137.515 175.04 137.31 174.802 136.9C174.564 136.49 174.409 135.923 174.338 135.2L172.126 136.393C171.388 136.779 170.781 137.057 170.306 137.225C169.83 137.394 169.366 137.479 168.914 137.479C168.176 137.479 167.605 137.286 167.201 136.9C166.82 136.49 166.63 135.983 166.63 135.381C166.63 134.729 166.868 134.211 167.344 133.825C167.843 133.415 168.724 132.993 169.984 132.559L174.302 131.004V128.001C174.302 126.41 174.1 125.3 173.696 124.673C173.291 124.022 172.732 123.697 172.019 123.697C171.21 123.697 170.579 123.986 170.127 124.565C169.675 125.144 169.402 125.843 169.306 126.663C169.211 127.579 168.771 128.037 167.986 128.037C167.605 128.037 167.308 127.941 167.094 127.748C166.88 127.555 166.773 127.29 166.773 126.952C166.773 126.398 167.13 125.807 167.843 125.18C168.557 124.553 169.414 124.022 170.413 123.588C171.436 123.154 172.352 122.937 173.16 122.937C174.112 122.937 174.873 123.275 175.444 123.95C176.015 124.601 176.301 125.59 176.301 126.916V133.319C176.301 134.163 176.408 134.778 176.622 135.164C176.836 135.549 177.193 135.742 177.693 135.742C178.145 135.742 178.727 135.586 179.441 135.272H179.512ZM174.302 134.693V131.438L170.627 132.848C170.08 133.066 169.687 133.307 169.449 133.572C169.235 133.837 169.128 134.175 169.128 134.585C169.128 135.091 169.271 135.489 169.556 135.779C169.842 136.044 170.21 136.176 170.662 136.176C171.115 136.176 171.602 136.056 172.126 135.815L174.302 134.693Z" fill="white"/>
<path d="M85.1855 149.389C85.1855 149.419 85.1607 149.439 85.1111 149.449C85.0616 149.449 85.0318 149.434 85.0219 149.404C84.9922 148.871 84.8336 148.459 84.5461 148.168C84.2586 147.866 83.877 147.716 83.4012 147.716H82.4942C82.1572 147.716 81.9044 147.741 81.7359 147.791C81.5674 147.841 81.4484 147.932 81.379 148.062C81.3196 148.193 81.2898 148.384 81.2898 148.635V151.936H82.7916C83.3169 151.936 83.6887 151.855 83.9067 151.695C84.1347 151.524 84.2487 151.253 84.2487 150.881C84.2487 150.861 84.2785 150.851 84.3379 150.851C84.3974 150.851 84.4272 150.861 84.4272 150.881L84.4123 152.102C84.4123 152.393 84.4172 152.614 84.4272 152.765L84.442 153.488C84.442 153.508 84.4123 153.518 84.3528 153.518C84.2933 153.518 84.2636 153.508 84.2636 153.488C84.2636 153.046 84.1446 152.73 83.9067 152.539C83.6788 152.348 83.2922 152.252 82.747 152.252H81.2898V155.538C81.2898 155.86 81.3295 156.096 81.4088 156.246C81.498 156.387 81.6665 156.488 81.9143 156.548C82.1621 156.608 82.5537 156.638 83.089 156.638C83.1187 156.638 83.1336 156.668 83.1336 156.729C83.1336 156.789 83.1187 156.819 83.089 156.819C82.6825 156.819 82.3653 156.814 82.1373 156.804L80.7991 156.789L79.7881 156.804C79.6096 156.814 79.3569 156.819 79.0297 156.819C79.0099 156.819 79 156.789 79 156.729C79 156.668 79.0099 156.638 79.0297 156.638C79.4064 156.638 79.684 156.613 79.8624 156.563C80.0408 156.513 80.1598 156.417 80.2193 156.277C80.2886 156.126 80.3233 155.9 80.3233 155.598V148.62C80.3233 148.318 80.2886 148.097 80.2193 147.957C80.1598 147.816 80.0408 147.721 79.8624 147.67C79.6939 147.61 79.4213 147.58 79.0446 147.58C79.0248 147.58 79.0149 147.55 79.0149 147.49C79.0149 147.429 79.0248 147.399 79.0446 147.399H85.0219C85.1111 147.399 85.1557 147.444 85.1557 147.535L85.1855 149.389Z" fill="white"/>
<path d="M91.6057 155.598C91.6057 155.9 91.6354 156.126 91.6949 156.277C91.7544 156.417 91.8684 156.513 92.0369 156.563C92.2153 156.613 92.4929 156.638 92.8696 156.638C92.8993 156.638 92.9142 156.668 92.9142 156.729C92.9142 156.789 92.8993 156.819 92.8696 156.819C92.5722 156.819 92.3343 156.814 92.1559 156.804L91.1002 156.789L90.0742 156.804C89.8958 156.814 89.6529 156.819 89.3456 156.819C89.3159 156.819 89.301 156.789 89.301 156.729C89.301 156.668 89.3159 156.638 89.3456 156.638C89.7223 156.638 89.9949 156.613 90.1634 156.563C90.3418 156.513 90.4608 156.417 90.5203 156.277C90.5897 156.126 90.6244 155.9 90.6244 155.598V148.62C90.6244 148.318 90.5897 148.097 90.5203 147.957C90.4608 147.816 90.3418 147.721 90.1634 147.67C89.9949 147.61 89.7223 147.58 89.3456 147.58C89.3159 147.58 89.301 147.55 89.301 147.49C89.301 147.429 89.3159 147.399 89.3456 147.399L90.0742 147.414C90.4905 147.434 90.8325 147.444 91.1002 147.444C91.3975 147.444 91.7544 147.434 92.1707 147.414L92.8696 147.399C92.8993 147.399 92.9142 147.429 92.9142 147.49C92.9142 147.55 92.8993 147.58 92.8696 147.58C92.5028 147.58 92.2302 147.61 92.0518 147.67C91.8833 147.731 91.7643 147.836 91.6949 147.987C91.6354 148.128 91.6057 148.349 91.6057 148.65V155.598Z" fill="white"/>
<path d="M98.4161 149.163C98.4161 149.554 98.5103 149.896 98.6986 150.187C98.887 150.479 99.115 150.725 99.3826 150.926C99.6503 151.117 100.027 151.363 100.513 151.664C101.028 151.976 101.43 152.237 101.717 152.448C102.004 152.659 102.247 152.931 102.446 153.262C102.654 153.584 102.758 153.971 102.758 154.423C102.758 154.905 102.639 155.342 102.401 155.734C102.163 156.126 101.811 156.437 101.345 156.668C100.889 156.889 100.339 157 99.6949 157C98.9316 157 98.2327 156.824 97.5983 156.472C97.5488 156.442 97.5141 156.407 97.4943 156.367C97.4843 156.327 97.4744 156.266 97.4645 156.186L97.2712 154.136C97.2613 154.096 97.2811 154.071 97.3307 154.061C97.3902 154.051 97.4249 154.066 97.4348 154.106C97.5934 154.83 97.8858 155.453 98.3121 155.975C98.7482 156.498 99.3231 156.759 100.037 156.759C100.532 156.759 100.949 156.623 101.286 156.352C101.633 156.071 101.806 155.628 101.806 155.026C101.806 154.573 101.707 154.182 101.509 153.85C101.311 153.518 101.068 153.247 100.78 153.036C100.503 152.815 100.121 152.559 99.6354 152.267C99.1596 151.976 98.7829 151.725 98.5053 151.514C98.2377 151.303 98.0097 151.036 97.8214 150.715C97.633 150.393 97.5389 150.017 97.5389 149.585C97.5389 149.082 97.6677 148.655 97.9255 148.303C98.1931 147.942 98.5351 147.675 98.9514 147.505C99.3777 147.324 99.8287 147.233 100.304 147.233C100.889 147.233 101.469 147.354 102.044 147.595C102.193 147.645 102.267 147.731 102.267 147.851L102.371 149.585C102.371 149.625 102.346 149.645 102.297 149.645C102.247 149.645 102.218 149.625 102.208 149.585C102.128 149.062 101.915 148.58 101.568 148.138C101.221 147.685 100.721 147.459 100.067 147.459C99.5115 147.459 99.0951 147.625 98.8176 147.957C98.55 148.278 98.4161 148.68 98.4161 149.163Z" fill="white"/>
<path d="M109.199 155.598C109.199 155.9 109.229 156.126 109.288 156.277C109.348 156.417 109.462 156.513 109.63 156.563C109.809 156.613 110.086 156.638 110.463 156.638C110.493 156.638 110.508 156.668 110.508 156.729C110.508 156.789 110.493 156.819 110.463 156.819C110.166 156.819 109.928 156.814 109.749 156.804L108.694 156.789L107.668 156.804C107.489 156.814 107.246 156.819 106.939 156.819C106.909 156.819 106.895 156.789 106.895 156.729C106.895 156.668 106.909 156.638 106.939 156.638C107.316 156.638 107.588 156.613 107.757 156.563C107.935 156.513 108.054 156.417 108.114 156.277C108.183 156.126 108.218 155.9 108.218 155.598V148.62C108.218 148.318 108.183 148.097 108.114 147.957C108.054 147.816 107.935 147.721 107.757 147.67C107.588 147.61 107.316 147.58 106.939 147.58C106.909 147.58 106.895 147.55 106.895 147.49C106.895 147.429 106.909 147.399 106.939 147.399L107.668 147.414C108.084 147.434 108.426 147.444 108.694 147.444C108.991 147.444 109.348 147.434 109.764 147.414L110.463 147.399C110.493 147.399 110.508 147.429 110.508 147.49C110.508 147.55 110.493 147.58 110.463 147.58C110.096 147.58 109.824 147.61 109.645 147.67C109.477 147.731 109.358 147.836 109.288 147.987C109.229 148.128 109.199 148.349 109.199 148.65V155.598Z" fill="white"/>
<path d="M119.296 157C118.374 157 117.551 156.784 116.827 156.352C116.114 155.91 115.559 155.317 115.162 154.573C114.776 153.82 114.582 153.001 114.582 152.117C114.582 151.082 114.84 150.197 115.355 149.464C115.871 148.72 116.53 148.163 117.333 147.791C118.146 147.419 118.974 147.233 119.816 147.233C120.758 147.233 121.586 147.459 122.299 147.912C123.013 148.354 123.558 148.941 123.935 149.675C124.321 150.408 124.515 151.187 124.515 152.011C124.515 152.926 124.277 153.765 123.801 154.528C123.325 155.292 122.686 155.895 121.883 156.337C121.09 156.779 120.227 157 119.296 157ZM119.816 156.683C120.49 156.683 121.095 156.518 121.63 156.186C122.175 155.855 122.602 155.367 122.909 154.724C123.226 154.081 123.385 153.317 123.385 152.433C123.385 151.489 123.211 150.65 122.864 149.916C122.517 149.183 122.027 148.61 121.392 148.198C120.768 147.786 120.034 147.58 119.192 147.58C118.101 147.58 117.249 147.937 116.634 148.65C116.02 149.363 115.712 150.343 115.712 151.589C115.712 152.534 115.886 153.398 116.233 154.182C116.58 154.955 117.065 155.568 117.69 156.02C118.314 156.462 119.023 156.683 119.816 156.683Z" fill="white"/>
<path d="M130.434 147.67C129.809 147.67 129.339 147.831 129.021 148.153C128.714 148.474 128.491 149.022 128.352 149.796C128.352 149.816 128.323 149.826 128.263 149.826C128.213 149.826 128.189 149.816 128.189 149.796C128.228 149.434 128.273 148.962 128.323 148.379C128.372 147.796 128.397 147.359 128.397 147.067C128.397 147.017 128.422 146.992 128.471 146.992C128.531 146.992 128.56 147.017 128.56 147.067C128.56 147.289 128.828 147.399 129.363 147.399C130.206 147.429 131.202 147.444 132.352 147.444C132.937 147.444 133.556 147.434 134.211 147.414L135.222 147.399C135.579 147.399 135.841 147.374 136.01 147.324C136.188 147.273 136.302 147.173 136.352 147.022C136.362 146.982 136.391 146.962 136.441 146.962C136.491 146.962 136.515 146.982 136.515 147.022C136.486 147.314 136.456 147.756 136.426 148.349C136.396 148.941 136.381 149.424 136.381 149.796C136.381 149.816 136.352 149.826 136.292 149.826C136.233 149.826 136.203 149.816 136.203 149.796C136.173 149.012 136.015 148.464 135.727 148.153C135.44 147.831 134.964 147.67 134.3 147.67C133.854 147.67 133.537 147.69 133.348 147.731C133.16 147.771 133.031 147.856 132.962 147.987C132.892 148.118 132.858 148.339 132.858 148.65V155.598C132.858 155.91 132.892 156.136 132.962 156.277C133.031 156.417 133.165 156.513 133.363 156.563C133.561 156.613 133.874 156.638 134.3 156.638C134.33 156.638 134.344 156.668 134.344 156.729C134.344 156.789 134.33 156.819 134.3 156.819C133.973 156.819 133.71 156.814 133.512 156.804L132.352 156.789L131.237 156.804C131.039 156.814 130.766 156.819 130.419 156.819C130.399 156.819 130.389 156.789 130.389 156.729C130.389 156.668 130.399 156.638 130.419 156.638C130.845 156.638 131.158 156.613 131.356 156.563C131.554 156.513 131.688 156.417 131.757 156.277C131.837 156.126 131.876 155.9 131.876 155.598V148.62C131.876 148.308 131.841 148.092 131.772 147.972C131.703 147.841 131.574 147.761 131.386 147.731C131.197 147.69 130.88 147.67 130.434 147.67Z" fill="white"/>
<path d="M146.787 154.573C146.787 154.553 146.806 154.543 146.846 154.543C146.876 154.543 146.901 154.548 146.92 154.558C146.95 154.568 146.965 154.583 146.965 154.604C146.876 155.237 146.831 155.9 146.831 156.593C146.831 156.673 146.811 156.734 146.772 156.774C146.742 156.804 146.682 156.819 146.593 156.819H140.363C140.343 156.819 140.333 156.789 140.333 156.729C140.333 156.668 140.343 156.638 140.363 156.638C140.74 156.638 141.012 156.613 141.181 156.563C141.359 156.513 141.478 156.417 141.538 156.277C141.607 156.126 141.642 155.9 141.642 155.598V148.62C141.642 148.318 141.607 148.097 141.538 147.957C141.478 147.816 141.359 147.721 141.181 147.67C141.012 147.61 140.74 147.58 140.363 147.58C140.343 147.58 140.333 147.55 140.333 147.49C140.333 147.429 140.343 147.399 140.363 147.399H146.341C146.43 147.399 146.474 147.444 146.474 147.535L146.504 149.389C146.504 149.419 146.479 149.439 146.43 149.449C146.38 149.449 146.35 149.434 146.341 149.404C146.311 148.871 146.152 148.459 145.865 148.168C145.577 147.866 145.196 147.716 144.72 147.716H143.813C143.466 147.716 143.208 147.746 143.04 147.806C142.881 147.856 142.767 147.952 142.698 148.092C142.638 148.223 142.608 148.424 142.608 148.695V151.755H144.422C144.898 151.755 145.235 151.675 145.433 151.514C145.642 151.353 145.746 151.082 145.746 150.7C145.746 150.68 145.775 150.67 145.835 150.67C145.894 150.67 145.924 150.68 145.924 150.7L145.909 151.921C145.909 152.212 145.914 152.433 145.924 152.584L145.939 153.307C145.939 153.327 145.909 153.337 145.85 153.337C145.79 153.337 145.761 153.327 145.761 153.307C145.761 152.865 145.652 152.549 145.433 152.358C145.225 152.167 144.873 152.071 144.378 152.071H142.608V155.538C142.608 155.819 142.638 156.025 142.698 156.156C142.757 156.287 142.866 156.377 143.025 156.427C143.183 156.478 143.431 156.503 143.768 156.503H144.958C145.433 156.503 145.83 156.332 146.147 155.99C146.464 155.649 146.678 155.176 146.787 154.573Z" fill="white"/>
<path d="M160.542 156.638C160.562 156.638 160.572 156.668 160.572 156.729C160.572 156.789 160.562 156.819 160.542 156.819H158.624C158.376 156.819 157.91 156.392 157.226 155.538C156.552 154.674 155.729 153.473 154.758 151.936C154.52 152.006 154.252 152.041 153.955 152.041C153.767 152.041 153.544 152.031 153.286 152.011V155.598C153.286 155.91 153.316 156.136 153.375 156.277C153.435 156.417 153.549 156.513 153.717 156.563C153.896 156.613 154.173 156.638 154.55 156.638C154.58 156.638 154.594 156.668 154.594 156.729C154.594 156.789 154.58 156.819 154.55 156.819C154.242 156.819 154 156.814 153.821 156.804L152.795 156.789L151.784 156.804C151.606 156.814 151.353 156.819 151.026 156.819C151.006 156.819 150.996 156.789 150.996 156.729C150.996 156.668 151.006 156.638 151.026 156.638C151.403 156.638 151.68 156.613 151.858 156.563C152.037 156.503 152.161 156.402 152.23 156.261C152.3 156.121 152.334 155.9 152.334 155.598V148.62C152.334 148.318 152.3 148.097 152.23 147.957C152.171 147.816 152.052 147.721 151.873 147.67C151.705 147.61 151.432 147.58 151.056 147.58C151.026 147.58 151.011 147.55 151.011 147.49C151.011 147.429 151.026 147.399 151.056 147.399L151.784 147.414C152.2 147.434 152.538 147.444 152.795 147.444C152.974 147.444 153.142 147.439 153.301 147.429C153.459 147.419 153.598 147.409 153.717 147.399C154.034 147.369 154.322 147.354 154.58 147.354C155.382 147.354 156.002 147.52 156.438 147.851C156.874 148.183 157.092 148.645 157.092 149.238C157.092 149.72 156.954 150.177 156.676 150.609C156.398 151.031 156.032 151.368 155.576 151.619C156.418 152.895 157.127 153.895 157.702 154.619C158.277 155.332 158.787 155.849 159.233 156.171C159.68 156.483 160.116 156.638 160.542 156.638ZM153.286 151.634C153.534 151.675 153.826 151.695 154.163 151.695C154.847 151.695 155.338 151.549 155.635 151.258C155.933 150.956 156.081 150.459 156.081 149.765C156.081 148.308 155.477 147.58 154.267 147.58C154 147.58 153.796 147.605 153.658 147.655C153.529 147.695 153.435 147.791 153.375 147.942C153.316 148.082 153.286 148.318 153.286 148.65V151.634Z" fill="white"/>
<path d="M173.461 156.638C173.5 156.638 173.52 156.668 173.52 156.729C173.52 156.789 173.5 156.819 173.461 156.819C173.272 156.819 172.98 156.809 172.584 156.789C172.187 156.769 171.9 156.759 171.721 156.759C171.503 156.759 171.226 156.769 170.889 156.789C170.571 156.809 170.328 156.819 170.16 156.819C170.12 156.819 170.1 156.789 170.1 156.729C170.1 156.668 170.12 156.638 170.16 156.638C170.527 156.638 170.794 156.603 170.963 156.533C171.131 156.462 171.216 156.342 171.216 156.171C171.216 156.03 171.151 155.814 171.022 155.523L169.312 151.83H166.502L165.223 154.905C165.085 155.247 165.015 155.528 165.015 155.749C165.015 156.342 165.501 156.638 166.472 156.638C166.522 156.638 166.547 156.668 166.547 156.729C166.547 156.789 166.522 156.819 166.472 156.819C166.294 156.819 166.036 156.809 165.699 156.789C165.323 156.769 164.995 156.759 164.718 156.759C164.46 156.759 164.163 156.769 163.826 156.789C163.528 156.809 163.281 156.819 163.082 156.819C163.033 156.819 163.008 156.789 163.008 156.729C163.008 156.668 163.033 156.638 163.082 156.638C163.36 156.638 163.593 156.588 163.781 156.488C163.979 156.377 164.163 156.191 164.331 155.93C164.51 155.659 164.703 155.272 164.911 154.769L168.049 147.263C168.068 147.233 168.103 147.218 168.153 147.218C168.202 147.218 168.232 147.233 168.242 147.263L171.751 154.754C172.088 155.498 172.375 156 172.613 156.261C172.851 156.513 173.134 156.638 173.461 156.638ZM166.636 151.514H169.164L167.826 148.65L166.636 151.514Z" fill="white"/>
<path d="M179.039 155.538C179.039 155.86 179.079 156.096 179.158 156.246C179.247 156.387 179.411 156.488 179.648 156.548C179.896 156.608 180.283 156.638 180.808 156.638C180.838 156.638 180.853 156.668 180.853 156.729C180.853 156.789 180.838 156.819 180.808 156.819C180.402 156.819 180.085 156.814 179.857 156.804L178.563 156.789L177.567 156.804C177.379 156.814 177.126 156.819 176.809 156.819C176.789 156.819 176.779 156.789 176.779 156.729C176.779 156.668 176.789 156.638 176.809 156.638C177.185 156.638 177.458 156.613 177.626 156.563C177.805 156.513 177.924 156.417 177.983 156.277C178.043 156.126 178.072 155.9 178.072 155.598V148.62C178.072 148.318 178.043 148.097 177.983 147.957C177.924 147.816 177.805 147.721 177.626 147.67C177.458 147.61 177.185 147.58 176.809 147.58C176.789 147.58 176.779 147.55 176.779 147.49C176.779 147.429 176.789 147.399 176.809 147.399L177.552 147.414C177.968 147.434 178.3 147.444 178.548 147.444C178.796 147.444 179.074 147.429 179.381 147.399C179.5 147.399 179.688 147.394 179.946 147.384C180.204 147.364 180.427 147.354 180.615 147.354C181.527 147.354 182.256 147.56 182.801 147.972C183.356 148.384 183.633 149.012 183.633 149.856C183.633 150.519 183.47 151.077 183.143 151.529C182.825 151.981 182.414 152.318 181.909 152.539C181.403 152.76 180.883 152.87 180.347 152.87C180.06 152.87 179.822 152.845 179.634 152.795C179.604 152.795 179.589 152.77 179.589 152.72C179.589 152.689 179.594 152.659 179.604 152.629C179.624 152.599 179.644 152.589 179.663 152.599C179.822 152.639 180 152.659 180.199 152.659C180.853 152.659 181.403 152.443 181.849 152.011C182.305 151.579 182.533 150.956 182.533 150.142C182.533 149.348 182.32 148.725 181.894 148.273C181.467 147.811 180.922 147.58 180.258 147.58C179.901 147.58 179.644 147.6 179.485 147.64C179.326 147.68 179.212 147.776 179.143 147.927C179.074 148.067 179.039 148.308 179.039 148.65V155.538Z" fill="white"/>
<path d="M189.893 155.598C189.893 155.9 189.922 156.126 189.982 156.277C190.041 156.417 190.155 156.513 190.324 156.563C190.502 156.613 190.78 156.638 191.157 156.638C191.186 156.638 191.201 156.668 191.201 156.729C191.201 156.789 191.186 156.819 191.157 156.819C190.859 156.819 190.621 156.814 190.443 156.804L189.387 156.789L188.361 156.804C188.183 156.814 187.94 156.819 187.633 156.819C187.603 156.819 187.588 156.789 187.588 156.729C187.588 156.668 187.603 156.638 187.633 156.638C188.009 156.638 188.282 156.613 188.45 156.563C188.629 156.513 188.748 156.417 188.807 156.277C188.877 156.126 188.911 155.9 188.911 155.598V148.62C188.911 148.318 188.877 148.097 188.807 147.957C188.748 147.816 188.629 147.721 188.45 147.67C188.282 147.61 188.009 147.58 187.633 147.58C187.603 147.58 187.588 147.55 187.588 147.49C187.588 147.429 187.603 147.399 187.633 147.399L188.361 147.414C188.778 147.434 189.12 147.444 189.387 147.444C189.685 147.444 190.041 147.434 190.458 147.414L191.157 147.399C191.186 147.399 191.201 147.429 191.201 147.49C191.201 147.55 191.186 147.58 191.157 147.58C190.79 147.58 190.517 147.61 190.339 147.67C190.17 147.731 190.051 147.836 189.982 147.987C189.922 148.128 189.893 148.349 189.893 148.65V155.598Z" fill="white"/>
<path d="M204.941 156.638C204.98 156.638 205 156.668 205 156.729C205 156.789 204.98 156.819 204.941 156.819C204.752 156.819 204.46 156.809 204.063 156.789C203.667 156.769 203.379 156.759 203.201 156.759C202.983 156.759 202.705 156.769 202.368 156.789C202.051 156.809 201.808 156.819 201.64 156.819C201.6 156.819 201.58 156.789 201.58 156.729C201.58 156.668 201.6 156.638 201.64 156.638C202.006 156.638 202.274 156.603 202.443 156.533C202.611 156.462 202.695 156.342 202.695 156.171C202.695 156.03 202.631 155.814 202.502 155.523L200.792 151.83H197.982L196.703 154.905C196.564 155.247 196.495 155.528 196.495 155.749C196.495 156.342 196.981 156.638 197.952 156.638C198.002 156.638 198.026 156.668 198.026 156.729C198.026 156.789 198.002 156.819 197.952 156.819C197.774 156.819 197.516 156.809 197.179 156.789C196.802 156.769 196.475 156.759 196.198 156.759C195.94 156.759 195.643 156.769 195.305 156.789C195.008 156.809 194.76 156.819 194.562 156.819C194.512 156.819 194.488 156.789 194.488 156.729C194.488 156.668 194.512 156.638 194.562 156.638C194.84 156.638 195.073 156.588 195.261 156.488C195.459 156.377 195.642 156.191 195.811 155.93C195.989 155.659 196.183 155.272 196.391 154.769L199.528 147.263C199.548 147.233 199.583 147.218 199.632 147.218C199.682 147.218 199.712 147.233 199.722 147.263L203.231 154.754C203.568 155.498 203.855 156 204.093 156.261C204.331 156.513 204.613 156.638 204.941 156.638ZM198.116 151.514H200.643L199.305 148.65L198.116 151.514Z" fill="white"/>
</svg>
