<svg width="285" height="268" viewBox="0 0 285 268" fill="none" xmlns="http://www.w3.org/2000/svg">
<rect x="0.5" y="0.5" width="284" height="267" stroke="#7E7E7E"/>
<path d="M160.847 83C132.487 83 109.479 105.612 109.479 133.497C109.479 161.388 132.487 184 160.847 184C189.215 184 212.215 161.388 212.215 133.497C212.215 105.612 189.215 83 160.847 83ZM143.849 104.251C143.525 104.163 142.638 103.765 142.381 104.163L142.378 105.139C142.446 105.729 142.519 106.316 142.587 106.907C143.454 113.96 143.782 121.401 141.556 128.253C140.361 131.94 138.177 135.309 135.274 137.923C132.869 140.092 129.429 142.283 126.016 142.119C125.38 142.1 124.75 141.996 124.127 141.785C120.469 140.575 120.257 136.692 120.238 133.5C120.206 130.068 120.633 126.646 121.497 123.321C121.757 122.292 122.081 121.288 122.435 120.284C126.43 108.889 135.672 99.6165 147.285 95.569C151.634 94.0535 156.233 93.2926 160.847 93.2926C174.429 93.2926 187.346 100.156 194.809 111.305C196.678 114.099 198.178 117.13 199.276 120.287H199.26C199.613 121.291 199.938 122.289 200.208 123.318C201.068 126.649 201.486 130.068 201.467 133.503C201.412 139.969 199.302 147.086 191.068 143.666C187.166 142.056 183.916 138.766 181.501 135.445C178.713 131.625 175.871 127.874 172.759 124.312C169.83 120.969 166.721 117.774 163.327 114.872C159.961 111.98 156.294 109.233 152.241 107.323C149.537 106.032 146.743 105.066 143.849 104.251Z" fill="#7E7E7E"/>
</svg>
