<svg width="285" height="268" viewBox="0 0 285 268" fill="none" xmlns="http://www.w3.org/2000/svg">
<rect x="0.5" y="0.5" width="284" height="267" stroke="#7E7E7E"/>
<path d="M104.933 138.119V137.598L105.421 137.424C105.942 137.258 106.203 136.845 106.203 136.182C106.219 135.239 106.227 134.278 106.227 133.301C106.227 132.308 106.227 131.298 106.227 130.271V129.402C106.227 128.442 106.227 127.481 106.227 126.521C106.227 125.561 106.219 124.6 106.203 123.64C106.203 122.961 105.95 122.539 105.446 122.374L104.933 122.224V121.703H111.355C113.064 121.703 114.537 122.026 115.775 122.672C117.012 123.317 117.964 124.253 118.631 125.478C119.299 126.687 119.633 128.152 119.633 129.874C119.633 131.629 119.266 133.119 118.534 134.344C117.817 135.57 116.8 136.505 115.482 137.151C114.179 137.797 112.657 138.119 110.915 138.119H104.933ZM109.743 137.399H110.989C112.144 137.399 113.08 137.167 113.797 136.704C114.529 136.24 115.066 135.462 115.408 134.369C115.75 133.26 115.921 131.77 115.921 129.899C115.921 128.028 115.75 126.546 115.408 125.453C115.066 124.36 114.537 123.582 113.821 123.119C113.121 122.655 112.21 122.423 111.086 122.423H109.743C109.727 123.566 109.719 124.725 109.719 125.9C109.719 127.059 109.719 128.227 109.719 129.402V130.246C109.719 131.488 109.719 132.705 109.719 133.897C109.719 135.073 109.727 136.24 109.743 137.399Z" fill="#7E7E7E"/>
<path d="M120.67 138.119V137.648L121.036 137.523C121.362 137.441 121.581 137.3 121.695 137.101C121.826 136.903 121.891 136.638 121.891 136.306V129.03C121.875 128.665 121.809 128.392 121.695 128.21C121.581 128.011 121.362 127.879 121.036 127.813L120.67 127.713V127.266L124.65 125.826L124.943 126.099L125.163 128.284V128.458C125.407 127.995 125.716 127.564 126.091 127.167C126.465 126.769 126.872 126.447 127.312 126.198C127.751 125.95 128.191 125.826 128.63 125.826C129.249 125.826 129.713 125.991 130.022 126.322C130.331 126.654 130.486 127.076 130.486 127.589C130.486 128.152 130.331 128.582 130.022 128.881C129.713 129.162 129.338 129.303 128.899 129.303C128.248 129.303 127.686 129.005 127.214 128.409L127.165 128.359C127.002 128.16 126.815 128.053 126.603 128.036C126.408 128.003 126.213 128.102 126.017 128.334C125.855 128.5 125.7 128.698 125.553 128.93C125.423 129.145 125.301 129.402 125.187 129.7V136.207C125.187 136.522 125.252 136.787 125.383 137.002C125.513 137.201 125.733 137.341 126.042 137.424L126.774 137.648V138.119H120.67Z" fill="#7E7E7E"/>
<path d="M131.999 138.467C131.429 138.467 130.941 138.268 130.534 137.871C130.143 137.474 129.948 136.994 129.948 136.431C129.948 135.851 130.143 135.354 130.534 134.94C130.941 134.527 131.429 134.32 131.999 134.32C132.569 134.32 133.049 134.527 133.439 134.94C133.846 135.354 134.05 135.851 134.05 136.431C134.05 136.994 133.846 137.474 133.439 137.871C133.049 138.268 132.569 138.467 131.999 138.467Z" fill="#7E7E7E"/>
<path d="M149.91 138.542C148.25 138.542 146.793 138.186 145.539 137.474C144.286 136.762 143.301 135.76 142.585 134.469C141.885 133.161 141.535 131.629 141.535 129.874C141.535 128.152 141.877 126.645 142.56 125.354C143.26 124.062 144.269 123.061 145.588 122.349C146.907 121.62 148.486 121.256 150.325 121.256C151.204 121.256 152.018 121.355 152.767 121.554C153.532 121.753 154.248 122.042 154.916 122.423L155.013 125.975H154.354L153.133 123.466C152.938 123.069 152.751 122.779 152.572 122.597C152.392 122.415 152.156 122.282 151.863 122.2C151.652 122.117 151.448 122.067 151.253 122.051C151.058 122.018 150.805 122.001 150.496 122.001C149.47 122.001 148.567 122.274 147.786 122.821C147.004 123.35 146.394 124.195 145.954 125.354C145.531 126.513 145.319 128.02 145.319 129.874C145.319 132.672 145.767 134.7 146.662 135.959C147.574 137.201 148.787 137.821 150.301 137.821C150.659 137.821 150.968 137.772 151.229 137.672C151.538 137.623 151.749 137.499 151.863 137.3C151.977 137.085 152.034 136.82 152.034 136.505C152.034 135.826 152.026 135.089 152.01 134.295C152.01 133.483 152.01 132.747 152.01 132.084C152.01 131.439 151.676 131.041 151.009 130.892L149.91 130.644V130.122H156.649V130.644L156.356 130.718C156.047 130.818 155.811 130.967 155.648 131.165C155.485 131.348 155.404 131.604 155.404 131.935C155.404 132.598 155.396 133.276 155.38 133.972C155.38 134.651 155.38 135.338 155.38 136.033V137.101C154.533 137.565 153.67 137.921 152.791 138.169C151.929 138.418 150.968 138.542 149.91 138.542Z" fill="#7E7E7E"/>
<path d="M160.956 138.467C160.028 138.467 159.239 138.202 158.588 137.672C157.953 137.126 157.636 136.348 157.636 135.338C157.636 134.543 158.01 133.815 158.759 133.152C159.524 132.473 160.72 131.977 162.348 131.662C162.625 131.596 162.942 131.538 163.3 131.488C163.675 131.422 164.041 131.356 164.399 131.29V129.526C164.399 128.4 164.261 127.622 163.984 127.192C163.707 126.761 163.268 126.546 162.666 126.546H162.592C162.218 126.546 161.917 126.67 161.689 126.918C161.477 127.15 161.339 127.539 161.274 128.086L161.201 128.409C161.152 129.071 160.981 129.559 160.688 129.874C160.395 130.172 160.028 130.321 159.589 130.321C159.182 130.321 158.84 130.197 158.563 129.948C158.303 129.684 158.173 129.344 158.173 128.93C158.173 128.251 158.401 127.68 158.856 127.217C159.312 126.753 159.915 126.405 160.663 126.173C161.428 125.942 162.25 125.826 163.13 125.826C164.578 125.826 165.685 126.182 166.45 126.894C167.215 127.606 167.598 128.765 167.598 130.371V135.909C167.598 136.621 167.932 136.977 168.599 136.977H169.161L169.405 137.25C169.112 137.631 168.786 137.921 168.428 138.119C168.07 138.335 167.582 138.442 166.963 138.442C166.263 138.442 165.702 138.277 165.278 137.946C164.871 137.598 164.603 137.143 164.472 136.58C163.952 137.143 163.439 137.598 162.934 137.946C162.43 138.293 161.77 138.467 160.956 138.467ZM162.373 136.878C162.698 136.878 163.007 136.803 163.3 136.654C163.593 136.505 163.96 136.257 164.399 135.909V131.935C163.976 132.002 163.545 132.084 163.105 132.184C162.405 132.349 161.835 132.656 161.396 133.103C160.973 133.55 160.761 134.154 160.761 134.916C160.761 135.578 160.907 136.075 161.201 136.406C161.51 136.72 161.9 136.878 162.373 136.878Z" fill="#7E7E7E"/>
<path d="M174.012 138.442L170.007 138.119V137.648L170.251 137.598C170.886 137.449 171.204 137.035 171.204 136.356V123.441C171.204 123.11 171.139 122.854 171.008 122.672C170.894 122.489 170.675 122.357 170.349 122.274L170.032 122.2V121.753L174.207 120.685L174.525 120.908L174.427 124.41V127.018C175.583 126.223 176.828 125.826 178.163 125.826C179.53 125.826 180.662 126.339 181.557 127.366C182.452 128.376 182.9 129.94 182.9 132.06C182.9 133.467 182.672 134.651 182.216 135.611C181.76 136.555 181.15 137.267 180.385 137.747C179.62 138.227 178.773 138.467 177.845 138.467C177.227 138.467 176.608 138.384 175.99 138.219C175.387 138.053 174.85 137.797 174.378 137.449L174.012 138.442ZM176.698 137.374C177.235 137.374 177.707 137.217 178.114 136.903C178.521 136.588 178.838 136.05 179.066 135.288C179.294 134.527 179.408 133.483 179.408 132.159C179.408 130.834 179.302 129.799 179.091 129.054C178.879 128.309 178.57 127.788 178.163 127.49C177.772 127.192 177.3 127.043 176.747 127.043C176.014 127.043 175.265 127.258 174.5 127.688V136.754C175.168 137.167 175.9 137.374 176.698 137.374Z" fill="#7E7E7E"/>
<path d="M184.027 138.119V137.648L184.394 137.523C184.719 137.441 184.939 137.3 185.053 137.101C185.183 136.903 185.248 136.638 185.248 136.306V129.03C185.232 128.665 185.167 128.392 185.053 128.21C184.939 128.011 184.719 127.879 184.394 127.813L184.027 127.713V127.266L188.007 125.826L188.3 126.099L188.52 128.284V128.458C188.764 127.995 189.074 127.564 189.448 127.167C189.822 126.769 190.229 126.447 190.669 126.198C191.108 125.95 191.548 125.826 191.987 125.826C192.606 125.826 193.07 125.991 193.379 126.322C193.689 126.654 193.843 127.076 193.843 127.589C193.843 128.152 193.689 128.582 193.379 128.881C193.07 129.162 192.696 129.303 192.256 129.303C191.605 129.303 191.043 129.005 190.571 128.409L190.522 128.359C190.36 128.16 190.172 128.053 189.961 128.036C189.765 128.003 189.57 128.102 189.375 128.334C189.212 128.5 189.057 128.698 188.911 128.93C188.781 129.145 188.659 129.402 188.545 129.7V136.207C188.545 136.522 188.61 136.787 188.74 137.002C188.87 137.201 189.09 137.341 189.399 137.424L190.132 137.648V138.119H184.027Z" fill="#7E7E7E"/>
<path d="M197.471 124.46C196.934 124.46 196.478 124.286 196.104 123.938C195.729 123.59 195.542 123.152 195.542 122.622C195.542 122.075 195.729 121.637 196.104 121.306C196.478 120.958 196.934 120.784 197.471 120.784C198.008 120.784 198.464 120.958 198.838 121.306C199.213 121.637 199.4 122.075 199.4 122.622C199.4 123.152 199.213 123.59 198.838 123.938C198.464 124.286 198.008 124.46 197.471 124.46ZM194.663 138.119V137.648L195.029 137.548C195.355 137.449 195.575 137.3 195.688 137.101C195.802 136.903 195.868 136.638 195.884 136.306V131.737C195.884 131.223 195.884 130.751 195.884 130.321C195.884 129.874 195.876 129.419 195.859 128.955C195.859 128.624 195.794 128.367 195.664 128.185C195.55 127.986 195.33 127.854 195.005 127.788L194.663 127.713V127.266L198.936 125.826L199.229 126.099L199.156 129.626V136.331C199.156 136.662 199.213 136.927 199.327 137.126C199.457 137.325 199.677 137.474 199.986 137.573L200.255 137.648V138.119H194.663Z" fill="#7E7E7E"/>
<path d="M207.444 125.826C208.469 125.826 209.348 126.041 210.081 126.471C210.813 126.902 211.375 127.498 211.765 128.26C212.172 129.005 212.376 129.866 212.376 130.843C212.376 131.058 212.368 131.265 212.352 131.463C212.335 131.646 212.303 131.819 212.254 131.985H204.904C204.92 133.69 205.23 134.916 205.832 135.661C206.451 136.406 207.346 136.778 208.518 136.778C209.332 136.778 209.991 136.646 210.496 136.381C211 136.099 211.464 135.71 211.888 135.214L212.278 135.586C211.79 136.497 211.122 137.209 210.276 137.722C209.446 138.219 208.453 138.467 207.297 138.467C206.141 138.467 205.124 138.219 204.245 137.722C203.366 137.225 202.674 136.513 202.169 135.586C201.681 134.642 201.437 133.517 201.437 132.209C201.437 130.851 201.722 129.7 202.291 128.756C202.877 127.813 203.626 127.092 204.538 126.596C205.466 126.082 206.434 125.826 207.444 125.826ZM207.321 126.546C206.849 126.546 206.434 126.687 206.076 126.968C205.734 127.233 205.458 127.713 205.246 128.409C205.051 129.087 204.937 130.048 204.904 131.29H209.275C209.454 129.617 209.389 128.409 209.08 127.664C208.77 126.918 208.184 126.546 207.321 126.546Z" fill="#7E7E7E"/>
<path d="M213.311 138.119V137.648L213.677 137.548C214.214 137.366 214.483 136.952 214.483 136.306C214.483 135.744 214.483 135.181 214.483 134.618C214.499 134.038 214.507 133.467 214.507 132.904V123.466C214.507 123.119 214.45 122.862 214.336 122.696C214.222 122.514 214.003 122.382 213.677 122.299L213.311 122.2V121.728L217.584 120.685L217.901 120.908L217.804 124.41V136.306C217.82 136.638 217.885 136.911 217.999 137.126C218.129 137.325 218.349 137.465 218.658 137.548L219 137.648V138.119H213.311Z" fill="#7E7E7E"/>
<path d="M135.345 150.925V146.579H136.749C137.083 146.579 137.358 146.635 137.573 146.747C137.789 146.859 137.948 147.01 138.05 147.2C138.155 147.391 138.208 147.606 138.208 147.846C138.208 148.082 138.157 148.295 138.056 148.485C137.954 148.676 137.795 148.829 137.58 148.945C137.364 149.057 137.087 149.112 136.749 149.112H135.858V150.925H135.345ZM135.858 148.672H136.737C137.079 148.672 137.321 148.599 137.464 148.454C137.61 148.305 137.683 148.102 137.683 147.846C137.683 147.585 137.61 147.382 137.464 147.237C137.321 147.088 137.079 147.014 136.737 147.014H135.858V148.672Z" fill="#7E7E7E"/>
<path d="M142.684 151C142.37 151 142.097 150.942 141.866 150.826C141.634 150.71 141.454 150.549 141.328 150.342C141.202 150.135 141.139 149.895 141.139 149.622H141.676C141.676 149.791 141.715 149.949 141.792 150.093C141.87 150.234 141.981 150.348 142.128 150.435C142.279 150.518 142.464 150.559 142.684 150.559C142.972 150.559 143.196 150.489 143.355 150.348C143.514 150.207 143.593 150.031 143.593 149.82C143.593 149.646 143.556 149.508 143.483 149.404C143.41 149.297 143.31 149.21 143.184 149.144C143.062 149.077 142.92 149.019 142.757 148.97C142.598 148.92 142.431 148.864 142.256 148.802C141.927 148.686 141.682 148.543 141.524 148.374C141.365 148.2 141.286 147.974 141.286 147.697C141.282 147.465 141.334 147.26 141.444 147.082C141.554 146.9 141.709 146.759 141.908 146.66C142.112 146.556 142.352 146.505 142.629 146.505C142.901 146.505 143.137 146.556 143.337 146.66C143.54 146.763 143.697 146.906 143.807 147.088C143.921 147.27 143.98 147.477 143.984 147.709H143.447C143.447 147.589 143.416 147.471 143.355 147.355C143.294 147.235 143.2 147.138 143.074 147.064C142.952 146.989 142.797 146.952 142.61 146.952C142.378 146.948 142.187 147.008 142.036 147.132C141.89 147.256 141.817 147.428 141.817 147.647C141.817 147.833 141.868 147.976 141.969 148.076C142.075 148.175 142.222 148.258 142.409 148.324C142.596 148.386 142.812 148.458 143.056 148.541C143.259 148.616 143.442 148.703 143.605 148.802C143.768 148.901 143.894 149.03 143.984 149.187C144.077 149.344 144.124 149.545 144.124 149.789C144.124 149.996 144.071 150.193 143.965 150.379C143.86 150.561 143.699 150.71 143.483 150.826C143.272 150.942 143.005 151 142.684 151Z" fill="#7E7E7E"/>
<path d="M147.293 150.925V146.579H147.806V150.925H147.293Z" fill="#7E7E7E"/>
<path d="M153.028 151C152.609 151 152.246 150.907 151.941 150.721C151.64 150.53 151.406 150.267 151.239 149.932C151.072 149.593 150.989 149.199 150.989 148.752C150.989 148.309 151.072 147.92 151.239 147.585C151.406 147.246 151.64 146.981 151.941 146.79C152.246 146.6 152.609 146.505 153.028 146.505C153.516 146.505 153.913 146.625 154.218 146.865C154.527 147.101 154.725 147.432 154.81 147.858H154.243C154.177 147.589 154.043 147.374 153.84 147.213C153.64 147.047 153.37 146.964 153.028 146.964C152.723 146.964 152.456 147.037 152.228 147.181C152 147.322 151.823 147.527 151.697 147.796C151.575 148.061 151.514 148.38 151.514 148.752C151.514 149.125 151.575 149.446 151.697 149.715C151.823 149.98 152 150.185 152.228 150.329C152.456 150.47 152.723 150.541 153.028 150.541C153.37 150.541 153.64 150.462 153.84 150.305C154.043 150.143 154.177 149.93 154.243 149.665H154.81C154.725 150.083 154.527 150.41 154.218 150.646C153.913 150.882 153.516 151 153.028 151Z" fill="#7E7E7E"/>
<path d="M159.93 151C159.511 151 159.143 150.907 158.825 150.721C158.512 150.53 158.266 150.265 158.087 149.926C157.912 149.586 157.824 149.195 157.824 148.752C157.824 148.309 157.912 147.92 158.087 147.585C158.266 147.246 158.512 146.981 158.825 146.79C159.143 146.6 159.511 146.505 159.93 146.505C160.353 146.505 160.722 146.6 161.035 146.79C161.353 146.981 161.599 147.246 161.774 147.585C161.949 147.92 162.036 148.309 162.036 148.752C162.036 149.195 161.949 149.586 161.774 149.926C161.599 150.265 161.353 150.53 161.035 150.721C160.722 150.907 160.353 151 159.93 151ZM159.93 150.541C160.244 150.541 160.518 150.47 160.754 150.329C160.994 150.185 161.18 149.98 161.31 149.715C161.444 149.446 161.511 149.125 161.511 148.752C161.511 148.38 161.444 148.061 161.31 147.796C161.18 147.531 160.994 147.328 160.754 147.188C160.518 147.043 160.244 146.97 159.93 146.97C159.617 146.97 159.34 147.043 159.1 147.188C158.864 147.328 158.679 147.531 158.545 147.796C158.414 148.061 158.349 148.38 158.349 148.752C158.349 149.125 158.414 149.446 158.545 149.715C158.679 149.98 158.864 150.185 159.1 150.329C159.34 150.47 159.617 150.541 159.93 150.541ZM159.662 146.325V145.933L160.944 145.145V145.598L159.662 146.325Z" fill="#7E7E7E"/>
<path d="M165.218 150.925V146.579H165.731V150.509H167.721V150.925H165.218Z" fill="#7E7E7E"/>
<path d="M172.409 151C171.989 151 171.621 150.907 171.304 150.721C170.99 150.53 170.744 150.265 170.565 149.926C170.39 149.586 170.303 149.195 170.303 148.752C170.303 148.309 170.39 147.92 170.565 147.585C170.744 147.246 170.99 146.981 171.304 146.79C171.621 146.6 171.989 146.505 172.409 146.505C172.832 146.505 173.2 146.6 173.513 146.79C173.831 146.981 174.077 147.246 174.252 147.585C174.427 147.92 174.515 148.309 174.515 148.752C174.515 149.195 174.427 149.586 174.252 149.926C174.077 150.265 173.831 150.53 173.513 150.721C173.2 150.907 172.832 151 172.409 151ZM172.409 150.541C172.722 150.541 172.997 150.47 173.233 150.329C173.473 150.185 173.658 149.98 173.788 149.715C173.922 149.446 173.99 149.125 173.99 148.752C173.99 148.38 173.922 148.061 173.788 147.796C173.658 147.531 173.473 147.328 173.233 147.188C172.997 147.043 172.722 146.97 172.409 146.97C172.095 146.97 171.818 147.043 171.578 147.188C171.342 147.328 171.157 147.531 171.023 147.796C170.893 148.061 170.827 148.38 170.827 148.752C170.827 149.125 170.893 149.446 171.023 149.715C171.157 149.98 171.342 150.185 171.578 150.329C171.818 150.47 172.095 150.541 172.409 150.541Z" fill="#7E7E7E"/>
<path d="M179.534 151C179.135 151 178.785 150.907 178.484 150.721C178.182 150.53 177.948 150.267 177.782 149.932C177.615 149.593 177.531 149.201 177.531 148.759C177.531 148.316 177.615 147.924 177.782 147.585C177.952 147.246 178.193 146.981 178.502 146.79C178.815 146.6 179.184 146.505 179.607 146.505C180.087 146.505 180.486 146.623 180.803 146.859C181.125 147.095 181.332 147.419 181.426 147.833H180.834C180.777 147.573 180.64 147.366 180.425 147.213C180.213 147.059 179.94 146.983 179.607 146.983C179.293 146.983 179.021 147.055 178.789 147.2C178.557 147.341 178.376 147.544 178.245 147.809C178.119 148.074 178.056 148.39 178.056 148.759C178.056 149.127 178.119 149.444 178.245 149.709C178.372 149.973 178.547 150.178 178.77 150.323C178.994 150.464 179.255 150.534 179.552 150.534C180.008 150.534 180.352 150.4 180.583 150.131C180.815 149.858 180.948 149.485 180.98 149.013H179.747V148.603H181.505V150.925H181.035L180.992 150.211C180.838 150.464 180.649 150.659 180.425 150.795C180.201 150.932 179.904 151 179.534 151Z" fill="#7E7E7E"/>
<path d="M186.699 151C186.28 151 185.912 150.907 185.594 150.721C185.281 150.53 185.035 150.265 184.856 149.926C184.681 149.586 184.593 149.195 184.593 148.752C184.593 148.309 184.681 147.92 184.856 147.585C185.035 147.246 185.281 146.981 185.594 146.79C185.912 146.6 186.28 146.505 186.699 146.505C187.122 146.505 187.491 146.6 187.804 146.79C188.121 146.981 188.368 147.246 188.543 147.585C188.718 147.92 188.805 148.309 188.805 148.752C188.805 149.195 188.718 149.586 188.543 149.926C188.368 150.265 188.121 150.53 187.804 150.721C187.491 150.907 187.122 151 186.699 151ZM186.699 150.541C187.012 150.541 187.287 150.47 187.523 150.329C187.763 150.185 187.949 149.98 188.079 149.715C188.213 149.446 188.28 149.125 188.28 148.752C188.28 148.38 188.213 148.061 188.079 147.796C187.949 147.531 187.763 147.328 187.523 147.188C187.287 147.043 187.012 146.97 186.699 146.97C186.386 146.97 186.109 147.043 185.869 147.188C185.633 147.328 185.448 147.531 185.313 147.796C185.183 148.061 185.118 148.38 185.118 148.752C185.118 149.125 185.183 149.446 185.313 149.715C185.448 149.98 185.633 150.185 185.869 150.329C186.109 150.47 186.386 150.541 186.699 150.541Z" fill="#7E7E7E"/>
<path d="M82.601 150.925H74.5724C74.1582 150.925 73.749 150.834 73.3734 150.657C72.9978 150.479 72.6648 150.221 72.3979 149.9C72.1309 149.579 71.9363 149.202 71.8277 148.797C71.7192 148.392 71.6992 147.967 71.7693 147.553L72.9119 140.803C72.9273 140.709 72.9509 140.616 72.9823 140.526C72.9876 140.471 73.0059 140.072 72.5037 139.071C71.8355 137.737 70.577 135.964 68.7637 133.809C67.7767 132.633 67.1975 131.3 67.0427 129.841C66.9111 128.606 67.0841 127.273 67.5577 125.88C68.3998 123.403 70.0342 121.178 71.2572 119.751C72.3196 118.509 73.686 117.574 75.2187 117.038C77.2253 116.338 80.3029 115.628 83.5693 116.222C87.4923 116.936 90.6809 119.32 93.0465 123.308C93.5074 124.086 93.7507 124.977 93.7502 125.885V129.722C93.7497 130.267 93.9094 130.799 94.209 131.25L95.9324 133.853C96.1439 134.172 96.2881 134.533 96.356 134.911C96.4239 135.29 96.414 135.679 96.3269 136.053C96.2399 136.428 96.0776 136.78 95.8501 137.088C95.6227 137.396 95.335 137.653 95.0051 137.843L94.6797 138.031C94.3977 138.194 94.1632 138.43 93.9999 138.715C93.8367 138.999 93.7506 139.322 93.7502 139.651V142.949C93.7502 143.017 93.7536 143.087 93.7598 143.159C93.7974 143.571 93.7892 144.619 92.9049 145.457C91.8699 146.436 90.0359 146.716 87.453 146.292C87.2251 146.254 86.9918 146.267 86.7692 146.329C86.5466 146.392 86.34 146.502 86.1638 146.654C85.9876 146.805 85.846 146.994 85.7488 147.206C85.6516 147.419 85.6011 147.65 85.6008 147.884C85.5994 148.69 85.2828 149.463 84.7206 150.033C84.1583 150.603 83.3961 150.924 82.601 150.925ZM81.0568 117.334C78.9935 117.334 77.0965 117.802 75.65 118.307C74.3377 118.766 73.1677 119.567 72.2578 120.63C71.1114 121.97 69.583 124.044 68.81 126.318C67.9307 128.905 68.2545 131.132 69.7717 132.937C73.1479 136.954 74.6892 139.734 74.23 140.976C74.2243 140.994 74.2201 141.012 74.2176 141.03L73.075 147.78C73.0375 148.002 73.0481 148.228 73.106 148.445C73.164 148.662 73.2679 148.863 73.4106 149.034C73.5532 149.206 73.7311 149.344 73.9318 149.438C74.1324 149.533 74.3511 149.582 74.5724 149.582H82.601C83.0455 149.582 83.4717 149.402 83.786 149.084C84.1003 148.765 84.2771 148.333 84.2777 147.882C84.2779 147.453 84.3701 147.03 84.5478 146.64C84.7255 146.251 84.9845 145.906 85.3069 145.629C85.6292 145.351 86.0072 145.148 86.4147 145.033C86.8221 144.919 87.2493 144.895 87.6666 144.964C90.3543 145.406 91.5076 144.941 92.0024 144.473C92.4578 144.041 92.4619 143.495 92.4424 143.281C92.4325 143.17 92.4271 143.058 92.4271 142.949V139.651C92.4275 139.084 92.5757 138.528 92.8565 138.038C93.1374 137.549 93.541 137.143 94.0264 136.862L94.3522 136.675C94.5237 136.576 94.6731 136.442 94.7913 136.282C94.9095 136.122 94.9939 135.939 95.0391 135.744C95.0843 135.549 95.0895 135.347 95.0542 135.15C95.0189 134.953 94.944 134.766 94.8341 134.6L93.1106 131.997C92.6644 131.325 92.4264 130.532 92.4271 129.721V125.883C92.427 125.219 92.2487 124.568 91.9113 123.999C88.8142 118.778 84.6817 117.334 81.0568 117.334Z" fill="#7E7E7E"/>
<path d="M78.5434 127.529H78.5356C77.8843 127.521 77.412 126.828 77.412 125.88C77.412 124.933 77.8843 124.24 78.5356 124.233H78.5434C78.6973 124.233 78.8463 124.287 78.965 124.387C79.0836 124.486 79.1644 124.624 79.1936 124.777C79.2227 124.93 79.1983 125.089 79.1246 125.226C79.051 125.363 78.9325 125.47 78.7897 125.528C78.7191 125.758 78.7191 126.004 78.7897 126.233C78.9325 126.292 79.051 126.398 79.1246 126.535C79.1983 126.672 79.2227 126.831 79.1936 126.984C79.1644 127.137 79.0836 127.275 78.965 127.375C78.8463 127.474 78.6973 127.528 78.5434 127.529Z" fill="#7E7E7E"/>
<path d="M78.3086 133.162H78.3012C77.65 133.155 77.1772 132.462 77.1772 131.514C77.1772 130.567 77.65 129.874 78.3012 129.866H78.3086C78.4627 129.866 78.612 129.92 78.731 130.019C78.85 130.118 78.9312 130.256 78.9606 130.409C78.9901 130.563 78.9658 130.722 78.8922 130.859C78.8185 130.996 78.7 131.103 78.557 131.161C78.4849 131.39 78.4841 131.637 78.5545 131.867C78.6975 131.925 78.816 132.032 78.8897 132.169C78.9634 132.306 78.9876 132.465 78.9582 132.618C78.9288 132.772 78.8476 132.91 78.7286 133.009C78.6096 133.108 78.4602 133.162 78.3061 133.162H78.3086Z" fill="#7E7E7E"/>
<path d="M75.9985 130.125H75.9906C75.3394 130.117 74.8671 129.424 74.8671 128.476C74.8671 127.529 75.3394 126.836 75.9906 126.829C76.1452 126.827 76.2955 126.88 76.4156 126.979C76.5356 127.077 76.6178 127.216 76.648 127.369C76.6782 127.523 76.6544 127.683 76.5808 127.82C76.5071 127.958 76.3883 128.066 76.2448 128.124C76.1742 128.354 76.1742 128.6 76.2448 128.83C76.3876 128.888 76.506 128.994 76.5797 129.131C76.6534 129.268 76.6778 129.427 76.6486 129.58C76.6195 129.733 76.5387 129.871 76.4201 129.971C76.3014 130.07 76.1524 130.125 75.9985 130.125Z" fill="#7E7E7E"/>
<path d="M83.4509 127.529C83.297 127.528 83.148 127.474 83.0293 127.375C82.9107 127.275 82.8299 127.137 82.8007 126.984C82.7716 126.831 82.796 126.672 82.8697 126.535C82.9433 126.398 83.0618 126.292 83.2046 126.233C83.2752 126.004 83.2752 125.758 83.2046 125.528C83.0618 125.47 82.9433 125.363 82.8697 125.226C82.796 125.089 82.7716 124.93 82.8007 124.777C82.8299 124.624 82.9107 124.486 83.0293 124.387C83.148 124.287 83.297 124.233 83.4509 124.233H83.4588C84.11 124.24 84.5823 124.933 84.5823 125.88C84.5823 126.828 84.11 127.521 83.4588 127.529H83.4509Z" fill="#7E7E7E"/>
<path d="M83.6856 133.162C83.5317 133.162 83.3827 133.107 83.2642 133.008C83.1456 132.908 83.0649 132.77 83.0358 132.617C83.0067 132.464 83.0311 132.305 83.1048 132.168C83.1785 132.031 83.2969 131.925 83.4396 131.867C83.5109 131.637 83.5109 131.391 83.4396 131.161C83.2962 131.103 83.1773 130.995 83.1037 130.858C83.0301 130.72 83.0063 130.56 83.0365 130.407C83.0666 130.253 83.1489 130.115 83.2689 130.016C83.389 129.917 83.5393 129.864 83.6938 129.866C84.345 129.874 84.8178 130.567 84.8178 131.514C84.8178 132.462 84.345 133.155 83.6938 133.162H83.6856Z" fill="#7E7E7E"/>
<path d="M85.9957 130.125C85.8416 130.125 85.6923 130.071 85.5733 129.972C85.4543 129.873 85.3731 129.734 85.3437 129.581C85.3142 129.428 85.3385 129.269 85.4121 129.132C85.4858 128.994 85.6043 128.888 85.7473 128.829C85.8179 128.6 85.8179 128.354 85.7473 128.124C85.6039 128.065 85.4853 127.958 85.4118 127.82C85.3384 127.682 85.3149 127.522 85.3453 127.369C85.3757 127.215 85.4582 127.077 85.5784 126.978C85.6986 126.88 85.849 126.827 86.0035 126.829C86.6548 126.837 87.1271 127.529 87.1271 128.477C87.1271 129.424 86.6548 130.117 86.0035 130.125L85.9957 130.125Z" fill="#7E7E7E"/>
<path d="M75.744 135.512C74.8889 135.511 74.069 135.166 73.4644 134.553C72.8597 133.94 72.5195 133.108 72.5186 132.241C72.5177 131.748 72.6282 131.261 72.8415 130.817C72.8774 130.735 72.9295 130.66 72.9945 130.598C73.0595 130.537 73.1361 130.489 73.2197 130.458C73.3034 130.427 73.3923 130.413 73.4813 130.418C73.5702 130.422 73.6574 130.445 73.7375 130.485C73.8175 130.524 73.8889 130.58 73.9474 130.648C74.0058 130.716 74.0501 130.795 74.0776 130.881C74.105 130.967 74.1151 131.058 74.1072 131.148C74.0994 131.238 74.0737 131.325 74.0317 131.405C73.9066 131.667 73.8422 131.954 73.8433 132.245C73.844 132.539 73.9107 132.829 74.0386 133.092C74.1665 133.356 74.3521 133.587 74.5813 133.767C74.8104 133.947 75.0771 134.072 75.361 134.131C75.6448 134.191 75.9384 134.184 76.2192 134.111C76.3894 134.067 76.5701 134.093 76.7215 134.183C76.8729 134.274 76.9826 134.422 77.0265 134.594C77.0705 134.767 77.045 134.95 76.9557 135.104C76.8664 135.257 76.7206 135.368 76.5504 135.413C76.2868 135.48 76.0158 135.513 75.744 135.512Z" fill="#7E7E7E"/>
<path d="M73.4351 131.783C73.3508 131.783 73.2674 131.766 73.1892 131.735C72.5966 131.494 72.0876 131.081 71.7266 130.547C71.3656 130.014 71.1688 129.383 71.1612 128.736C71.1535 128.089 71.3353 127.454 71.6835 126.912C72.0318 126.37 72.5308 125.944 73.1176 125.689C73.1976 125.654 73.2838 125.635 73.3711 125.634C73.4584 125.632 73.5452 125.648 73.6264 125.681C73.7076 125.713 73.7816 125.762 73.8442 125.824C73.9068 125.885 73.9568 125.959 73.9912 126.04C74.0256 126.122 74.0438 126.209 74.0447 126.298C74.0457 126.386 74.0293 126.474 73.9967 126.556C73.964 126.639 73.9156 126.713 73.8543 126.776C73.7931 126.839 73.7201 126.89 73.6396 126.924C73.2941 127.074 73.0002 127.325 72.7951 127.645C72.59 127.964 72.4829 128.338 72.4873 128.719C72.4918 129.1 72.6075 129.472 72.82 129.786C73.0324 130.101 73.3321 130.345 73.681 130.486C73.824 130.545 73.9425 130.651 74.0162 130.789C74.0898 130.926 74.114 131.085 74.0846 131.238C74.0552 131.391 73.974 131.53 73.855 131.629C73.736 131.728 73.5867 131.782 73.4326 131.782L73.4351 131.783Z" fill="#7E7E7E"/>
<path d="M73.3797 126.979C73.2411 126.979 73.106 126.935 72.9934 126.853C72.8808 126.772 72.7964 126.656 72.7521 126.523C72.5697 125.974 72.5344 125.386 72.6496 124.818C72.7649 124.251 73.0265 123.725 73.4079 123.294C73.7893 122.863 74.2768 122.542 74.8204 122.364C75.3641 122.187 75.9445 122.158 76.5024 122.283C76.674 122.321 76.8235 122.427 76.918 122.577C77.0126 122.727 77.0445 122.909 77.0067 123.083C76.9688 123.257 76.8644 123.409 76.7164 123.505C76.5683 123.601 76.3887 123.633 76.2172 123.595C75.8883 123.522 75.5463 123.538 75.2259 123.643C74.9055 123.748 74.6183 123.937 74.3935 124.191C74.1688 124.445 74.0146 124.755 73.9466 125.09C73.8787 125.424 73.8995 125.771 74.0069 126.094C74.0403 126.195 74.0495 126.303 74.0339 126.408C74.0182 126.513 73.9781 126.613 73.9169 126.7C73.8556 126.786 73.7749 126.857 73.6815 126.905C73.5881 126.954 73.4847 126.979 73.3797 126.979Z" fill="#7E7E7E"/>
<path d="M78.9214 137.66C78.1452 137.66 77.3949 137.376 76.8084 136.861C76.2219 136.345 75.8384 135.632 75.7283 134.853C75.7057 134.678 75.7522 134.5 75.8577 134.36C75.9632 134.219 76.1193 134.126 76.2919 134.101C76.4646 134.076 76.64 134.121 76.78 134.227C76.92 134.332 77.0134 134.489 77.0398 134.664C77.094 135.044 77.2587 135.399 77.5128 135.683C77.767 135.967 78.0991 136.168 78.4665 136.26C78.834 136.352 79.2201 136.33 79.5754 136.198C79.9307 136.066 80.2391 135.83 80.461 135.519C80.5121 135.447 80.5766 135.387 80.6508 135.341C80.725 135.294 80.8074 135.263 80.8934 135.249C80.9794 135.235 81.0673 135.239 81.152 135.259C81.2367 135.28 81.3166 135.317 81.3871 135.369C81.4577 135.42 81.5175 135.486 81.5631 135.561C81.6087 135.636 81.6393 135.72 81.6531 135.807C81.6668 135.894 81.6635 135.983 81.6433 136.069C81.6231 136.155 81.5864 136.236 81.5354 136.308C81.2356 136.726 80.8426 137.067 80.3883 137.302C79.934 137.537 79.4314 137.659 78.9214 137.66Z" fill="#7E7E7E"/>
<path d="M76.3604 123.609H76.3426C76.167 123.604 76.0005 123.529 75.8796 123.399C75.7587 123.27 75.6934 123.098 75.698 122.92C75.7154 122.236 75.9438 121.575 76.3511 121.03C76.7583 120.484 77.3239 120.082 77.9683 119.88C78.6126 119.678 79.3033 119.685 79.9431 119.902C80.583 120.118 81.1398 120.533 81.5353 121.087C81.6384 121.231 81.6808 121.411 81.653 121.587C81.6252 121.764 81.5295 121.921 81.3871 122.026C81.2446 122.131 81.067 122.173 80.8933 122.145C80.7196 122.117 80.5641 122.02 80.461 121.876C80.2278 121.55 79.8999 121.306 79.5232 121.179C79.1465 121.052 78.7401 121.047 78.3608 121.166C77.9815 121.285 77.6486 121.522 77.4086 121.843C77.1686 122.163 77.0337 122.552 77.0227 122.955C77.0182 123.13 76.9464 123.296 76.8227 123.418C76.699 123.54 76.5331 123.609 76.3604 123.609Z" fill="#7E7E7E"/>
<path d="M86.2502 135.512C85.9788 135.512 85.7084 135.477 85.4454 135.409C85.3612 135.387 85.282 135.349 85.2125 135.296C85.143 135.242 85.0844 135.176 85.0402 135.1C84.996 135.024 84.967 134.94 84.9548 134.853C84.9427 134.765 84.9476 134.676 84.9694 134.591C84.9911 134.505 85.0292 134.425 85.0816 134.355C85.1339 134.284 85.1994 134.225 85.2744 134.18C85.3494 134.135 85.4323 134.106 85.5185 134.093C85.6046 134.081 85.6924 134.086 85.7766 134.108C86.0575 134.181 86.3511 134.188 86.6349 134.128C86.9188 134.068 87.1855 133.944 87.4146 133.763C87.6438 133.583 87.8294 133.353 87.9573 133.089C88.0851 132.825 88.1519 132.535 88.1525 132.241C88.1537 131.95 88.0892 131.663 87.9642 131.402C87.9205 131.322 87.8934 131.234 87.8845 131.143C87.8756 131.052 87.885 130.96 87.9122 130.873C87.9395 130.786 87.9839 130.706 88.0428 130.636C88.1018 130.567 88.174 130.511 88.2551 130.472C88.3361 130.432 88.4243 130.409 88.5143 130.405C88.6043 130.401 88.6941 130.416 88.7783 130.448C88.8625 130.48 88.9393 130.53 89.0041 130.593C89.0688 130.657 89.1201 130.733 89.1548 130.817C89.3673 131.261 89.477 131.747 89.4757 132.24C89.4749 133.108 89.1349 133.939 88.5302 134.552C87.9255 135.166 87.1055 135.511 86.2502 135.512Z" fill="#7E7E7E"/>
<path d="M88.5591 131.783C88.4051 131.783 88.2557 131.729 88.1367 131.63C88.0177 131.531 87.9365 131.393 87.9071 131.239C87.8777 131.086 87.9019 130.927 87.9756 130.79C88.0492 130.653 88.1678 130.546 88.3107 130.488C88.6597 130.346 88.9593 130.102 89.1718 129.788C89.3842 129.473 89.5 129.102 89.5044 128.72C89.5088 128.339 89.4017 127.965 89.1966 127.646C88.9916 127.326 88.6977 127.075 88.3521 126.925C88.1918 126.854 88.0656 126.722 88.0011 126.557C87.9367 126.392 87.9392 126.208 88.0082 126.045C88.0771 125.882 88.2069 125.753 88.3691 125.687C88.5314 125.62 88.7129 125.622 88.8742 125.691C89.4609 125.945 89.96 126.371 90.3082 126.913C90.6564 127.455 90.8382 128.09 90.8306 128.737C90.8229 129.385 90.6261 130.015 90.2651 130.549C89.9041 131.082 89.3951 131.495 88.8026 131.736C88.725 131.767 88.6425 131.783 88.5591 131.783Z" fill="#7E7E7E"/>
<path d="M88.6146 126.979C88.5094 126.979 88.4057 126.954 88.3121 126.905C88.2186 126.856 88.1378 126.786 88.0765 126.699C88.0152 126.612 87.9751 126.512 87.9596 126.407C87.9441 126.301 87.9536 126.193 87.9874 126.092C88.0949 125.769 88.1158 125.422 88.0479 125.088C87.98 124.753 87.8258 124.443 87.601 124.189C87.3763 123.935 87.089 123.746 86.7685 123.641C86.4481 123.536 86.1059 123.52 85.7771 123.593C85.6055 123.631 85.4259 123.599 85.2779 123.503C85.1298 123.407 85.0254 123.256 84.9876 123.082C84.9498 122.908 84.9816 122.726 85.0762 122.575C85.1708 122.425 85.3203 122.319 85.4918 122.281C86.0497 122.157 86.6301 122.185 87.1738 122.363C87.7175 122.54 88.2049 122.861 88.5863 123.292C88.9677 123.723 89.2294 124.249 89.3446 124.817C89.4598 125.384 89.4245 125.972 89.2422 126.521C89.1981 126.654 89.1138 126.771 89.0012 126.853C88.8886 126.935 88.7534 126.979 88.6146 126.979Z" fill="#7E7E7E"/>
<path d="M83.0729 137.66C82.5633 137.659 82.0611 137.536 81.6072 137.301C81.1533 137.066 80.7606 136.726 80.4611 136.308C80.41 136.236 80.3733 136.155 80.3531 136.069C80.3329 135.983 80.3296 135.894 80.3434 135.807C80.3571 135.72 80.3877 135.636 80.4333 135.561C80.4789 135.486 80.5387 135.42 80.6093 135.369C80.6798 135.317 80.7597 135.28 80.8444 135.259C80.9291 135.239 81.017 135.235 81.103 135.249C81.189 135.263 81.2715 135.294 81.3456 135.34C81.4198 135.387 81.4843 135.447 81.5354 135.519C81.7573 135.83 82.0658 136.066 82.4211 136.198C82.7765 136.33 83.1626 136.352 83.53 136.26C83.8975 136.168 84.2296 135.967 84.4837 135.683C84.7379 135.398 84.9025 135.044 84.9566 134.664C84.968 134.576 84.9964 134.491 85.0404 134.414C85.0843 134.337 85.1429 134.27 85.2126 134.216C85.2824 134.162 85.3619 134.123 85.4467 134.101C85.5315 134.078 85.6198 134.073 85.7066 134.086C85.7933 134.098 85.8767 134.128 85.952 134.174C86.0273 134.219 86.093 134.279 86.1452 134.35C86.1975 134.422 86.2352 134.503 86.2563 134.589C86.2774 134.675 86.2814 134.765 86.2681 134.853C86.1581 135.632 85.7743 136.345 85.1873 136.861C84.6004 137.377 83.8496 137.66 83.0729 137.66Z" fill="#7E7E7E"/>
<path d="M85.6338 123.608C85.4611 123.609 85.2952 123.54 85.1715 123.418C85.0478 123.296 84.976 123.13 84.9714 122.954C84.96 122.553 84.8248 122.164 84.585 121.844C84.3451 121.524 84.0125 121.288 83.6338 121.169C83.255 121.05 82.8491 121.054 82.4728 121.181C82.0965 121.308 81.7687 121.551 81.5353 121.876C81.4306 122.015 81.276 122.108 81.1048 122.134C80.9335 122.159 80.7591 122.116 80.6189 122.013C80.4788 121.91 80.384 121.755 80.3548 121.582C80.3257 121.409 80.3645 121.232 80.4631 121.087C80.8585 120.533 81.4153 120.119 82.0552 119.902C82.695 119.686 83.3857 119.678 84.0301 119.88C84.6744 120.083 85.24 120.485 85.6472 121.03C86.0545 121.575 86.2829 122.236 86.3004 122.92C86.3026 123.008 86.2877 123.096 86.2565 123.178C86.2253 123.261 86.1785 123.336 86.1186 123.4C86.0587 123.464 85.9869 123.515 85.9075 123.551C85.828 123.587 85.7423 123.607 85.6554 123.609L85.6338 123.608Z" fill="#7E7E7E"/>
<path d="M80.9971 136.585C80.8215 136.585 80.653 136.514 80.5288 136.388C80.4045 136.263 80.3348 136.092 80.3348 135.914V121.481C80.3348 121.303 80.4045 121.132 80.5288 121.006C80.653 120.88 80.8215 120.809 80.9971 120.809C81.1728 120.809 81.3413 120.88 81.4655 121.006C81.5898 121.132 81.6595 121.303 81.6595 121.481V135.914C81.6595 136.092 81.5898 136.263 81.4655 136.388C81.3413 136.514 81.1728 136.585 80.9971 136.585Z" fill="#7E7E7E"/>
</svg>
