<svg width="285" height="268" viewBox="0 0 285 268" fill="none" xmlns="http://www.w3.org/2000/svg">
<rect x="0.5" y="0.5" width="284" height="267" stroke="#7E7E7E"/>
<path d="M128.448 117.971V119.155H125.408V129.123H123.952V119.155H120.896V117.971H128.448Z" fill="#7E7E7E"/>
<path d="M131.697 121.779C131.953 121.277 132.315 120.888 132.785 120.611C133.265 120.333 133.846 120.195 134.529 120.195V121.699H134.145C132.513 121.699 131.697 122.584 131.697 124.355V129.123H130.241V120.355H131.697V121.779Z" fill="#7E7E7E"/>
<path d="M144.209 124.403C144.209 124.68 144.193 124.973 144.161 125.283H137.153C137.207 126.147 137.5 126.824 138.033 127.315C138.577 127.795 139.233 128.035 140.001 128.035C140.631 128.035 141.153 127.891 141.569 127.603C141.996 127.304 142.295 126.909 142.465 126.419H144.033C143.799 127.261 143.329 127.949 142.625 128.483C141.921 129.005 141.047 129.267 140.001 129.267C139.169 129.267 138.423 129.08 137.761 128.707C137.111 128.333 136.599 127.805 136.225 127.123C135.852 126.429 135.665 125.629 135.665 124.723C135.665 123.816 135.847 123.021 136.209 122.339C136.572 121.656 137.079 121.133 137.729 120.771C138.391 120.397 139.148 120.211 140.001 120.211C140.833 120.211 141.569 120.392 142.209 120.755C142.849 121.117 143.34 121.619 143.681 122.259C144.033 122.888 144.209 123.603 144.209 124.403ZM142.705 124.099C142.705 123.544 142.583 123.069 142.337 122.675C142.092 122.269 141.756 121.965 141.329 121.763C140.913 121.549 140.449 121.443 139.937 121.443C139.201 121.443 138.572 121.677 138.049 122.147C137.537 122.616 137.244 123.267 137.169 124.099H142.705Z" fill="#7E7E7E"/>
<path d="M146.883 118.931C146.606 118.931 146.371 118.835 146.179 118.643C145.987 118.451 145.891 118.216 145.891 117.939C145.891 117.661 145.987 117.427 146.179 117.235C146.371 117.043 146.606 116.947 146.883 116.947C147.15 116.947 147.374 117.043 147.555 117.235C147.747 117.427 147.843 117.661 147.843 117.939C147.843 118.216 147.747 118.451 147.555 118.643C147.374 118.835 147.15 118.931 146.883 118.931ZM147.587 120.355V129.123H146.131V120.355H147.587Z" fill="#7E7E7E"/>
<path d="M154.341 120.195C155.407 120.195 156.271 120.52 156.933 121.171C157.594 121.811 157.925 122.739 157.925 123.955V129.123H156.485V124.163C156.485 123.288 156.266 122.621 155.829 122.163C155.391 121.693 154.794 121.459 154.037 121.459C153.269 121.459 152.655 121.699 152.197 122.179C151.749 122.659 151.525 123.357 151.525 124.275V129.123H150.069V120.355H151.525V121.603C151.813 121.155 152.202 120.808 152.693 120.563C153.194 120.317 153.743 120.195 154.341 120.195Z" fill="#7E7E7E"/>
<path d="M159.759 124.707C159.759 123.811 159.94 123.027 160.303 122.355C160.666 121.672 161.162 121.144 161.791 120.771C162.431 120.397 163.14 120.211 163.919 120.211C164.687 120.211 165.354 120.376 165.919 120.707C166.484 121.037 166.906 121.453 167.183 121.955V120.355H168.655V129.123H167.183V127.491C166.895 128.003 166.463 128.429 165.887 128.771C165.322 129.101 164.66 129.267 163.903 129.267C163.124 129.267 162.42 129.075 161.791 128.691C161.162 128.307 160.666 127.768 160.303 127.075C159.94 126.381 159.759 125.592 159.759 124.707ZM167.183 124.723C167.183 124.061 167.05 123.485 166.783 122.995C166.516 122.504 166.154 122.131 165.695 121.875C165.247 121.608 164.751 121.475 164.207 121.475C163.663 121.475 163.167 121.603 162.719 121.859C162.271 122.115 161.914 122.488 161.647 122.979C161.38 123.469 161.247 124.045 161.247 124.707C161.247 125.379 161.38 125.965 161.647 126.467C161.914 126.957 162.271 127.336 162.719 127.603C163.167 127.859 163.663 127.987 164.207 127.987C164.751 127.987 165.247 127.859 165.695 127.603C166.154 127.336 166.516 126.957 166.783 126.467C167.05 125.965 167.183 125.384 167.183 124.723Z" fill="#7E7E7E"/>
<path d="M170.572 124.707C170.572 123.811 170.753 123.027 171.116 122.355C171.478 121.672 171.974 121.144 172.604 120.771C173.244 120.397 173.958 120.211 174.748 120.211C175.43 120.211 176.065 120.371 176.652 120.691C177.238 121 177.686 121.411 177.996 121.923V117.283H179.468V129.123H177.996V127.475C177.708 127.997 177.281 128.429 176.716 128.771C176.15 129.101 175.489 129.267 174.732 129.267C173.953 129.267 173.244 129.075 172.604 128.691C171.974 128.307 171.478 127.768 171.116 127.075C170.753 126.381 170.572 125.592 170.572 124.707ZM177.996 124.723C177.996 124.061 177.862 123.485 177.596 122.995C177.329 122.504 176.966 122.131 176.508 121.875C176.06 121.608 175.564 121.475 175.02 121.475C174.476 121.475 173.98 121.603 173.532 121.859C173.084 122.115 172.726 122.488 172.46 122.979C172.193 123.469 172.06 124.045 172.06 124.707C172.06 125.379 172.193 125.965 172.46 126.467C172.726 126.957 173.084 127.336 173.532 127.603C173.98 127.859 174.476 127.987 175.02 127.987C175.564 127.987 176.06 127.859 176.508 127.603C176.966 127.336 177.329 126.957 177.596 126.467C177.862 125.965 177.996 125.384 177.996 124.723Z" fill="#7E7E7E"/>
<path d="M185.752 129.267C184.931 129.267 184.184 129.08 183.512 128.707C182.851 128.333 182.328 127.805 181.944 127.123C181.571 126.429 181.384 125.629 181.384 124.723C181.384 123.827 181.576 123.037 181.96 122.355C182.355 121.661 182.888 121.133 183.56 120.771C184.232 120.397 184.984 120.211 185.816 120.211C186.648 120.211 187.4 120.397 188.072 120.771C188.744 121.133 189.272 121.656 189.656 122.339C190.051 123.021 190.248 123.816 190.248 124.723C190.248 125.629 190.045 126.429 189.64 127.123C189.245 127.805 188.707 128.333 188.024 128.707C187.341 129.08 186.584 129.267 185.752 129.267ZM185.752 127.987C186.275 127.987 186.765 127.864 187.224 127.619C187.683 127.373 188.051 127.005 188.328 126.515C188.616 126.024 188.76 125.427 188.76 124.723C188.76 124.019 188.621 123.421 188.344 122.931C188.067 122.44 187.704 122.077 187.256 121.843C186.808 121.597 186.323 121.475 185.8 121.475C185.267 121.475 184.776 121.597 184.328 121.843C183.891 122.077 183.539 122.44 183.272 122.931C183.005 123.421 182.872 124.019 182.872 124.723C182.872 125.437 183 126.04 183.256 126.531C183.523 127.021 183.875 127.389 184.312 127.635C184.749 127.869 185.229 127.987 185.752 127.987Z" fill="#7E7E7E"/>
<path d="M193.618 121.779C193.874 121.277 194.237 120.888 194.706 120.611C195.186 120.333 195.768 120.195 196.45 120.195V121.699H196.066C194.434 121.699 193.618 122.584 193.618 124.355V129.123H192.162V120.355H193.618V121.779Z" fill="#7E7E7E"/>
<path d="M131.088 134.787V157.123H126.608V147.619H117.04V157.123H112.56V134.787H117.04V143.971H126.608V134.787H131.088Z" fill="#7E7E7E"/>
<path d="M151.978 147.875C151.978 148.515 151.935 149.091 151.85 149.603H138.89C138.996 150.883 139.444 151.885 140.234 152.611C141.023 153.336 141.994 153.699 143.146 153.699C144.81 153.699 145.994 152.984 146.698 151.555H151.53C151.018 153.261 150.036 154.669 148.586 155.779C147.135 156.867 145.354 157.411 143.242 157.411C141.535 157.411 139.999 157.037 138.634 156.291C137.29 155.523 136.234 154.445 135.466 153.059C134.719 151.672 134.346 150.072 134.346 148.259C134.346 146.424 134.719 144.813 135.466 143.427C136.212 142.04 137.258 140.973 138.602 140.227C139.946 139.48 141.492 139.107 143.242 139.107C144.927 139.107 146.431 139.469 147.754 140.195C149.098 140.92 150.132 141.955 150.858 143.299C151.604 144.621 151.978 146.147 151.978 147.875ZM147.338 146.595C147.316 145.443 146.9 144.525 146.09 143.843C145.279 143.139 144.287 142.787 143.114 142.787C142.004 142.787 141.066 143.128 140.298 143.811C139.551 144.472 139.092 145.4 138.922 146.595H147.338Z" fill="#7E7E7E"/>
<path d="M157.52 137.283C156.73 137.283 156.069 137.037 155.536 136.547C155.024 136.035 154.768 135.405 154.768 134.659C154.768 133.912 155.024 133.293 155.536 132.803C156.069 132.291 156.73 132.035 157.52 132.035C158.309 132.035 158.96 132.291 159.472 132.803C160.005 133.293 160.272 133.912 160.272 134.659C160.272 135.405 160.005 136.035 159.472 136.547C158.96 137.037 158.309 137.283 157.52 137.283ZM159.728 139.395V157.123H155.248V139.395H159.728Z" fill="#7E7E7E"/>
<path d="M169.37 143.075V151.651C169.37 152.248 169.509 152.685 169.786 152.963C170.085 153.219 170.575 153.347 171.258 153.347H173.338V157.123H170.522C166.746 157.123 164.858 155.288 164.858 151.619V143.075H162.746V139.395H164.858V135.011H169.37V139.395H173.338V143.075H169.37Z" fill="#7E7E7E"/>
<path d="M184.432 157.411C182.726 157.411 181.19 157.037 179.824 156.291C178.459 155.523 177.382 154.445 176.592 153.059C175.824 151.672 175.44 150.072 175.44 148.259C175.44 146.445 175.835 144.845 176.624 143.459C177.435 142.072 178.534 141.005 179.92 140.259C181.307 139.491 182.854 139.107 184.56 139.107C186.267 139.107 187.814 139.491 189.2 140.259C190.587 141.005 191.675 142.072 192.464 143.459C193.275 144.845 193.68 146.445 193.68 148.259C193.68 150.072 193.264 151.672 192.432 153.059C191.622 154.445 190.512 155.523 189.104 156.291C187.718 157.037 186.16 157.411 184.432 157.411ZM184.432 153.507C185.243 153.507 186 153.315 186.704 152.931C187.43 152.525 188.006 151.928 188.432 151.139C188.859 150.349 189.072 149.389 189.072 148.259C189.072 146.573 188.624 145.283 187.728 144.387C186.854 143.469 185.776 143.011 184.496 143.011C183.216 143.011 182.139 143.469 181.264 144.387C180.411 145.283 179.984 146.573 179.984 148.259C179.984 149.944 180.4 151.245 181.232 152.163C182.086 153.059 183.152 153.507 184.432 153.507Z" fill="#7E7E7E"/>
<path d="M201.447 142.147C202.023 141.208 202.769 140.472 203.687 139.939C204.625 139.405 205.692 139.139 206.887 139.139V143.843H205.703C204.295 143.843 203.228 144.173 202.503 144.835C201.799 145.496 201.447 146.648 201.447 148.291V157.123H196.967V139.395H201.447V142.147Z" fill="#7E7E7E"/>
<path d="M80 149.188V145.311H89.8317V121.77H80V117.893L83.9465 117.824V113.947H89.7625L89.8317 110H93.709L93.7783 113.947H99.5942V117.824L103.541 117.893V121.77H93.709V145.311H103.541V149.188L99.5942 149.258V153.135H93.7783L93.709 157.082H89.8317L89.7625 153.135H83.9465V149.258L80 149.188Z" fill="#7E7E7E"/>
</svg>
