<svg width="126" height="9" viewBox="0 0 126 9" fill="none" xmlns="http://www.w3.org/2000/svg">
<path d="M0.924004 8V1.1H2.508L5.364 5.744H4.596L7.392 1.1H8.988L9.012 8H7.236L7.224 3.8H7.488L5.376 7.268H4.524L2.34 3.8H2.688V8H0.924004Z" fill="white"/>
<path d="M12.5298 3.812H15.8658V5.192H12.5298V3.812ZM12.7218 6.548H16.4058V8H10.8498V1.1H16.2738V2.552H12.7218V6.548Z" fill="white"/>
<path d="M17.7873 8V1.1H19.3713L22.2273 5.744H21.4593L24.2553 1.1H25.8513L25.8753 8H24.0993L24.0873 3.8H24.3513L22.2393 7.268H21.3873L19.2033 3.8H19.5513V8H17.7873Z" fill="white"/>
<path d="M31.0851 8.132C30.3411 8.132 29.6771 7.98 29.0931 7.676C28.5091 7.364 28.0491 6.936 27.7131 6.392C27.3771 5.848 27.2091 5.232 27.2091 4.544C27.2091 3.856 27.3771 3.244 27.7131 2.708C28.0491 2.172 28.5091 1.748 29.0931 1.436C29.6771 1.124 30.3411 0.968002 31.0851 0.968002C31.8291 0.968002 32.4931 1.124 33.0771 1.436C33.6611 1.748 34.1211 2.172 34.4571 2.708C34.7931 3.244 34.9611 3.856 34.9611 4.544C34.9611 5.232 34.7931 5.848 34.4571 6.392C34.1211 6.936 33.6611 7.364 33.0771 7.676C32.4931 7.98 31.8291 8.132 31.0851 8.132ZM31.0851 6.584C31.4691 6.584 31.8051 6.5 32.0931 6.332C32.3891 6.156 32.6211 5.912 32.7891 5.6C32.9571 5.288 33.0411 4.94 33.0411 4.556C33.0411 4.156 32.9571 3.804 32.7891 3.5C32.6211 3.196 32.3891 2.956 32.0931 2.78C31.8051 2.604 31.4691 2.516 31.0851 2.516C30.7091 2.516 30.3731 2.604 30.0771 2.78C29.7811 2.956 29.5451 3.196 29.3691 3.5C29.2011 3.804 29.1171 4.152 29.1171 4.544C29.1171 4.936 29.2011 5.288 29.3691 5.6C29.5451 5.912 29.7811 6.156 30.0771 6.332C30.3731 6.5 30.7091 6.584 31.0851 6.584Z" fill="white"/>
<path d="M36.3029 8V1.1H39.4469C40.0869 1.1 40.6349 1.204 41.0909 1.412C41.5549 1.612 41.9149 1.9 42.1709 2.276C42.4269 2.652 42.5549 3.108 42.5549 3.644C42.5549 4.164 42.4269 4.612 42.1709 4.988C41.9149 5.364 41.5549 5.652 41.0909 5.852C40.6349 6.052 40.0869 6.152 39.4469 6.152H37.3469L38.1989 5.348V8H36.3029ZM40.6469 8L38.9069 5.492H40.9229L42.6869 8H40.6469ZM38.1989 5.564L37.5029 4.712H39.3149C39.7549 4.712 40.0869 4.62 40.3109 4.436C40.5349 4.244 40.6469 3.98 40.6469 3.644C40.6469 3.3 40.5349 3.036 40.3109 2.852C40.0869 2.668 39.7549 2.576 39.3149 2.576H37.5029L38.1989 1.724V5.564Z" fill="white"/>
<path d="M44.0256 8V1.1H45.9216V8H44.0256Z" fill="white"/>
<path d="M46.7201 8L49.8161 1.1H51.6881L54.7961 8H52.9241L50.4401 2.012H51.0761L48.5561 8H46.7201ZM48.4121 6.632L48.9041 5.264H52.3121L52.8041 6.632H48.4121Z" fill="white"/>
<path d="M55.6154 8V1.1H57.1994L60.0554 5.744H59.2874L62.0834 1.1H63.6794L63.7034 8H61.9274L61.9154 3.8H62.1794L60.0674 7.268H59.2154L57.0314 3.8H57.3794V8H55.6154Z" fill="white"/>
<path d="M64.5092 8L67.6052 1.1H69.4772L72.5852 8H70.7132L68.2292 2.012H68.8652L66.3452 8H64.5092ZM66.2012 6.632L66.6932 5.264H70.1012L70.5932 6.632H66.2012Z" fill="white"/>
<path d="M73.4045 8V1.1H76.5485C77.1885 1.1 77.7365 1.204 78.1925 1.412C78.6565 1.612 79.0165 1.9 79.2725 2.276C79.5285 2.652 79.6565 3.108 79.6565 3.644C79.6565 4.164 79.5285 4.612 79.2725 4.988C79.0165 5.364 78.6565 5.652 78.1925 5.852C77.7365 6.052 77.1885 6.152 76.5485 6.152H74.4485L75.3005 5.348V8H73.4045ZM77.7485 8L76.0085 5.492H78.0245L79.7885 8H77.7485ZM75.3005 5.564L74.6045 4.712H76.4165C76.8565 4.712 77.1885 4.62 77.4125 4.436C77.6365 4.244 77.7485 3.98 77.7485 3.644C77.7485 3.3 77.6365 3.036 77.4125 2.852C77.1885 2.668 76.8565 2.576 76.4165 2.576H74.6045L75.3005 1.724V5.564Z" fill="white"/>
<path d="M89.9376 5.9C89.9376 6.332 89.8136 6.716 89.5656 7.052C89.3256 7.388 88.9736 7.652 88.5096 7.844C88.0536 8.036 87.4896 8.132 86.8176 8.132C86.2656 8.132 85.7216 8.064 85.1856 7.928C84.6576 7.792 84.2296 7.612 83.9016 7.388L84.5616 5.984C84.8736 6.192 85.2376 6.356 85.6536 6.476C86.0696 6.596 86.4936 6.656 86.9256 6.656C87.3496 6.656 87.6456 6.596 87.8136 6.476C87.9816 6.356 88.0656 6.216 88.0656 6.056C88.0656 5.896 87.9896 5.768 87.8376 5.672C87.6936 5.576 87.5016 5.5 87.2616 5.444C87.0296 5.38 86.7696 5.32 86.4816 5.264C86.2016 5.208 85.9176 5.136 85.6296 5.048C85.3496 4.96 85.0896 4.844 84.8496 4.7C84.6176 4.548 84.4256 4.352 84.2736 4.112C84.1296 3.864 84.0576 3.556 84.0576 3.188C84.0576 2.756 84.1816 2.376 84.4296 2.048C84.6856 1.712 85.0456 1.448 85.5096 1.256C85.9736 1.064 86.5256 0.968002 87.1656 0.968002C87.5976 0.968002 88.0376 1.016 88.4856 1.112C88.9336 1.208 89.3256 1.36 89.6616 1.568L89.0496 2.972C88.7376 2.78 88.4136 2.644 88.0776 2.564C87.7496 2.484 87.4216 2.444 87.0936 2.444C86.6936 2.444 86.4016 2.504 86.2176 2.624C86.0336 2.744 85.9416 2.896 85.9416 3.08C85.9416 3.24 86.0136 3.368 86.1576 3.464C86.3016 3.56 86.4896 3.64 86.7216 3.704C86.9616 3.76 87.2256 3.816 87.5136 3.872C87.8016 3.928 88.0856 4 88.3656 4.088C88.6456 4.168 88.9056 4.28 89.1456 4.424C89.3856 4.568 89.5776 4.76 89.7216 5C89.8656 5.232 89.9376 5.532 89.9376 5.9Z" fill="white"/>
<path d="M92.3138 8V2.576H90.1418V1.1H96.3818V2.576H94.2098V8H92.3138Z" fill="white"/>
<path d="M100.55 8.132C99.8696 8.132 99.2856 8.008 98.7976 7.76C98.3096 7.512 97.9336 7.156 97.6696 6.692C97.4136 6.22 97.2856 5.664 97.2856 5.024V1.1H99.1816V4.964C99.1816 5.5 99.3016 5.904 99.5416 6.176C99.7816 6.448 100.126 6.584 100.574 6.584C101.022 6.584 101.362 6.448 101.594 6.176C101.826 5.904 101.942 5.5 101.942 4.964V1.1H103.814V5.024C103.814 5.664 103.686 6.22 103.43 6.692C103.174 7.156 102.802 7.512 102.314 7.76C101.826 8.008 101.238 8.132 100.55 8.132Z" fill="white"/>
<path d="M105.584 8V1.1H108.836C109.628 1.1 110.316 1.24 110.9 1.52C111.492 1.8 111.948 2.2 112.268 2.72C112.596 3.232 112.76 3.844 112.76 4.556C112.76 5.26 112.596 5.872 112.268 6.392C111.948 6.904 111.492 7.3 110.9 7.58C110.316 7.86 109.628 8 108.836 8H105.584ZM107.48 6.512H108.776C109.2 6.512 109.564 6.436 109.868 6.284C110.18 6.132 110.42 5.912 110.588 5.624C110.756 5.328 110.84 4.972 110.84 4.556C110.84 4.132 110.756 3.776 110.588 3.488C110.42 3.192 110.18 2.968 109.868 2.816C109.564 2.664 109.2 2.588 108.776 2.588H107.48V6.512Z" fill="white"/>
<path d="M114.104 8V1.1H116V8H114.104Z" fill="white"/>
<path d="M121.202 8.132C120.458 8.132 119.794 7.98 119.21 7.676C118.626 7.364 118.166 6.936 117.83 6.392C117.494 5.848 117.326 5.232 117.326 4.544C117.326 3.856 117.494 3.244 117.83 2.708C118.166 2.172 118.626 1.748 119.21 1.436C119.794 1.124 120.458 0.968002 121.202 0.968002C121.946 0.968002 122.61 1.124 123.194 1.436C123.778 1.748 124.238 2.172 124.574 2.708C124.91 3.244 125.078 3.856 125.078 4.544C125.078 5.232 124.91 5.848 124.574 6.392C124.238 6.936 123.778 7.364 123.194 7.676C122.61 7.98 121.946 8.132 121.202 8.132ZM121.202 6.584C121.586 6.584 121.922 6.5 122.21 6.332C122.506 6.156 122.738 5.912 122.906 5.6C123.074 5.288 123.158 4.94 123.158 4.556C123.158 4.156 123.074 3.804 122.906 3.5C122.738 3.196 122.506 2.956 122.21 2.78C121.922 2.604 121.586 2.516 121.202 2.516C120.826 2.516 120.49 2.604 120.194 2.78C119.898 2.956 119.662 3.196 119.486 3.5C119.318 3.804 119.234 4.152 119.234 4.544C119.234 4.936 119.318 5.288 119.486 5.6C119.662 5.912 119.898 6.156 120.194 6.332C120.49 6.5 120.826 6.584 121.202 6.584Z" fill="white"/>
</svg>
