<svg width="285" height="268" viewBox="0 0 285 268" fill="none" xmlns="http://www.w3.org/2000/svg">
<rect x="0.5" y="0.5" width="284" height="267" stroke="#7E7E7E"/>
<path d="M79.24 158C75.8767 158 72.716 157.37 69.7578 156.11C66.7997 154.85 64.2266 153.14 62.0384 150.98C59.8502 148.82 58.1179 146.28 56.8414 143.36C55.565 140.44 54.9268 137.32 54.9268 134C54.9268 130.68 55.565 127.56 56.8414 124.64C58.1179 121.72 59.8502 119.18 62.0384 117.02C64.2266 114.86 66.7997 113.15 69.7578 111.89C72.716 110.63 75.8767 110 79.24 110C85.1562 110 90.3329 111.83 94.7701 115.49C99.2073 119.15 101.973 123.74 103.067 129.26H98.0828C97.3129 126.34 95.925 123.73 93.9192 121.43C91.9133 119.13 89.4516 117.4 86.534 116.24V117.2C86.534 118.52 86.0579 119.65 85.1056 120.59C84.1533 121.53 83.0086 122 81.6713 122H76.8087V126.8C76.8087 127.48 76.5757 128.05 76.1097 128.51C75.6437 128.97 75.0662 129.2 74.3774 129.2H69.5147V134H74.3774V141.2H71.946L60.2757 129.68C60.1541 130.4 60.0427 131.12 59.9414 131.84C59.8401 132.56 59.7894 133.28 59.7894 134C59.7894 139.24 61.6534 143.74 65.3815 147.5C69.1095 151.26 73.729 153.16 79.24 153.2V158ZM101.365 156.8L93.5848 149.12C92.7339 149.6 91.8221 150 90.8496 150.32C89.8771 150.64 88.8438 150.8 87.7497 150.8C84.7105 150.8 82.1272 149.75 79.9998 147.65C77.8724 145.55 76.8087 143 76.8087 140C76.8087 137 77.8724 134.45 79.9998 132.35C82.1272 130.25 84.7105 129.2 87.7497 129.2C90.7888 129.2 93.3721 130.25 95.4995 132.35C97.6269 134.45 98.6906 137 98.6906 140C98.6906 141.08 98.5285 142.1 98.2044 143.06C97.8802 144.02 97.475 144.92 96.9887 145.76L104.769 153.44L101.365 156.8ZM87.7497 146C89.4516 146 90.8901 145.42 92.0653 144.26C93.2404 143.1 93.828 141.68 93.828 140C93.828 138.32 93.2404 136.9 92.0653 135.74C90.8901 134.58 89.4516 134 87.7497 134C86.0477 134 84.6092 134.58 83.4341 135.74C82.2589 136.9 81.6713 138.32 81.6713 140C81.6713 141.68 82.2589 143.1 83.4341 144.26C84.6092 145.42 86.0477 146 87.7497 146Z" fill="#7E7E7E"/>
<path d="M127.442 110.642H136.269V133.443H127.442V125.02L122.737 125.434V133.443H113.924V110.642H122.737V118.88L127.442 118.495V110.642Z" fill="#7E7E7E"/>
<path d="M139.769 110.642H156.079V117.21H148.583V119.08H156.05V124.677H148.583V126.833H156.575V133.443H139.769V110.642Z" fill="#7E7E7E"/>
<path d="M168.76 133.443H159.947V110.642H168.76V133.443Z" fill="#7E7E7E"/>
<path d="M171.283 110.642H192.707V118.038H186.402V133.443H177.588V118.038H171.283V110.642Z" fill="#7E7E7E"/>
<path d="M211.014 119.309C211.014 117.7 210.249 116.896 208.719 116.896C208.058 116.896 207.321 117.315 206.508 118.152C205.29 119.418 204.44 120.927 203.958 122.678C203.807 123.23 203.731 123.739 203.731 124.206C203.731 125.786 204.525 126.576 206.112 126.576C206.745 126.585 207.467 126.162 208.28 125.305C209.46 124.049 210.296 122.526 210.788 120.736C210.939 120.184 211.014 119.709 211.014 119.309ZM207.146 134C203.793 134 200.883 132.905 198.418 130.716C197.633 130.021 196.953 129.227 196.377 128.332C195.149 126.438 194.535 124.32 194.535 121.979C194.535 119.628 195.102 117.548 196.235 115.739C197.369 113.931 198.89 112.522 200.798 111.513C202.706 110.504 204.681 110 206.721 110C208.771 110 210.575 110.276 212.134 110.828C213.692 111.38 215.048 112.175 216.2 113.212C217.362 114.24 218.274 115.501 218.935 116.996C219.596 118.49 219.927 120.18 219.927 122.064C219.927 124.406 219.337 126.49 218.156 128.318C216.975 130.136 215.402 131.54 213.437 132.529C211.473 133.51 209.375 134 207.146 134Z" fill="#7E7E7E"/>
<path d="M237.087 117.852C237.087 116.51 236.591 115.839 235.599 115.839C235.174 115.839 234.583 115.996 233.828 116.311L231.943 117.096V122.678C235.372 121.393 237.087 119.785 237.087 117.852ZM245.503 118.095C245.503 121.141 244.011 123.559 241.026 125.348L247.175 133.443H235.981L232 126.833V133.443H222.747V110.642C228.736 110.214 232.661 110 234.522 110C236.383 110 237.8 110.114 238.773 110.343C241.456 110.961 243.373 112.284 244.526 114.312C245.168 115.473 245.494 116.734 245.503 118.095Z" fill="#7E7E7E"/>
<path d="M117.824 144.78L119.084 140.268H121.592L119.276 147H116.348L114.032 140.268H116.54L117.824 144.78ZM123.577 139.644C123.161 139.644 122.825 139.532 122.569 139.308C122.321 139.076 122.197 138.788 122.197 138.444C122.197 138.092 122.321 137.8 122.569 137.568C122.825 137.336 123.161 137.22 123.577 137.22C123.985 137.22 124.313 137.336 124.561 137.568C124.817 137.8 124.945 138.092 124.945 138.444C124.945 138.788 124.817 139.076 124.561 139.308C124.313 139.532 123.985 139.644 123.577 139.644ZM124.741 140.268V147H122.389V140.268H124.741ZM125.696 143.628C125.696 142.932 125.82 142.324 126.068 141.804C126.324 141.284 126.668 140.884 127.1 140.604C127.54 140.324 128.028 140.184 128.564 140.184C129.028 140.184 129.428 140.276 129.764 140.46C130.1 140.644 130.36 140.892 130.544 141.204V140.268H132.896V147H130.544V146.064C130.36 146.376 130.096 146.624 129.752 146.808C129.416 146.992 129.02 147.084 128.564 147.084C128.028 147.084 127.54 146.944 127.1 146.664C126.668 146.384 126.324 145.984 126.068 145.464C125.82 144.936 125.696 144.324 125.696 143.628ZM130.544 143.628C130.544 143.196 130.424 142.856 130.184 142.608C129.952 142.36 129.664 142.236 129.32 142.236C128.968 142.236 128.676 142.36 128.444 142.608C128.212 142.848 128.096 143.188 128.096 143.628C128.096 144.06 128.212 144.404 128.444 144.66C128.676 144.908 128.968 145.032 129.32 145.032C129.664 145.032 129.952 144.908 130.184 144.66C130.424 144.412 130.544 144.068 130.544 143.628ZM136.72 140.184C137.176 140.184 137.572 140.276 137.908 140.46C138.252 140.644 138.516 140.892 138.7 141.204V140.268H141.052V146.928C141.052 147.56 140.932 148.128 140.692 148.632C140.452 149.144 140.076 149.552 139.564 149.856C139.06 150.16 138.42 150.312 137.644 150.312C136.604 150.312 135.772 150.068 135.148 149.58C134.524 149.092 134.168 148.428 134.08 147.588H136.396C136.444 147.804 136.564 147.972 136.756 148.092C136.948 148.212 137.196 148.272 137.5 148.272C138.3 148.272 138.7 147.824 138.7 146.928V146.064C138.516 146.376 138.252 146.624 137.908 146.808C137.572 146.992 137.176 147.084 136.72 147.084C136.184 147.084 135.696 146.944 135.256 146.664C134.824 146.384 134.48 145.984 134.224 145.464C133.976 144.936 133.852 144.324 133.852 143.628C133.852 142.932 133.976 142.324 134.224 141.804C134.48 141.284 134.824 140.884 135.256 140.604C135.696 140.324 136.184 140.184 136.72 140.184ZM138.7 143.628C138.7 143.196 138.58 142.856 138.34 142.608C138.108 142.36 137.82 142.236 137.476 142.236C137.124 142.236 136.832 142.36 136.6 142.608C136.368 142.848 136.252 143.188 136.252 143.628C136.252 144.06 136.368 144.404 136.6 144.66C136.832 144.908 137.124 145.032 137.476 145.032C137.82 145.032 138.108 144.908 138.34 144.66C138.58 144.412 138.7 144.068 138.7 143.628ZM148.825 143.556C148.825 143.74 148.813 143.924 148.789 144.108H144.337C144.361 144.476 144.461 144.752 144.637 144.936C144.821 145.112 145.053 145.2 145.333 145.2C145.725 145.2 146.005 145.024 146.173 144.672H148.681C148.577 145.136 148.373 145.552 148.069 145.92C147.773 146.28 147.397 146.564 146.941 146.772C146.485 146.98 145.981 147.084 145.429 147.084C144.765 147.084 144.173 146.944 143.653 146.664C143.141 146.384 142.737 145.984 142.441 145.464C142.153 144.944 142.009 144.332 142.009 143.628C142.009 142.924 142.153 142.316 142.441 141.804C142.729 141.284 143.129 140.884 143.641 140.604C144.161 140.324 144.757 140.184 145.429 140.184C146.093 140.184 146.681 140.32 147.193 140.592C147.705 140.864 148.105 141.256 148.393 141.768C148.681 142.272 148.825 142.868 148.825 143.556ZM146.425 142.968C146.425 142.68 146.329 142.456 146.137 142.296C145.945 142.128 145.705 142.044 145.417 142.044C145.129 142.044 144.893 142.124 144.709 142.284C144.525 142.436 144.405 142.664 144.349 142.968H146.425ZM154.191 140.208C154.967 140.208 155.583 140.468 156.039 140.988C156.495 141.5 156.723 142.196 156.723 143.076V147H154.371V143.388C154.371 143.004 154.271 142.704 154.071 142.488C153.871 142.264 153.603 142.152 153.267 142.152C152.915 142.152 152.639 142.264 152.439 142.488C152.239 142.704 152.139 143.004 152.139 143.388V147H149.787V140.268H152.139V141.228C152.347 140.924 152.627 140.68 152.979 140.496C153.331 140.304 153.735 140.208 154.191 140.208ZM160.882 147.084C160.274 147.084 159.73 146.984 159.25 146.784C158.778 146.576 158.402 146.296 158.122 145.944C157.85 145.584 157.698 145.18 157.666 144.732H159.946C159.978 144.948 160.078 145.116 160.246 145.236C160.414 145.356 160.622 145.416 160.87 145.416C161.062 145.416 161.214 145.376 161.326 145.296C161.438 145.216 161.494 145.112 161.494 144.984C161.494 144.816 161.402 144.692 161.218 144.612C161.034 144.532 160.73 144.444 160.306 144.348C159.826 144.252 159.426 144.144 159.106 144.024C158.786 143.904 158.506 143.708 158.266 143.436C158.034 143.164 157.918 142.796 157.918 142.332C157.918 141.932 158.026 141.572 158.242 141.252C158.458 140.924 158.774 140.664 159.19 140.472C159.614 140.28 160.122 140.184 160.714 140.184C161.594 140.184 162.286 140.4 162.79 140.832C163.294 141.264 163.586 141.832 163.666 142.536H161.542C161.502 142.32 161.406 142.156 161.254 142.044C161.11 141.924 160.914 141.864 160.666 141.864C160.474 141.864 160.326 141.9 160.222 141.972C160.126 142.044 160.078 142.144 160.078 142.272C160.078 142.432 160.17 142.556 160.354 142.644C160.538 142.724 160.834 142.808 161.242 142.896C161.73 143 162.134 143.116 162.454 143.244C162.782 143.372 163.066 143.58 163.306 143.868C163.554 144.148 163.678 144.532 163.678 145.02C163.678 145.412 163.562 145.764 163.33 146.076C163.106 146.388 162.782 146.636 162.358 146.82C161.942 146.996 161.45 147.084 160.882 147.084ZM173.563 143.556C173.563 143.74 173.551 143.924 173.527 144.108H169.075C169.099 144.476 169.199 144.752 169.375 144.936C169.559 145.112 169.791 145.2 170.071 145.2C170.463 145.2 170.743 145.024 170.911 144.672H173.419C173.315 145.136 173.111 145.552 172.807 145.92C172.511 146.28 172.135 146.564 171.679 146.772C171.223 146.98 170.719 147.084 170.167 147.084C169.503 147.084 168.911 146.944 168.391 146.664C167.879 146.384 167.475 145.984 167.179 145.464C166.891 144.944 166.747 144.332 166.747 143.628C166.747 142.924 166.891 142.316 167.179 141.804C167.467 141.284 167.867 140.884 168.379 140.604C168.899 140.324 169.495 140.184 170.167 140.184C170.831 140.184 171.419 140.32 171.931 140.592C172.443 140.864 172.843 141.256 173.131 141.768C173.419 142.272 173.563 142.868 173.563 143.556ZM171.163 142.968C171.163 142.68 171.067 142.456 170.875 142.296C170.683 142.128 170.443 142.044 170.155 142.044C169.867 142.044 169.631 142.124 169.447 142.284C169.263 142.436 169.143 142.664 169.087 142.968H171.163ZM180.794 144.996V147H179.774C178.054 147 177.194 146.148 177.194 144.444V142.224H176.366V140.268H177.194V138.636H179.558V140.268H180.782V142.224H179.558V144.48C179.558 144.664 179.598 144.796 179.678 144.876C179.766 144.956 179.91 144.996 180.11 144.996H180.794ZM188.761 140.268V147H186.397V146.04C186.197 146.344 185.921 146.592 185.569 146.784C185.217 146.968 184.813 147.06 184.357 147.06C183.573 147.06 182.953 146.804 182.497 146.292C182.049 145.772 181.825 145.068 181.825 144.18V140.268H184.165V143.88C184.165 144.264 184.265 144.568 184.465 144.792C184.673 145.008 184.945 145.116 185.281 145.116C185.625 145.116 185.897 145.008 186.097 144.792C186.297 144.568 186.397 144.264 186.397 143.88V140.268H188.761ZM192.452 141.456C192.716 141.072 193.036 140.768 193.412 140.544C193.788 140.32 194.192 140.208 194.624 140.208V142.716H193.964C193.452 142.716 193.072 142.816 192.824 143.016C192.576 143.216 192.452 143.564 192.452 144.06V147H190.1V140.268H192.452V141.456ZM196.655 139.644C196.239 139.644 195.903 139.532 195.647 139.308C195.399 139.076 195.275 138.788 195.275 138.444C195.275 138.092 195.399 137.8 195.647 137.568C195.903 137.336 196.239 137.22 196.655 137.22C197.063 137.22 197.391 137.336 197.639 137.568C197.895 137.8 198.023 138.092 198.023 138.444C198.023 138.788 197.895 139.076 197.639 139.308C197.391 139.532 197.063 139.644 196.655 139.644ZM197.819 140.268V147H195.467V140.268H197.819ZM202.026 147.084C201.418 147.084 200.874 146.984 200.394 146.784C199.922 146.576 199.546 146.296 199.266 145.944C198.994 145.584 198.842 145.18 198.81 144.732H201.09C201.122 144.948 201.222 145.116 201.39 145.236C201.558 145.356 201.766 145.416 202.014 145.416C202.206 145.416 202.358 145.376 202.47 145.296C202.582 145.216 202.638 145.112 202.638 144.984C202.638 144.816 202.546 144.692 202.362 144.612C202.178 144.532 201.874 144.444 201.45 144.348C200.97 144.252 200.57 144.144 200.25 144.024C199.93 143.904 199.65 143.708 199.41 143.436C199.178 143.164 199.062 142.796 199.062 142.332C199.062 141.932 199.17 141.572 199.386 141.252C199.602 140.924 199.918 140.664 200.334 140.472C200.758 140.28 201.266 140.184 201.858 140.184C202.738 140.184 203.43 140.4 203.934 140.832C204.438 141.264 204.73 141.832 204.81 142.536H202.686C202.646 142.32 202.55 142.156 202.398 142.044C202.254 141.924 202.058 141.864 201.81 141.864C201.618 141.864 201.47 141.9 201.366 141.972C201.27 142.044 201.222 142.144 201.222 142.272C201.222 142.432 201.314 142.556 201.498 142.644C201.682 142.724 201.978 142.808 202.386 142.896C202.874 143 203.278 143.116 203.598 143.244C203.926 143.372 204.21 143.58 204.45 143.868C204.698 144.148 204.822 144.532 204.822 145.02C204.822 145.412 204.706 145.764 204.474 146.076C204.25 146.388 203.926 146.636 203.502 146.82C203.086 146.996 202.594 147.084 202.026 147.084ZM214.775 140.208C215.623 140.208 216.287 140.464 216.767 140.976C217.255 141.488 217.499 142.188 217.499 143.076V147H215.147V143.388C215.147 143.028 215.047 142.748 214.847 142.548C214.647 142.348 214.375 142.248 214.031 142.248C213.687 142.248 213.415 142.348 213.215 142.548C213.015 142.748 212.915 143.028 212.915 143.388V147H210.563V143.388C210.563 143.028 210.463 142.748 210.263 142.548C210.071 142.348 209.803 142.248 209.459 142.248C209.107 142.248 208.831 142.348 208.631 142.548C208.431 142.748 208.331 143.028 208.331 143.388V147H205.979V140.268H208.331V141.156C208.539 140.868 208.807 140.64 209.135 140.472C209.471 140.296 209.855 140.208 210.287 140.208C210.783 140.208 211.223 140.316 211.607 140.532C211.999 140.748 212.307 141.052 212.531 141.444C212.771 141.076 213.087 140.78 213.479 140.556C213.871 140.324 214.303 140.208 214.775 140.208ZM221.919 147.084C221.247 147.084 220.643 146.944 220.107 146.664C219.579 146.384 219.163 145.984 218.859 145.464C218.555 144.944 218.403 144.332 218.403 143.628C218.403 142.932 218.555 142.324 218.859 141.804C219.171 141.284 219.591 140.884 220.119 140.604C220.655 140.324 221.259 140.184 221.931 140.184C222.603 140.184 223.203 140.324 223.731 140.604C224.267 140.884 224.687 141.284 224.991 141.804C225.303 142.324 225.459 142.932 225.459 143.628C225.459 144.324 225.303 144.936 224.991 145.464C224.687 145.984 224.267 146.384 223.731 146.664C223.195 146.944 222.591 147.084 221.919 147.084ZM221.919 145.044C222.247 145.044 222.519 144.924 222.735 144.684C222.959 144.436 223.071 144.084 223.071 143.628C223.071 143.172 222.959 142.824 222.735 142.584C222.519 142.344 222.251 142.224 221.931 142.224C221.611 142.224 221.343 142.344 221.127 142.584C220.911 142.824 220.803 143.172 220.803 143.628C220.803 144.092 220.907 144.444 221.115 144.684C221.323 144.924 221.591 145.044 221.919 145.044Z" fill="#7E7E7E"/>
</svg>
