<svg width="285" height="268" viewBox="0 0 285 268" fill="none" xmlns="http://www.w3.org/2000/svg">
<rect x="0.5" y="0.5" width="284" height="267" stroke="#7E7E7E"/>
<path d="M122.883 124.132C122.883 122.772 123.134 121.443 123.636 120.146C124.138 118.828 124.87 117.635 125.832 116.568C126.795 115.501 127.966 114.654 129.347 114.026C130.728 113.377 132.296 113.053 134.054 113.053C136.146 113.053 137.955 113.503 139.482 114.402C141.03 115.302 142.181 116.474 142.934 117.918L138.98 120.679C138.645 119.884 138.196 119.267 137.631 118.828C137.087 118.388 136.48 118.085 135.811 117.918C135.162 117.729 134.535 117.635 133.928 117.635C132.945 117.635 132.087 117.834 131.355 118.231C130.623 118.608 130.016 119.121 129.535 119.769C129.054 120.418 128.698 121.14 128.468 121.935C128.238 122.73 128.123 123.525 128.123 124.32C128.123 125.199 128.259 126.046 128.531 126.862C128.803 127.678 129.19 128.4 129.692 129.028C130.215 129.655 130.843 130.158 131.575 130.534C132.307 130.89 133.112 131.068 133.991 131.068C134.619 131.068 135.257 130.963 135.905 130.754C136.554 130.545 137.15 130.22 137.694 129.781C138.258 129.321 138.687 128.724 138.98 127.992L143.185 130.471C142.746 131.559 142.024 132.49 141.02 133.265C140.016 134.039 138.876 134.635 137.6 135.054C136.344 135.451 135.1 135.65 133.865 135.65C132.255 135.65 130.769 135.326 129.41 134.677C128.071 134.007 126.91 133.129 125.927 132.041C124.964 130.932 124.211 129.697 123.667 128.337C123.144 126.956 122.883 125.554 122.883 124.132Z" fill="#7E7E7E"/>
<path d="M144.33 130.534C144.33 129.446 144.633 128.494 145.24 127.678C145.846 126.862 146.683 126.224 147.75 125.764C148.817 125.282 150.041 125.042 151.421 125.042C152.091 125.042 152.75 125.105 153.398 125.23C154.047 125.335 154.611 125.492 155.093 125.701V124.979C155.093 124.079 154.821 123.389 154.277 122.908C153.733 122.426 152.906 122.186 151.798 122.186C150.877 122.186 150.009 122.343 149.193 122.657C148.398 122.97 147.551 123.42 146.652 124.006L145.145 120.805C146.233 120.094 147.363 119.56 148.534 119.204C149.727 118.849 150.982 118.671 152.3 118.671C154.768 118.671 156.682 119.267 158.042 120.46C159.423 121.631 160.113 123.337 160.113 125.575V129.875C160.113 130.377 160.186 130.733 160.333 130.942C160.5 131.13 160.783 131.246 161.18 131.287V135.462C160.762 135.545 160.364 135.608 159.988 135.65C159.632 135.692 159.318 135.713 159.046 135.713C158.105 135.713 157.383 135.524 156.881 135.148C156.4 134.771 156.097 134.258 155.971 133.61L155.877 132.888C155.145 133.83 154.266 134.551 153.241 135.054C152.237 135.535 151.181 135.775 150.072 135.775C148.984 135.775 148.001 135.545 147.122 135.085C146.265 134.625 145.585 133.997 145.083 133.202C144.581 132.407 144.33 131.518 144.33 130.534ZM154.308 131.162C154.538 130.974 154.726 130.764 154.873 130.534C155.019 130.304 155.093 130.084 155.093 129.875V128.4C154.674 128.233 154.203 128.107 153.68 128.023C153.178 127.919 152.708 127.866 152.268 127.866C151.348 127.866 150.584 128.076 149.978 128.494C149.371 128.892 149.068 129.425 149.068 130.095C149.068 130.471 149.172 130.817 149.382 131.13C149.591 131.444 149.873 131.695 150.229 131.884C150.605 132.072 151.045 132.166 151.547 132.166C152.049 132.166 152.551 132.072 153.053 131.884C153.555 131.695 153.973 131.455 154.308 131.162Z" fill="#7E7E7E"/>
<path d="M174.2 123.284C172.987 123.284 171.889 123.483 170.905 123.881C169.922 124.257 169.211 124.822 168.772 125.575V135.462H163.751V118.985H168.364V122.311C168.929 121.202 169.661 120.334 170.56 119.706C171.46 119.079 172.401 118.754 173.384 118.734C173.615 118.734 173.782 118.734 173.886 118.734C174.012 118.734 174.117 118.744 174.2 118.765V123.284Z" fill="#7E7E7E"/>
<path d="M176.252 112.551H181.273V129.593C181.273 130.283 181.398 130.775 181.649 131.068C181.9 131.361 182.256 131.507 182.716 131.507C183.03 131.507 183.344 131.465 183.658 131.382C183.992 131.277 184.285 131.162 184.536 131.036L185.195 134.802C184.568 135.095 183.846 135.326 183.03 135.493C182.214 135.66 181.451 135.744 180.739 135.744C179.317 135.744 178.208 135.367 177.413 134.614C176.639 133.84 176.252 132.752 176.252 131.35V112.551Z" fill="#7E7E7E"/>
<path d="M194.67 135.775C193.269 135.775 192.014 135.545 190.905 135.085C189.817 134.625 188.897 133.997 188.144 133.202C187.39 132.407 186.815 131.497 186.418 130.471C186.041 129.446 185.853 128.369 185.853 127.239C185.853 126.088 186.041 125 186.418 123.975C186.815 122.95 187.39 122.039 188.144 121.244C188.897 120.449 189.817 119.822 190.905 119.361C192.014 118.901 193.269 118.671 194.67 118.671C196.072 118.671 197.317 118.901 198.404 119.361C199.492 119.822 200.413 120.449 201.166 121.244C201.919 122.039 202.494 122.95 202.892 123.975C203.289 125 203.488 126.088 203.488 127.239C203.488 128.369 203.289 129.446 202.892 130.471C202.494 131.497 201.919 132.407 201.166 133.202C200.413 133.997 199.492 134.625 198.404 135.085C197.317 135.545 196.072 135.775 194.67 135.775ZM190.999 127.239C190.999 128.097 191.156 128.85 191.47 129.498C191.804 130.147 192.244 130.649 192.788 131.005C193.331 131.361 193.959 131.538 194.67 131.538C195.361 131.538 195.978 131.361 196.522 131.005C197.087 130.628 197.526 130.116 197.84 129.467C198.153 128.818 198.31 128.076 198.31 127.239C198.31 126.381 198.153 125.628 197.84 124.979C197.526 124.33 197.087 123.828 196.522 123.473C195.978 123.117 195.361 122.939 194.67 122.939C193.959 122.939 193.331 123.117 192.788 123.473C192.244 123.828 191.804 124.33 191.47 124.979C191.156 125.628 190.999 126.381 190.999 127.239Z" fill="#7E7E7E"/>
<path d="M212.285 135.775C210.883 135.775 209.513 135.545 208.174 135.085C206.835 134.625 205.706 133.945 204.785 133.045L206.511 129.875C207.515 130.607 208.488 131.162 209.429 131.538C210.392 131.915 211.291 132.103 212.128 132.103C212.777 132.103 213.279 131.999 213.634 131.79C213.99 131.58 214.168 131.256 214.168 130.817C214.168 130.503 214.063 130.262 213.854 130.095C213.645 129.906 213.32 129.739 212.881 129.593C212.463 129.446 211.94 129.289 211.312 129.122C210.057 128.703 209.011 128.295 208.174 127.898C207.338 127.5 206.71 127.019 206.292 126.454C205.873 125.868 205.664 125.115 205.664 124.194C205.664 123.086 205.936 122.123 206.48 121.307C207.045 120.47 207.84 119.822 208.865 119.361C209.89 118.901 211.113 118.671 212.536 118.671C213.666 118.671 214.764 118.849 215.831 119.204C216.919 119.56 217.933 120.156 218.874 120.993L216.929 124.132C215.988 123.483 215.151 123.012 214.419 122.719C213.686 122.426 212.975 122.28 212.285 122.28C211.929 122.28 211.605 122.322 211.312 122.406C211.019 122.489 210.779 122.636 210.59 122.845C210.423 123.033 210.339 123.284 210.339 123.598C210.339 123.912 210.423 124.163 210.59 124.351C210.779 124.54 211.061 124.707 211.438 124.854C211.835 124.979 212.327 125.136 212.912 125.324C214.272 125.722 215.402 126.13 216.301 126.548C217.201 126.946 217.87 127.448 218.31 128.055C218.77 128.641 219 129.425 219 130.409C219 132.082 218.393 133.401 217.18 134.363C215.988 135.305 214.356 135.775 212.285 135.775Z" fill="#7E7E7E"/>
<path d="M137.695 155.077H136.911V150.526C136.911 149.48 136.759 148.716 136.456 148.235C136.163 147.743 135.692 147.498 135.044 147.498C134.584 147.498 134.129 147.607 133.679 147.827C133.24 148.047 132.853 148.35 132.518 148.737C132.194 149.114 131.958 149.543 131.812 150.024V155.077H131.027V146.917H131.765V148.863C131.985 148.444 132.277 148.083 132.644 147.78C133.01 147.466 133.418 147.22 133.867 147.042C134.317 146.865 134.782 146.776 135.264 146.776C135.713 146.776 136.09 146.859 136.393 147.027C136.707 147.184 136.958 147.414 137.146 147.717C137.345 148.021 137.486 148.397 137.57 148.847C137.654 149.297 137.695 149.81 137.695 150.385V155.077Z" fill="#7E7E7E"/>
<path d="M139.989 151.625V146.917H140.773V151.515C140.773 152.53 140.941 153.288 141.275 153.79C141.621 154.282 142.138 154.528 142.829 154.528C143.289 154.528 143.728 154.428 144.147 154.23C144.575 154.02 144.952 153.733 145.276 153.366C145.6 152.99 145.841 152.556 145.998 152.064V146.917H146.782V154.041C146.782 154.167 146.809 154.261 146.861 154.324C146.924 154.386 147.007 154.423 147.112 154.434V155.077C147.007 155.087 146.924 155.093 146.861 155.093C146.809 155.093 146.761 155.087 146.72 155.077C146.542 155.056 146.395 154.983 146.28 154.857C146.165 154.721 146.103 154.559 146.092 154.371L146.076 153.147C145.721 153.795 145.229 154.308 144.602 154.685C143.984 155.051 143.315 155.234 142.593 155.234C141.736 155.234 141.087 154.93 140.648 154.324C140.208 153.717 139.989 152.817 139.989 151.625Z" fill="#7E7E7E"/>
<path d="M152.916 154.685C152.863 154.706 152.759 154.758 152.602 154.842C152.445 154.925 152.246 155.004 152.006 155.077C151.765 155.14 151.498 155.171 151.205 155.171C150.923 155.171 150.656 155.119 150.405 155.014C150.165 154.899 149.971 154.732 149.825 154.512C149.678 154.292 149.605 154.026 149.605 153.712V147.56H148.46V146.917H149.605V144.124H150.39V146.917H152.288V147.56H150.39V153.523C150.411 153.827 150.52 154.057 150.719 154.214C150.918 154.36 151.148 154.434 151.409 154.434C151.734 154.434 152.016 154.381 152.257 154.277C152.497 154.162 152.638 154.088 152.68 154.057L152.916 154.685Z" fill="#7E7E7E"/>
<path d="M158.161 147.623C157.429 147.644 156.785 147.864 156.231 148.282C155.687 148.69 155.305 149.255 155.086 149.977V155.077H154.301V146.917H155.054V148.926C155.337 148.35 155.713 147.885 156.184 147.529C156.655 147.163 157.151 146.954 157.674 146.901C157.779 146.891 157.873 146.886 157.957 146.886C158.04 146.886 158.108 146.886 158.161 146.886V147.623Z" fill="#7E7E7E"/>
<path d="M159.648 155.077V146.917H160.433V155.077H159.648ZM159.648 145.065V143.622H160.433V145.065H159.648Z" fill="#7E7E7E"/>
<path d="M166.364 155.234C165.799 155.234 165.271 155.124 164.779 154.904C164.288 154.674 163.859 154.366 163.493 153.978C163.127 153.581 162.839 153.126 162.63 152.613C162.431 152.101 162.332 151.551 162.332 150.966C162.332 150.181 162.504 149.475 162.85 148.847C163.195 148.219 163.671 147.717 164.277 147.341C164.884 146.964 165.574 146.776 166.348 146.776C167.091 146.776 167.745 146.948 168.31 147.294C168.874 147.628 169.298 148.089 169.58 148.674L168.812 148.926C168.571 148.476 168.226 148.125 167.776 147.874C167.337 147.613 166.85 147.482 166.317 147.482C165.721 147.482 165.182 147.634 164.701 147.937C164.22 148.24 163.833 148.659 163.54 149.192C163.258 149.715 163.116 150.306 163.116 150.966C163.116 151.614 163.263 152.21 163.556 152.754C163.848 153.298 164.235 153.733 164.717 154.057C165.208 154.371 165.747 154.528 166.333 154.528C166.709 154.528 167.075 154.46 167.431 154.324C167.797 154.177 168.111 153.989 168.372 153.759C168.644 153.529 168.822 153.283 168.906 153.021L169.674 153.241C169.539 153.628 169.303 153.973 168.968 154.277C168.634 154.57 168.242 154.805 167.792 154.983C167.352 155.15 166.877 155.234 166.364 155.234Z" fill="#7E7E7E"/>
<path d="M171.446 155.077V146.917H172.231V155.077H171.446ZM171.446 145.065V143.622H172.231V145.065H171.446Z" fill="#7E7E7E"/>
<path d="M178.115 155.234C177.539 155.234 177.006 155.124 176.514 154.904C176.033 154.685 175.615 154.381 175.259 153.994C174.904 153.597 174.626 153.142 174.428 152.629C174.229 152.116 174.13 151.578 174.13 151.013C174.13 150.437 174.229 149.898 174.428 149.396C174.626 148.884 174.904 148.434 175.259 148.047C175.625 147.649 176.049 147.341 176.53 147.121C177.022 146.891 177.55 146.776 178.115 146.776C178.679 146.776 179.202 146.891 179.684 147.121C180.165 147.341 180.588 147.649 180.954 148.047C181.321 148.434 181.603 148.884 181.802 149.396C182 149.898 182.1 150.437 182.1 151.013C182.1 151.578 182 152.116 181.802 152.629C181.603 153.142 181.321 153.597 180.954 153.994C180.599 154.381 180.175 154.685 179.684 154.904C179.202 155.124 178.679 155.234 178.115 155.234ZM174.914 151.044C174.914 151.682 175.055 152.268 175.338 152.802C175.631 153.325 176.018 153.743 176.499 154.057C176.98 154.371 177.513 154.528 178.099 154.528C178.685 154.528 179.218 154.371 179.699 154.057C180.191 153.733 180.578 153.304 180.86 152.77C181.153 152.226 181.3 151.635 181.3 150.997C181.3 150.359 181.153 149.773 180.86 149.239C180.578 148.706 180.191 148.282 179.699 147.968C179.218 147.644 178.69 147.482 178.115 147.482C177.529 147.482 176.995 147.644 176.514 147.968C176.033 148.293 175.646 148.722 175.353 149.255C175.06 149.789 174.914 150.385 174.914 151.044Z" fill="#7E7E7E"/>
<path d="M190.647 155.077H189.863V150.526C189.863 149.48 189.711 148.716 189.408 148.235C189.115 147.743 188.644 147.498 187.996 147.498C187.536 147.498 187.081 147.607 186.631 147.827C186.192 148.047 185.805 148.35 185.47 148.737C185.146 149.114 184.91 149.543 184.764 150.024V155.077H183.979V146.917H184.717V148.863C184.936 148.444 185.229 148.083 185.595 147.78C185.961 147.466 186.369 147.22 186.819 147.042C187.269 146.865 187.734 146.776 188.215 146.776C188.665 146.776 189.042 146.859 189.345 147.027C189.659 147.184 189.91 147.414 190.098 147.717C190.297 148.021 190.438 148.397 190.522 148.847C190.605 149.297 190.647 149.81 190.647 150.385V155.077Z" fill="#7E7E7E"/>
<path d="M193.019 155.077V146.917H193.804V155.077H193.019ZM193.019 145.065V143.622H193.804V145.065H193.019Z" fill="#7E7E7E"/>
<path d="M198.84 155.234C198.192 155.234 197.59 155.124 197.036 154.904C196.482 154.685 195.995 154.35 195.577 153.9L195.938 153.351C196.388 153.78 196.843 154.094 197.303 154.292C197.763 154.481 198.265 154.575 198.809 154.575C199.51 154.575 200.075 154.428 200.503 154.135C200.943 153.842 201.162 153.434 201.162 152.911C201.162 152.556 201.058 152.284 200.849 152.095C200.65 151.897 200.357 151.74 199.97 151.625C199.594 151.499 199.133 151.368 198.589 151.232C198.035 151.086 197.564 150.934 197.177 150.777C196.801 150.62 196.518 150.416 196.33 150.165C196.142 149.914 196.048 149.574 196.048 149.145C196.048 148.612 196.178 148.172 196.44 147.827C196.712 147.471 197.073 147.21 197.523 147.042C197.983 146.865 198.49 146.776 199.044 146.776C199.682 146.776 200.237 146.88 200.707 147.09C201.189 147.299 201.555 147.576 201.806 147.921L201.382 148.423C201.121 148.089 200.781 147.843 200.362 147.686C199.944 147.518 199.484 147.435 198.982 147.435C198.605 147.435 198.249 147.487 197.915 147.592C197.58 147.696 197.308 147.869 197.099 148.11C196.9 148.34 196.801 148.654 196.801 149.051C196.801 149.365 196.874 149.611 197.02 149.789C197.177 149.966 197.407 150.113 197.711 150.228C198.014 150.333 198.391 150.448 198.84 150.573C199.478 150.73 200.028 150.892 200.488 151.06C200.948 151.227 201.304 151.447 201.555 151.719C201.806 151.98 201.931 152.352 201.931 152.833C201.931 153.576 201.649 154.162 201.084 154.59C200.519 155.019 199.771 155.234 198.84 155.234Z" fill="#7E7E7E"/>
<path d="M207.415 154.685C207.363 154.706 207.258 154.758 207.101 154.842C206.944 154.925 206.746 155.004 206.505 155.077C206.264 155.14 205.998 155.171 205.705 155.171C205.422 155.171 205.156 155.119 204.905 155.014C204.664 154.899 204.471 154.732 204.324 154.512C204.178 154.292 204.104 154.026 204.104 153.712V147.56H202.959V146.917H204.104V144.124H204.889V146.917H206.787V147.56H204.889V153.523C204.91 153.827 205.02 154.057 205.218 154.214C205.417 154.36 205.647 154.434 205.909 154.434C206.233 154.434 206.515 154.381 206.756 154.277C206.997 154.162 207.138 154.088 207.18 154.057L207.415 154.685Z" fill="#7E7E7E"/>
<path d="M208.126 152.723C208.126 152.231 208.272 151.808 208.565 151.452C208.858 151.086 209.261 150.803 209.773 150.605C210.286 150.395 210.877 150.291 211.546 150.291C211.965 150.291 212.399 150.327 212.848 150.401C213.298 150.474 213.701 150.573 214.056 150.699V149.93C214.056 149.177 213.837 148.575 213.398 148.125C212.969 147.675 212.372 147.45 211.609 147.45C211.201 147.45 210.777 147.534 210.338 147.702C209.899 147.869 209.449 148.11 208.989 148.423L208.659 147.858C209.193 147.503 209.705 147.236 210.197 147.058C210.699 146.87 211.196 146.776 211.687 146.776C212.66 146.776 213.429 147.063 213.994 147.639C214.559 148.214 214.841 148.999 214.841 149.993V154.041C214.841 154.167 214.867 154.261 214.919 154.324C214.982 154.386 215.071 154.423 215.186 154.434V155.077C215.092 155.087 215.014 155.093 214.951 155.093C214.888 155.093 214.836 155.093 214.794 155.093C214.595 155.061 214.438 154.978 214.323 154.842C214.219 154.706 214.161 154.554 214.151 154.386V153.743C213.774 154.214 213.288 154.58 212.691 154.842C212.106 155.103 211.489 155.234 210.84 155.234C210.328 155.234 209.862 155.124 209.444 154.904C209.036 154.685 208.712 154.386 208.471 154.01C208.241 153.623 208.126 153.194 208.126 152.723ZM213.743 153.398C213.847 153.262 213.926 153.131 213.978 153.006C214.03 152.88 214.056 152.765 214.056 152.66V151.311C213.68 151.164 213.288 151.054 212.88 150.981C212.472 150.908 212.053 150.871 211.625 150.871C210.809 150.871 210.145 151.034 209.632 151.358C209.13 151.682 208.879 152.122 208.879 152.676C208.879 153.021 208.968 153.34 209.146 153.633C209.324 153.926 209.569 154.162 209.883 154.339C210.207 154.517 210.579 154.606 210.997 154.606C211.583 154.606 212.121 154.496 212.613 154.277C213.115 154.046 213.492 153.754 213.743 153.398Z" fill="#7E7E7E"/>
<path d="M113.084 138.539C108.658 135.735 108.109 133.402 110.724 128.551C112.363 125.54 110.658 120.65 107.372 118.858C106.036 118.125 102.65 117.057 99.1751 121.996C98.589 121.214 97.9033 120.507 97.1343 119.893C95.8512 118.757 94.7318 117.457 93.8065 116.03C92.1672 113.784 90.7656 111.816 87.3805 113.274C86.7578 112.212 85.7351 111.427 84.5282 111.084C84.0181 110.885 83.4601 110.832 82.92 110.93C82.3798 111.029 81.8799 111.276 81.4791 111.641L81.2087 111.832C81.0545 111.604 80.9306 111.358 80.8398 111.1C80.1513 109.387 79.2005 108.368 78.1104 108.073C77.6247 107.966 77.1194 107.977 76.6391 108.105C76.1588 108.232 75.7183 108.473 75.3564 108.806C74.8197 109.205 74.4097 109.744 74.1734 110.359C73.9371 110.975 73.8841 111.643 74.0204 112.286C74.1024 113.545 74.1843 114.74 72.0861 116.38C68.8075 118.913 69.9714 122.705 71.3648 124.967C70.5672 125.087 69.8218 125.427 69.2173 125.946C66.5125 128.264 66.5371 133.728 67.9305 137.695C68.3838 138.653 68.9988 139.531 69.7501 140.291C71.2664 142.06 73.1598 144.274 72.9221 147.109C72.8641 147.571 72.9071 148.04 73.0483 148.485C73.1896 148.93 73.4259 149.34 73.7417 149.69C75.1269 151.195 78.0203 151.403 81.6513 151.506C84.4544 151.586 84.5364 151.65 85.8396 152.701C86.9708 153.625 88.1588 154.481 89.3969 155.266C92.8229 157.456 95.0278 158.826 95.2901 158.937C95.3859 158.976 95.4904 158.99 95.5933 158.977H95.7573C95.8428 159.001 95.9326 159.006 96.0205 158.992C96.1083 158.979 96.1919 158.946 96.2654 158.898C97.5523 158.683 100.192 158.061 100.814 156.564C101.01 155.868 101.035 155.137 100.888 154.429C100.675 152.43 100.405 149.937 104.314 148.424C108.798 146.687 113.781 143.071 114.052 140.459C114.102 140.082 114.037 139.699 113.865 139.357C113.693 139.016 113.422 138.731 113.084 138.539ZM72.8155 117.296C75.3974 115.281 75.2745 113.577 75.1925 112.215C75.1269 111.187 75.0778 110.51 76.0859 109.73C76.3046 109.519 76.5719 109.362 76.8656 109.272C77.1593 109.182 77.4708 109.161 77.7744 109.212C78.4956 109.403 79.1596 110.208 79.6923 111.53C79.9628 112.207 80.2907 112.852 80.8726 113.003C81.1094 113.04 81.3519 113.02 81.579 112.945C81.8061 112.87 82.0109 112.742 82.1758 112.573C82.4138 112.327 82.7232 112.157 83.0628 112.086C83.4024 112.015 83.7563 112.046 84.0774 112.175C85.0021 112.406 85.7983 112.977 86.2986 113.768L85.9462 113.967C84.0282 115.146 84.0364 117.153 84.0364 118.858C84.0364 120.196 84.0364 121.351 83.2168 121.932C82.3971 122.513 82.5938 123.86 82.8397 125.413C83.0728 126.419 83.1145 127.458 82.9627 128.479C81.1103 124.768 80.1923 117.472 80.1841 117.392C80.1656 117.238 80.0849 117.097 79.9596 117.001C79.8343 116.904 79.6748 116.86 79.5161 116.878C79.3574 116.896 79.2126 116.975 79.1134 117.096C79.0143 117.218 78.969 117.373 78.9874 117.527C79.0284 117.87 80.0038 125.604 82.0939 129.387C81.581 129.932 81.2897 130.64 81.2742 131.379C80.0037 128.923 77.9431 126.937 75.4056 125.723C74.5735 125.313 73.6754 125.044 72.75 124.927C72.0779 123.987 69.4714 119.909 72.8155 117.296ZM90.8968 154.836C85.7331 150.057 74.1352 132.239 74.0204 132.064C73.9784 131.999 73.9237 131.943 73.8594 131.898C73.7951 131.854 73.7224 131.822 73.6455 131.805C73.5687 131.788 73.4891 131.786 73.4114 131.799C73.3337 131.812 73.2593 131.84 73.1926 131.88C73.1259 131.921 73.068 131.974 73.0224 132.037C72.9769 132.099 72.9444 132.17 72.9269 132.245C72.9094 132.319 72.9072 132.397 72.9204 132.472C72.9337 132.548 72.9621 132.62 73.0041 132.685C73.3975 133.282 80.8972 144.823 86.5363 151.801C85.0692 150.622 84.7331 150.463 81.6595 150.367C78.4301 150.272 75.6761 150.096 74.6024 148.941C74.4013 148.701 74.2556 148.422 74.175 148.122C74.0944 147.823 74.0809 147.51 74.1352 147.205C74.4138 143.884 72.2582 141.375 70.6927 139.551C70.0311 138.894 69.4781 138.142 69.0534 137.32C67.5781 133.147 68.0289 128.535 70.037 126.823C70.6174 126.325 71.3694 126.057 72.1434 126.074C73.1066 126.113 74.048 126.364 74.8974 126.807C79.135 128.822 80.5529 132.334 81.6922 135.162C82.4299 136.994 83.0692 138.587 84.3233 139.344C85.36 139.917 86.4829 140.328 87.651 140.562C89.5608 141.04 90.4132 141.311 90.4296 142.816C90.4151 143.784 90.0946 144.724 89.5116 145.508C88.7985 146.663 88.069 147.858 89.1837 150.049C90.4847 152.348 91.9846 154.536 93.6672 156.588L90.8968 154.836ZM96.1097 157.711C95.1343 156.54 91.6427 152.287 90.2411 149.523C89.4214 147.93 89.8804 147.133 90.5198 146.098C91.2215 145.13 91.6018 143.976 91.6099 142.792C91.6437 142.34 91.5645 141.887 91.379 141.471C91.1934 141.054 90.9071 140.688 90.5443 140.403C90.0444 138.22 89.6427 126.177 89.528 121.582C89.5258 121.429 89.4618 121.283 89.3499 121.176C89.2379 121.068 89.0869 121.008 88.9297 121.008C88.8511 121.01 88.7737 121.027 88.7019 121.058C88.6301 121.09 88.5653 121.134 88.5113 121.19C88.4573 121.245 88.415 121.31 88.3869 121.382C88.3589 121.453 88.3455 121.529 88.3477 121.605C88.3477 123.198 88.7084 135.528 89.2493 139.742C88.8313 139.598 88.3887 139.487 87.9461 139.383C86.8969 139.176 85.8874 138.811 84.9544 138.3C84.621 138.07 84.3416 137.774 84.1348 137.432C83.3151 135.775 81.4464 131.06 83.225 130.024C84.6429 129.18 84.3233 127.093 84.0446 125.245C83.9299 124.489 83.7086 123.087 83.9463 122.856C85.2577 121.924 85.2495 120.355 85.2495 118.873C85.2495 117.392 85.2495 115.807 86.5937 114.979C86.8314 114.835 87.0527 114.708 87.2658 114.596C90.1509 113.075 91.0689 114.333 92.7656 116.691C93.7822 118.198 95.0067 119.562 96.4048 120.745C98.3883 122.338 99.4374 124.146 99.4374 125.915C99.4396 126.598 99.2882 127.273 98.9937 127.894C98.6992 128.514 98.2688 129.065 97.7326 129.507C95.2737 131.49 93.9049 133.657 93.7819 135.608C93.7301 136.019 93.8447 136.433 94.1016 136.763C94.3268 136.946 94.5889 137.082 94.8711 137.162C95.1534 137.241 95.4496 137.263 95.7409 137.225C97.3377 137.241 98.8995 137.682 100.257 138.499C101.077 138.969 101.503 139.439 101.511 139.901C101.511 141.176 98.667 142.952 96.1343 144.521L94.6262 145.437C94.1518 145.718 93.75 146.101 93.4516 146.557C93.1533 147.013 92.9662 147.528 92.9049 148.065C92.4541 151.458 96.2654 156.11 97.4129 157.384C96.9877 157.516 96.5554 157.625 96.1179 157.711H96.1097ZM103.847 147.309C99.0932 149.148 99.4538 152.51 99.6751 154.525C99.7774 155.051 99.7774 155.592 99.6751 156.118C99.4262 156.518 99.0447 156.824 98.5932 156.986C98.503 156.883 93.6754 151.586 94.0852 148.225C94.1267 147.862 94.2532 147.513 94.4549 147.205C94.6567 146.897 94.9284 146.638 95.2491 146.448L96.749 145.508L97.7244 144.903C97.4585 146.664 97.2834 148.438 97.1998 150.216C97.1965 150.293 97.209 150.37 97.2366 150.442C97.2642 150.514 97.3063 150.581 97.3604 150.637C97.4146 150.693 97.4797 150.738 97.552 150.77C97.6244 150.802 97.7025 150.819 97.7818 150.821C97.9377 150.821 98.0874 150.762 98.1992 150.657C98.3109 150.551 98.3758 150.407 98.3801 150.256C98.4864 148.155 98.7163 146.062 99.0686 143.987C101.183 142.625 102.708 141.311 102.683 139.861C102.683 138.961 102.068 138.181 100.839 137.472L100.675 137.384C101.466 134.675 102.801 132.144 104.601 129.937C104.71 129.82 104.766 129.665 104.758 129.508C104.749 129.35 104.677 129.202 104.556 129.097C104.435 128.991 104.277 128.936 104.114 128.944C103.952 128.953 103.8 129.023 103.691 129.14C101.823 131.415 100.431 134.024 99.5932 136.819C98.3869 136.31 97.0885 136.039 95.7736 136.022C95.5182 136.02 95.2634 135.999 95.0114 135.958C94.9893 135.853 94.9893 135.745 95.0114 135.64C95.1097 134.047 96.3966 132.111 98.5358 130.359C99.1982 129.811 99.7309 129.129 100.097 128.362C100.464 127.595 100.655 126.76 100.659 125.915C100.629 124.944 100.371 123.993 99.9046 123.135C102.06 119.805 104.495 118.65 106.79 119.901C109.462 121.359 110.97 125.62 109.667 128.033C106.773 133.402 107.494 136.412 112.437 139.543C112.578 139.622 112.691 139.74 112.762 139.882C112.834 140.023 112.86 140.183 112.839 140.339C112.658 142.044 108.781 145.437 103.855 147.309H103.847Z" fill="#7E7E7E"/>
</svg>
