<svg width="285" height="268" viewBox="0 0 285 268" fill="none" xmlns="http://www.w3.org/2000/svg">
<rect x="0.5" y="0.5" width="284" height="267" stroke="white"/>
<path d="M172.528 90.4821C165.889 87.519 158.837 86 151.557 86C145.494 86 139.533 87.144 133.794 89.26C135.142 90.4602 170.789 122.269 172.528 123.82C172.528 121.526 172.528 91.1885 172.528 90.4821Z" fill="white"/>
<path d="M125.377 178.996C125.377 177.043 125.377 138.31 125.377 136.004C123.68 137.523 104.95 154.26 104.365 154.779C108.441 164.831 115.878 173.355 125.377 178.996Z" fill="white"/>
<path d="M100.7 136.294C100.7 140.588 101.361 144.955 102.547 149.281C103.927 148.046 146.746 109.798 147.63 109.01C146.769 108.248 128.961 92.3572 128.383 91.8384C111.306 100.456 100.7 117.44 100.7 136.294Z" fill="white"/>
<path d="M130.722 158.02C130.722 159.061 130.722 181.162 130.722 181.878C135.892 184.16 141.3 185.579 146.867 186.085H156.195C173.764 184.475 189.447 173.83 197.243 158.02C195.406 158.02 131.813 158.02 130.722 158.02Z" fill="white"/>
<path d="M177.887 93.6423C177.887 95.6271 177.887 151.691 177.887 152.757C178.933 152.757 198.724 152.757 199.532 152.757C201.427 147.431 202.419 141.892 202.419 136.294C202.419 118.919 193.021 102.697 177.887 93.6423Z" fill="white"/>
</svg>
