<svg width="285" height="268" viewBox="0 0 285 268" fill="none" xmlns="http://www.w3.org/2000/svg">
<rect x="0.5" y="0.5" width="284" height="267" stroke="#7E7E7E"/>
<path d="M44.7736 140.234C45.8796 140.17 46.6363 139.895 47.0438 139.411C47.4513 138.894 47.6695 138.2 47.6987 137.328C47.7569 136.423 47.786 135.406 47.786 134.276V113.347C47.786 112.701 47.8005 112.087 47.8296 111.506C47.8587 110.892 47.8878 110.343 47.9169 109.858C47.393 109.891 46.8692 109.923 46.3453 109.955C45.8214 109.988 45.2975 110.02 44.7736 110.052V107.92L55.0768 107.872C57.6962 107.872 60.0974 108.211 62.2803 108.889C64.4632 109.568 66.3405 110.617 67.9121 112.038C69.5129 113.427 70.7353 115.204 71.5794 117.368C72.4525 119.499 72.8891 122.019 72.8891 124.925C72.8891 127.154 72.5398 129.286 71.8413 131.32C71.1428 133.355 70.095 135.164 68.698 136.746C67.3009 138.297 65.5546 139.54 63.4591 140.477C61.3926 141.381 58.9914 141.833 56.2555 141.833H44.7736V140.234ZM51.5842 136.117C51.5842 136.989 51.5696 137.731 51.5405 138.345C51.5405 138.959 51.5114 139.475 51.4532 139.895C52.239 139.928 52.9521 139.96 53.5924 139.992C54.2618 139.992 54.8148 139.992 55.2514 139.992C55.7171 139.992 56.0082 139.992 56.1246 139.992C58.0164 139.992 59.7191 139.605 61.2325 138.83C62.7751 138.054 64.0848 136.989 65.1617 135.632C66.2677 134.243 67.1117 132.628 67.6939 130.787C68.3051 128.914 68.6107 126.895 68.6107 124.732C68.6107 121.663 68.1013 119.015 67.0826 116.786C66.0931 114.525 64.5651 112.781 62.4986 111.554C60.4321 110.294 57.7981 109.665 54.5966 109.665C53.5197 109.665 52.7629 109.907 52.3264 110.391C51.9189 110.876 51.6861 111.554 51.6278 112.426C51.5987 113.298 51.5842 114.315 51.5842 115.478V136.117Z" fill="#7E7E7E"/>
<path d="M76.8773 141.833V140.234C77.9833 140.17 78.74 139.895 79.1475 139.411C79.555 138.894 79.7733 138.2 79.8024 137.328C79.8606 136.423 79.8897 135.406 79.8897 134.276V113.347C79.8897 112.701 79.9042 112.087 79.9333 111.506C79.9624 110.892 79.9915 110.343 80.0206 109.858C79.4968 109.891 78.9729 109.923 78.449 109.955C77.9251 109.988 77.4012 110.02 76.8773 110.052V107.92C78.5072 107.888 80.1516 107.856 81.8106 107.824C83.4987 107.791 85.1868 107.807 86.8749 107.872C89.6981 107.904 91.9683 108.276 93.6855 108.986C95.4318 109.665 96.7124 110.65 97.5274 111.942C98.3423 113.201 98.7498 114.735 98.7498 116.544C98.7789 117.804 98.5606 119.096 98.0949 120.42C97.6583 121.712 96.8434 122.874 95.6501 123.908C94.4859 124.941 92.7978 125.717 90.5858 126.233C91.1679 126.686 91.6772 127.267 92.1138 127.977C92.5504 128.688 93.0452 129.512 93.5982 130.448L96.5669 135.632C97.0617 136.504 97.5419 137.295 98.0076 138.006C98.4733 138.684 99.0117 139.233 99.6229 139.653C100.234 140.041 100.991 140.234 101.893 140.234V141.833H96.3923C95.5482 140.993 94.8351 140.154 94.253 139.314C93.7 138.474 93.1179 137.521 92.5067 136.456L89.5817 131.272C89.2033 130.594 88.7667 129.818 88.2719 128.946C87.8063 128.042 87.2678 127.283 86.6566 126.669C86.1909 126.702 85.6961 126.718 85.1722 126.718C84.6775 126.718 84.1827 126.702 83.6879 126.669V136.068C83.6879 136.94 83.6733 137.699 83.6442 138.345C83.6442 138.959 83.6151 139.475 83.5569 139.895C83.9062 139.863 84.2554 139.847 84.6047 139.847C84.954 139.815 85.3032 139.782 85.6525 139.75C86.0017 139.718 86.351 139.702 86.7003 139.702V141.833H76.8773ZM86.3947 124.877C87.9954 124.812 89.3925 124.522 90.5858 124.005C91.8082 123.488 92.7687 122.664 93.4672 121.534C94.1657 120.404 94.515 118.918 94.515 117.077C94.515 115.85 94.3549 114.784 94.0347 113.879C93.7437 112.943 93.278 112.168 92.6377 111.554C91.9974 110.94 91.1824 110.488 90.1929 110.197C89.2033 109.875 88.0391 109.713 86.7003 109.713C85.6234 109.713 84.8666 109.955 84.4301 110.44C84.0226 110.924 83.7898 111.602 83.7315 112.474C83.7024 113.314 83.6879 114.315 83.6879 115.478V124.78C84.1536 124.812 84.5901 124.845 84.9976 124.877C85.4342 124.909 85.8999 124.909 86.3947 124.877Z" fill="#7E7E7E"/>
<path d="M103.76 141.833V140.234C104.633 140.234 105.302 139.976 105.768 139.459C106.234 138.943 106.612 138.232 106.903 137.328C107.223 136.423 107.587 135.374 107.995 134.179L116.988 107H118.036L127.772 134.566C128.004 135.244 128.266 136.117 128.557 137.182C128.848 138.248 128.965 139.153 128.907 139.895C129.401 139.863 129.896 139.831 130.391 139.798C130.886 139.766 131.381 139.734 131.875 139.702V141.833H121.878V140.234C122.984 140.202 123.711 139.928 124.061 139.411C124.41 138.894 124.541 138.28 124.454 137.57C124.366 136.859 124.221 136.213 124.017 135.632L122.489 131.078L111.138 131.369L109.61 136.553C109.406 137.328 109.217 137.941 109.042 138.394C108.897 138.846 108.722 139.346 108.519 139.895C109.101 139.863 109.668 139.831 110.221 139.798C110.803 139.766 111.371 139.734 111.924 139.702V141.833H103.76ZM111.793 129.286H121.878L118.778 120.032C118.458 119.031 118.123 118.046 117.774 117.077C117.454 116.076 117.134 115.074 116.813 114.073H116.726C116.435 114.978 116.129 115.882 115.809 116.786C115.518 117.691 115.213 118.611 114.893 119.548L111.793 129.286Z" fill="#7E7E7E"/>
<path d="M136.677 142.608C136.007 142.608 135.411 142.318 134.887 141.736C134.392 141.123 134.145 140.38 134.145 139.508C134.145 138.636 134.406 137.893 134.93 137.279C135.454 136.666 136.051 136.359 136.72 136.359C137.448 136.359 138.045 136.666 138.51 137.279C139.005 137.893 139.252 138.636 139.252 139.508C139.252 140.38 138.991 141.123 138.467 141.736C137.943 142.318 137.346 142.608 136.677 142.608Z" fill="#7E7E7E"/>
<path d="M153.301 141.833V140.234C154.174 140.234 154.844 139.976 155.309 139.459C155.775 138.943 156.153 138.232 156.444 137.328C156.765 136.423 157.128 135.374 157.536 134.179L166.529 107H167.577L177.313 134.566C177.546 135.244 177.807 136.117 178.099 137.182C178.39 138.248 178.506 139.153 178.448 139.895C178.943 139.863 179.437 139.831 179.932 139.798C180.427 139.766 180.922 139.734 181.417 139.702V141.833H171.419V140.234C172.525 140.202 173.253 139.928 173.602 139.411C173.951 138.894 174.082 138.28 173.995 137.57C173.907 136.859 173.762 136.213 173.558 135.632L172.03 131.078L160.679 131.369L159.151 136.553C158.947 137.328 158.758 137.941 158.584 138.394C158.438 138.846 158.263 139.346 158.06 139.895C158.642 139.863 159.209 139.831 159.762 139.798C160.344 139.766 160.912 139.734 161.465 139.702V141.833H153.301ZM161.334 129.286H171.419L168.319 120.032C167.999 119.031 167.664 118.046 167.315 117.077C166.995 116.076 166.675 115.074 166.355 114.073H166.267C165.976 114.978 165.671 115.882 165.351 116.786C165.059 117.691 164.754 118.611 164.434 119.548L161.334 129.286Z" fill="#7E7E7E"/>
<path d="M207.173 142.608L189.754 116.641C189.492 116.253 189.23 115.882 188.968 115.527C188.735 115.139 188.488 114.751 188.226 114.364H188.182L188.313 135.099C188.313 135.907 188.313 136.714 188.313 137.521C188.313 138.329 188.284 139.12 188.226 139.895C188.75 139.863 189.274 139.831 189.798 139.798C190.322 139.766 190.846 139.734 191.369 139.702V141.833H183.38V140.234C184.282 140.234 184.923 140.025 185.301 139.605C185.708 139.153 185.97 138.636 186.087 138.054C186.203 137.441 186.261 136.892 186.261 136.407L186.305 113.104C186.305 112.555 186.305 112.006 186.305 111.457C186.305 110.908 186.305 110.375 186.305 109.858C185.839 109.891 185.359 109.923 184.864 109.955C184.37 109.988 183.875 110.02 183.38 110.052V107.92H188.575L204.947 132.241C205.325 132.79 205.689 133.339 206.038 133.888C206.417 134.437 206.795 134.986 207.173 135.535H207.217L207.261 113.347C207.261 112.701 207.275 112.087 207.304 111.506C207.334 110.892 207.363 110.343 207.392 109.858C206.868 109.891 206.344 109.923 205.82 109.955C205.296 109.988 204.772 110.02 204.248 110.052V107.92H212.281V109.519C211.205 109.552 210.462 109.826 210.055 110.343C209.647 110.86 209.429 111.554 209.4 112.426C209.371 113.298 209.356 114.315 209.356 115.478L209.269 142.608H207.173Z" fill="#7E7E7E"/>
<path d="M213.884 141.833V140.234C214.758 140.234 215.427 139.976 215.893 139.459C216.358 138.943 216.737 138.232 217.028 137.328C217.348 136.423 217.712 135.374 218.119 134.179L227.113 107H228.161L237.896 134.566C238.129 135.244 238.391 136.117 238.682 137.182C238.973 138.248 239.089 139.153 239.031 139.895C239.526 139.863 240.021 139.831 240.516 139.798C241.01 139.766 241.505 139.734 242 139.702V141.833H232.002V140.234C233.108 140.202 233.836 139.928 234.185 139.411C234.535 138.894 234.666 138.28 234.578 137.57C234.491 136.859 234.345 136.213 234.142 135.632L232.614 131.078L221.263 131.369L219.735 136.553C219.531 137.328 219.342 137.941 219.167 138.394C219.022 138.846 218.847 139.346 218.643 139.895C219.225 139.863 219.793 139.831 220.346 139.798C220.928 139.766 221.495 139.734 222.048 139.702V141.833H213.884ZM221.917 129.286H232.002L228.903 120.032C228.583 119.031 228.248 118.046 227.899 117.077C227.578 116.076 227.258 115.074 226.938 114.073H226.851C226.56 114.978 226.254 115.882 225.934 116.786C225.643 117.691 225.337 118.611 225.017 119.548L221.917 129.286Z" fill="#7E7E7E"/>
<path d="M50.6674 153.536C50.5764 152.587 50.2763 151.851 49.7669 151.326C49.2667 150.801 48.6209 150.539 47.8296 150.539C47.3476 150.539 46.8928 150.655 46.4653 150.887C46.0469 151.109 45.6786 151.432 45.3602 151.856C45.0419 152.28 44.7918 152.789 44.6099 153.385C44.428 153.98 44.337 154.651 44.337 155.398C44.337 156.347 44.5007 157.185 44.8282 157.912C45.1556 158.638 45.5967 159.203 46.1515 159.607C46.7064 160.011 47.3203 160.213 47.9933 160.213C48.5845 160.213 49.1666 160.066 49.7396 159.774C50.3127 159.471 50.7811 159.037 51.1449 158.472L51.4996 158.79C51.1085 159.385 50.6856 159.844 50.2308 160.167C49.776 160.49 49.3213 160.707 48.8665 160.818C48.4208 160.939 48.0115 161 47.6386 161C46.9565 161 46.3289 160.864 45.7559 160.591C45.192 160.319 44.7008 159.94 44.2824 159.456C43.8732 158.961 43.5548 158.391 43.3274 157.745C43.1091 157.089 43 156.382 43 155.625C43 154.909 43.0955 154.212 43.2865 153.536C43.4866 152.86 43.7822 152.249 44.1733 151.704C44.5644 151.159 45.0555 150.725 45.6467 150.402C46.247 150.079 46.9428 149.918 47.7341 149.918C48.2435 149.918 48.7255 149.993 49.1803 150.145C49.6351 150.296 50.0716 150.528 50.49 150.841L50.4218 150.024H51.1585V153.536H50.6674Z" fill="#7E7E7E"/>
<path d="M53.7537 160.758V160.258C54.0993 160.238 54.3358 160.152 54.4631 160.001C54.5904 159.839 54.6587 159.622 54.6678 159.35C54.6859 159.067 54.695 158.749 54.695 158.396V151.856C54.695 151.654 54.6996 151.462 54.7087 151.28C54.7178 151.089 54.7269 150.917 54.736 150.766C54.5723 150.776 54.4085 150.786 54.2448 150.796C54.0811 150.806 53.9174 150.816 53.7537 150.826V150.16H56.8234V150.66C56.4868 150.67 56.2503 150.756 56.1139 150.917C55.9866 151.078 55.9138 151.296 55.8956 151.568C55.8865 151.841 55.882 152.158 55.882 152.522V159.017C55.882 159.289 55.8774 159.521 55.8683 159.713C55.8683 159.905 55.8592 160.066 55.8411 160.198L58.3923 160.152C58.9653 160.142 59.3973 159.94 59.6884 159.547C59.9885 159.153 60.1386 158.512 60.1386 157.624H60.6025L60.5206 160.758H53.7537Z" fill="#7E7E7E"/>
<path d="M63.8376 149.252L63.5374 148.813L65.2564 146.996C65.4383 146.824 65.593 146.733 65.7203 146.723C65.8567 146.713 65.9613 146.738 66.0341 146.799C66.1159 146.849 66.1614 146.89 66.1705 146.92C66.1978 146.961 66.2205 147.036 66.2387 147.147C66.266 147.248 66.2524 147.364 66.1978 147.495C66.1523 147.627 66.025 147.763 65.8158 147.904L63.8376 149.252ZM65.8022 150.66C65.4656 150.67 65.2292 150.756 65.0927 150.917C64.9654 151.078 64.8926 151.296 64.8744 151.568C64.8653 151.841 64.8608 152.158 64.8608 152.522V158.956C64.8608 159.229 64.8562 159.466 64.8471 159.668C64.8471 159.859 64.8381 160.021 64.8199 160.152C64.9836 160.142 65.1473 160.132 65.311 160.122C65.4747 160.112 65.6384 160.102 65.8022 160.092V160.758H62.7325V160.258C63.0781 160.238 63.3146 160.152 63.4419 160.001C63.5693 159.839 63.6375 159.622 63.6466 159.35C63.6648 159.067 63.6738 158.749 63.6738 158.396V151.856C63.6738 151.654 63.6784 151.462 63.6875 151.28C63.6966 151.089 63.7057 150.917 63.7148 150.766C63.5511 150.776 63.3873 150.786 63.2236 150.796C63.0599 150.806 62.8962 150.816 62.7325 150.826V150.16H65.8022V150.66Z" fill="#7E7E7E"/>
<path d="M75.8565 161L70.413 152.885C70.3311 152.764 70.2492 152.648 70.1674 152.537C70.0946 152.416 70.0173 152.295 69.9355 152.174H69.9218L69.9627 158.653C69.9627 158.906 69.9627 159.158 69.9627 159.41C69.9627 159.663 69.9536 159.91 69.9355 160.152C70.0992 160.142 70.2629 160.132 70.4266 160.122C70.5903 160.112 70.754 160.102 70.9178 160.092V160.758H68.4211V160.258C68.703 160.258 68.9031 160.193 69.0214 160.061C69.1487 159.92 69.2306 159.759 69.2669 159.577C69.3033 159.385 69.3215 159.214 69.3215 159.062L69.3352 151.78C69.3352 151.608 69.3352 151.437 69.3352 151.265C69.3352 151.094 69.3352 150.927 69.3352 150.766C69.1896 150.776 69.0396 150.786 68.8849 150.796C68.7303 150.806 68.5757 150.816 68.4211 150.826V150.16H70.0446L75.1607 157.76C75.279 157.932 75.3927 158.103 75.5018 158.275C75.62 158.446 75.7383 158.618 75.8565 158.79H75.8702L75.8838 151.856C75.8838 151.654 75.8884 151.462 75.8975 151.28C75.9065 151.089 75.9156 150.917 75.9247 150.766C75.761 150.776 75.5973 150.786 75.4336 150.796C75.2699 150.806 75.1062 150.816 74.9424 150.826V150.16H77.4528V150.66C77.1162 150.67 76.8843 150.756 76.757 150.917C76.6296 151.078 76.5614 151.296 76.5523 151.568C76.5432 151.841 76.5387 152.158 76.5387 152.522L76.5114 161H75.8565Z" fill="#7E7E7E"/>
<path d="M82.9471 150.66C82.6105 150.67 82.374 150.756 82.2376 150.917C82.1103 151.078 82.0375 151.296 82.0193 151.568C82.0102 151.841 82.0057 152.158 82.0057 152.522V158.956C82.0057 159.229 82.0011 159.466 81.992 159.668C81.992 159.859 81.9829 160.021 81.9648 160.152C82.1285 160.142 82.2922 160.132 82.4559 160.122C82.6196 160.112 82.7833 160.102 82.9471 160.092V160.758H79.8774V160.258C80.223 160.238 80.4595 160.152 80.5868 160.001C80.7141 159.839 80.7824 159.622 80.7915 159.35C80.8097 159.067 80.8187 158.749 80.8187 158.396V151.856C80.8187 151.654 80.8233 151.462 80.8324 151.28C80.8415 151.089 80.8506 150.917 80.8597 150.766C80.696 150.776 80.5322 150.786 80.3685 150.796C80.2048 150.806 80.0411 150.816 79.8774 150.826V150.16H82.9471V150.66Z" fill="#7E7E7E"/>
<path d="M92.9634 153.536C92.8724 152.587 92.5723 151.851 92.0629 151.326C91.5627 150.801 90.9169 150.539 90.1256 150.539C89.6436 150.539 89.1888 150.655 88.7613 150.887C88.3429 151.109 87.9746 151.432 87.6562 151.856C87.3379 152.28 87.0878 152.789 86.9059 153.385C86.724 153.98 86.633 154.651 86.633 155.398C86.633 156.347 86.7967 157.185 87.1242 157.912C87.4516 158.638 87.8927 159.203 88.4475 159.607C89.0023 160.011 89.6163 160.213 90.2893 160.213C90.8805 160.213 91.4626 160.066 92.0356 159.774C92.6086 159.471 93.0771 159.037 93.4409 158.472L93.7956 158.79C93.4045 159.385 92.9816 159.844 92.5268 160.167C92.072 160.49 91.6173 160.707 91.1625 160.818C90.7168 160.939 90.3075 161 89.9346 161C89.2525 161 88.6249 160.864 88.0519 160.591C87.488 160.319 86.9968 159.94 86.5784 159.456C86.1691 158.961 85.8508 158.391 85.6234 157.745C85.4051 157.089 85.296 156.382 85.296 155.625C85.296 154.909 85.3915 154.212 85.5825 153.536C85.7826 152.86 86.0782 152.249 86.4693 151.704C86.8604 151.159 87.3515 150.725 87.9427 150.402C88.543 150.079 89.2388 149.918 90.0301 149.918C90.5395 149.918 91.0215 149.993 91.4763 150.145C91.931 150.296 92.3676 150.528 92.786 150.841L92.7178 150.024H93.4545V153.536H92.9634Z" fill="#7E7E7E"/>
<path d="M95.0842 160.758V160.258C95.3571 160.258 95.5663 160.177 95.7118 160.016C95.8573 159.854 95.9756 159.632 96.0665 159.35C96.1666 159.067 96.2803 158.739 96.4076 158.366L99.218 149.872H99.5455L102.588 158.487C102.661 158.699 102.742 158.971 102.833 159.304C102.924 159.637 102.961 159.92 102.943 160.152C103.097 160.142 103.252 160.132 103.406 160.122C103.561 160.112 103.716 160.102 103.87 160.092V160.758H100.746V160.258C101.092 160.248 101.319 160.162 101.428 160.001C101.537 159.839 101.578 159.648 101.551 159.425C101.524 159.203 101.478 159.002 101.415 158.82L100.937 157.397L97.3899 157.488L96.9124 159.108C96.8487 159.35 96.7896 159.542 96.735 159.683C96.6895 159.824 96.635 159.981 96.5713 160.152C96.7532 160.142 96.9306 160.132 97.1034 160.122C97.2853 160.112 97.4626 160.102 97.6355 160.092V160.758H95.0842ZM97.5945 156.837H100.746L99.7774 153.945C99.6774 153.632 99.5728 153.324 99.4636 153.021C99.3636 152.709 99.2635 152.396 99.1635 152.083H99.1362C99.0452 152.365 98.9497 152.648 98.8497 152.931C98.7587 153.213 98.6632 153.501 98.5632 153.794L97.5945 156.837Z" fill="#7E7E7E"/>
<path d="M110.223 160.258C110.569 160.238 110.806 160.152 110.933 160.001C111.06 159.839 111.128 159.622 111.138 159.35C111.156 159.067 111.165 158.749 111.165 158.396V151.856C111.165 151.654 111.169 151.462 111.178 151.28C111.188 151.089 111.197 150.917 111.206 150.766C111.042 150.776 110.878 150.786 110.715 150.796C110.551 150.806 110.387 150.816 110.223 150.826V150.16L113.443 150.145C114.262 150.145 115.012 150.251 115.694 150.463C116.376 150.675 116.963 151.003 117.454 151.447C117.955 151.881 118.337 152.436 118.6 153.112C118.873 153.778 119.01 154.566 119.01 155.474C119.01 156.17 118.9 156.837 118.682 157.472C118.464 158.108 118.136 158.674 117.7 159.168C117.263 159.653 116.718 160.041 116.063 160.334C115.417 160.616 114.667 160.758 113.812 160.758H110.223V160.258ZM112.352 158.971C112.352 159.244 112.347 159.476 112.338 159.668C112.338 159.859 112.329 160.021 112.311 160.152C112.556 160.162 112.779 160.172 112.979 160.182C113.189 160.182 113.361 160.182 113.498 160.182C113.643 160.182 113.734 160.182 113.771 160.182C114.362 160.182 114.894 160.061 115.367 159.819C115.849 159.577 116.258 159.244 116.595 158.82C116.94 158.386 117.204 157.881 117.386 157.306C117.577 156.721 117.673 156.09 117.673 155.413C117.673 154.455 117.513 153.627 117.195 152.931C116.886 152.224 116.408 151.679 115.763 151.295C115.117 150.902 114.294 150.705 113.293 150.705C112.957 150.705 112.72 150.781 112.584 150.932C112.456 151.084 112.384 151.296 112.365 151.568C112.356 151.841 112.352 152.158 112.352 152.522V158.971Z" fill="#7E7E7E"/>
<path d="M126.095 156.837C126.095 156.393 126.041 156.075 125.931 155.883C125.822 155.691 125.649 155.575 125.413 155.535C125.176 155.494 124.863 155.484 124.472 155.504L123.476 155.55V159.017C123.476 159.289 123.471 159.521 123.462 159.713C123.462 159.905 123.453 160.066 123.435 160.198L126.041 160.152C126.441 160.142 126.786 160.071 127.077 159.94C127.368 159.799 127.596 159.557 127.76 159.214C127.923 158.87 128.005 158.401 128.005 157.806H128.469L128.387 160.758H121.347V160.258C121.693 160.238 121.929 160.152 122.057 160.001C122.184 159.839 122.252 159.622 122.261 159.35C122.28 159.067 122.289 158.749 122.289 158.396V151.856C122.289 151.654 122.293 151.462 122.302 151.28C122.311 151.089 122.321 150.917 122.33 150.766C122.166 150.776 122.002 150.786 121.838 150.796C121.675 150.806 121.511 150.816 121.347 150.826V150.16H127.91L127.978 152.809H127.528C127.528 152.214 127.446 151.765 127.282 151.462C127.118 151.149 126.895 150.942 126.614 150.841C126.341 150.73 126.031 150.68 125.686 150.69L124.513 150.72C124.176 150.73 123.935 150.801 123.789 150.932C123.644 151.063 123.553 151.26 123.517 151.523C123.489 151.775 123.476 152.108 123.476 152.522V154.944L126.041 154.959L125.945 153.657H126.545V156.837H126.095Z" fill="#7E7E7E"/>
<path d="M130.926 160.758V160.258C131.271 160.238 131.508 160.152 131.635 160.001C131.762 159.839 131.831 159.622 131.84 159.35C131.858 159.067 131.867 158.749 131.867 158.396V151.856C131.867 151.654 131.872 151.462 131.881 151.28C131.89 151.089 131.899 150.917 131.908 150.766C131.744 150.776 131.581 150.786 131.417 150.796C131.253 150.806 131.089 150.816 130.926 150.826V150.16C131.435 150.15 131.949 150.14 132.467 150.13C132.995 150.12 133.522 150.125 134.05 150.145C134.932 150.155 135.642 150.271 136.178 150.493C136.724 150.705 137.124 151.013 137.379 151.417C137.633 151.81 137.761 152.29 137.761 152.855C137.77 153.249 137.702 153.652 137.556 154.066C137.42 154.47 137.165 154.833 136.792 155.156C136.428 155.479 135.901 155.721 135.21 155.883C135.391 156.024 135.551 156.206 135.687 156.428C135.824 156.65 135.978 156.907 136.151 157.2L137.079 158.82C137.233 159.092 137.383 159.34 137.529 159.562C137.674 159.774 137.843 159.945 138.034 160.076C138.225 160.198 138.461 160.258 138.743 160.258V160.758H137.024C136.76 160.495 136.538 160.233 136.356 159.971C136.183 159.708 136.001 159.41 135.81 159.077L134.896 157.457C134.778 157.245 134.641 157.003 134.487 156.731C134.341 156.448 134.173 156.211 133.982 156.019C133.836 156.029 133.682 156.034 133.518 156.034C133.363 156.034 133.209 156.029 133.054 156.019V158.956C133.054 159.229 133.049 159.466 133.04 159.668C133.04 159.859 133.031 160.021 133.013 160.152C133.122 160.142 133.231 160.137 133.34 160.137C133.45 160.127 133.559 160.117 133.668 160.107C133.777 160.097 133.886 160.092 133.995 160.092V160.758H130.926ZM133.9 155.459C134.4 155.439 134.837 155.348 135.21 155.186C135.592 155.025 135.892 154.768 136.11 154.414C136.328 154.061 136.437 153.597 136.437 153.021C136.437 152.638 136.387 152.305 136.287 152.022C136.196 151.729 136.051 151.487 135.851 151.295C135.651 151.104 135.396 150.962 135.087 150.872C134.778 150.771 134.414 150.72 133.995 150.72C133.659 150.72 133.422 150.796 133.286 150.947C133.159 151.099 133.086 151.311 133.068 151.583C133.059 151.846 133.054 152.158 133.054 152.522V155.429C133.2 155.439 133.336 155.449 133.463 155.459C133.6 155.469 133.745 155.469 133.9 155.459Z" fill="#7E7E7E"/>
<path d="M145.727 160.909C145.327 159.9 144.922 158.896 144.513 157.896C144.104 156.887 143.704 155.868 143.313 154.838C143.185 154.515 143.058 154.192 142.931 153.869C142.812 153.536 142.694 153.203 142.576 152.87C142.467 152.537 142.353 152.204 142.235 151.871C142.235 151.982 142.23 152.093 142.221 152.204C142.221 152.315 142.221 152.426 142.221 152.537C142.212 152.9 142.198 153.339 142.18 153.854C142.171 154.359 142.157 154.904 142.139 155.489C142.121 156.064 142.107 156.645 142.098 157.23C142.089 157.806 142.08 158.351 142.071 158.865C142.062 159.087 142.053 159.309 142.044 159.531C142.044 159.754 142.035 159.96 142.016 160.152C142.189 160.142 142.358 160.132 142.521 160.122C142.694 160.112 142.867 160.102 143.04 160.092V160.758H140.434V160.258C140.716 160.248 140.921 160.182 141.048 160.061C141.184 159.93 141.271 159.759 141.307 159.547C141.343 159.335 141.366 159.108 141.375 158.865L141.634 151.962C141.644 151.76 141.648 151.558 141.648 151.356C141.657 151.154 141.666 150.957 141.675 150.766C141.512 150.776 141.348 150.786 141.184 150.796C141.021 150.796 140.857 150.801 140.693 150.811V150.16H142.78L145.127 156.17C145.245 156.473 145.359 156.776 145.468 157.079C145.586 157.382 145.705 157.684 145.823 157.987C145.95 158.29 146.073 158.598 146.191 158.911H146.219C146.319 158.638 146.437 158.315 146.573 157.942C146.71 157.558 146.823 157.23 146.914 156.958C147.315 155.847 147.728 154.737 148.156 153.627C148.592 152.507 149.02 151.351 149.438 150.16H151.457V150.66C151.23 150.65 151.044 150.7 150.898 150.811C150.753 150.912 150.648 151.084 150.584 151.326C150.521 151.568 150.498 151.896 150.516 152.31L150.871 159.198C150.889 159.37 150.898 159.536 150.898 159.698C150.898 159.859 150.898 160.006 150.898 160.137C151.062 160.127 151.226 160.122 151.389 160.122C151.562 160.112 151.73 160.102 151.894 160.092V160.758H148.838V160.258C149.12 160.248 149.329 160.172 149.466 160.031C149.602 159.89 149.684 159.688 149.711 159.425C149.748 159.163 149.757 158.84 149.738 158.457L149.466 153.46C149.456 153.299 149.447 153.137 149.438 152.976C149.429 152.815 149.42 152.653 149.411 152.492C149.402 152.33 149.393 152.169 149.384 152.007C149.356 152.078 149.325 152.153 149.288 152.234C149.261 152.315 149.234 152.401 149.206 152.492L146.137 160.909H145.727Z" fill="#7E7E7E"/>
<path d="M153.367 160.758V160.258C153.64 160.258 153.849 160.177 153.995 160.016C154.14 159.854 154.258 159.632 154.349 159.35C154.449 159.067 154.563 158.739 154.69 158.366L157.501 149.872H157.828L160.871 158.487C160.943 158.699 161.025 158.971 161.116 159.304C161.207 159.637 161.244 159.92 161.225 160.152C161.38 160.142 161.535 160.132 161.689 160.122C161.844 160.112 161.999 160.102 162.153 160.092V160.758H159.029V160.258C159.375 160.248 159.602 160.162 159.711 160.001C159.82 159.839 159.861 159.648 159.834 159.425C159.807 159.203 159.761 159.002 159.697 158.82L159.22 157.397L155.673 157.488L155.195 159.108C155.132 159.35 155.072 159.542 155.018 159.683C154.972 159.824 154.918 159.981 154.854 160.152C155.036 160.142 155.213 160.132 155.386 160.122C155.568 160.112 155.745 160.102 155.918 160.092V160.758H153.367ZM155.877 156.837H159.029L158.06 153.945C157.96 153.632 157.856 153.324 157.746 153.021C157.646 152.709 157.546 152.396 157.446 152.083H157.419C157.328 152.365 157.233 152.648 157.133 152.931C157.042 153.213 156.946 153.501 156.846 153.794L155.877 156.837Z" fill="#7E7E7E"/>
<path d="M170.647 153.354C170.638 152.759 170.583 152.264 170.483 151.871C170.383 151.477 170.206 151.184 169.951 150.993C169.705 150.791 169.346 150.695 168.873 150.705H167.714L167.7 158.956C167.7 159.229 167.695 159.466 167.686 159.668C167.686 159.859 167.677 160.021 167.659 160.152C167.85 160.142 168.036 160.132 168.218 160.122C168.409 160.112 168.6 160.102 168.791 160.092V160.758H165.585V160.258C165.931 160.238 166.163 160.147 166.281 159.986C166.408 159.824 166.477 159.607 166.486 159.335C166.504 159.052 166.513 158.739 166.513 158.396L166.527 150.72L165.121 150.735C164.548 150.735 164.144 150.947 163.907 151.371C163.671 151.795 163.552 152.456 163.552 153.354H163.048L163.129 150.16H171.083L171.165 153.354H170.647Z" fill="#7E7E7E"/>
<path d="M178.05 161C177.186 161 176.445 160.839 175.826 160.516C175.208 160.193 174.703 159.764 174.312 159.229C173.93 158.684 173.648 158.083 173.466 157.427C173.284 156.771 173.193 156.115 173.193 155.459C173.193 154.823 173.289 154.182 173.48 153.536C173.671 152.88 173.962 152.28 174.353 151.735C174.753 151.19 175.249 150.75 175.84 150.417C176.44 150.084 177.141 149.918 177.941 149.918C178.778 149.918 179.501 150.084 180.11 150.417C180.72 150.75 181.22 151.195 181.611 151.75C182.011 152.295 182.307 152.89 182.498 153.536C182.698 154.182 182.798 154.823 182.798 155.459C182.798 156.085 182.702 156.726 182.511 157.382C182.32 158.028 182.025 158.628 181.625 159.183C181.233 159.728 180.742 160.167 180.151 160.5C179.56 160.833 178.86 161 178.05 161ZM178.077 160.379C178.641 160.379 179.132 160.248 179.551 159.986C179.969 159.713 180.315 159.355 180.588 158.911C180.87 158.457 181.079 157.957 181.215 157.412C181.361 156.857 181.434 156.302 181.434 155.747C181.434 155.121 181.356 154.5 181.202 153.884C181.047 153.269 180.82 152.709 180.52 152.204C180.219 151.699 179.846 151.295 179.401 150.993C178.964 150.68 178.464 150.523 177.9 150.523C177.336 150.523 176.84 150.66 176.413 150.932C175.995 151.205 175.644 151.568 175.362 152.022C175.09 152.466 174.88 152.966 174.735 153.521C174.598 154.066 174.53 154.621 174.53 155.186C174.53 155.742 174.598 156.322 174.735 156.927C174.88 157.533 175.099 158.098 175.39 158.623C175.681 159.148 176.049 159.572 176.495 159.895C176.94 160.218 177.468 160.379 178.077 160.379Z" fill="#7E7E7E"/>
<path d="M185.119 160.758V160.258C185.465 160.238 185.701 160.152 185.829 160.001C185.956 159.839 186.024 159.622 186.033 159.35C186.052 159.067 186.061 158.749 186.061 158.396V151.856C186.061 151.654 186.065 151.462 186.074 151.28C186.083 151.089 186.093 150.917 186.102 150.766C185.938 150.776 185.774 150.786 185.61 150.796C185.447 150.806 185.283 150.816 185.119 150.826V150.16H188.189V150.66C187.852 150.67 187.616 150.756 187.48 150.917C187.352 151.078 187.279 151.296 187.261 151.568C187.252 151.841 187.248 152.158 187.248 152.522V159.017C187.248 159.289 187.243 159.521 187.234 159.713C187.234 159.905 187.225 160.066 187.207 160.198L189.758 160.152C190.331 160.142 190.763 159.94 191.054 159.547C191.354 159.153 191.504 158.512 191.504 157.624H191.968L191.886 160.758H185.119Z" fill="#7E7E7E"/>
<path d="M197.911 149.252L197.611 148.813L199.33 146.996C199.512 146.824 199.666 146.733 199.794 146.723C199.93 146.713 200.035 146.738 200.107 146.799C200.189 146.849 200.235 146.89 200.244 146.92C200.271 146.961 200.294 147.036 200.312 147.147C200.339 147.248 200.326 147.364 200.271 147.495C200.226 147.627 200.098 147.763 199.889 147.904L197.911 149.252ZM198.566 161C197.702 161 196.96 160.839 196.342 160.516C195.724 160.193 195.219 159.764 194.828 159.229C194.446 158.684 194.164 158.083 193.982 157.427C193.8 156.771 193.709 156.115 193.709 155.459C193.709 154.823 193.804 154.182 193.995 153.536C194.186 152.88 194.477 152.28 194.869 151.735C195.269 151.19 195.764 150.75 196.356 150.417C196.956 150.084 197.656 149.918 198.457 149.918C199.293 149.918 200.017 150.084 200.626 150.417C201.235 150.75 201.736 151.195 202.127 151.75C202.527 152.295 202.822 152.89 203.013 153.536C203.214 154.182 203.314 154.823 203.314 155.459C203.314 156.085 203.218 156.726 203.027 157.382C202.836 158.028 202.54 158.628 202.14 159.183C201.749 159.728 201.258 160.167 200.667 160.5C200.076 160.833 199.375 161 198.566 161ZM198.593 160.379C199.157 160.379 199.648 160.248 200.067 159.986C200.485 159.713 200.831 159.355 201.103 158.911C201.385 158.457 201.595 157.957 201.731 157.412C201.877 156.857 201.949 156.302 201.949 155.747C201.949 155.121 201.872 154.5 201.717 153.884C201.563 153.269 201.335 152.709 201.035 152.204C200.735 151.699 200.362 151.295 199.916 150.993C199.48 150.68 198.98 150.523 198.416 150.523C197.852 150.523 197.356 150.66 196.929 150.932C196.51 151.205 196.16 151.568 195.878 152.022C195.605 152.466 195.396 152.966 195.251 153.521C195.114 154.066 195.046 154.621 195.046 155.186C195.046 155.742 195.114 156.322 195.251 156.927C195.396 157.533 195.614 158.098 195.905 158.623C196.196 159.148 196.565 159.572 197.01 159.895C197.456 160.218 197.984 160.379 198.593 160.379Z" fill="#7E7E7E"/>
<path d="M210.284 161C209.375 161 208.57 160.788 207.87 160.364C207.169 159.94 206.624 159.33 206.232 158.532C205.841 157.735 205.646 156.786 205.646 155.686C205.646 154.969 205.741 154.273 205.932 153.597C206.132 152.91 206.428 152.29 206.819 151.735C207.219 151.179 207.715 150.74 208.306 150.417C208.906 150.084 209.602 149.918 210.394 149.918C210.721 149.918 211.053 149.953 211.389 150.024C211.726 150.084 212.049 150.18 212.358 150.311C212.676 150.433 212.963 150.579 213.218 150.75L213.163 150.024H213.913V153.491H213.422C213.386 152.855 213.231 152.32 212.958 151.886C212.695 151.442 212.349 151.104 211.922 150.872C211.494 150.639 211.017 150.523 210.489 150.523C210.007 150.523 209.552 150.644 209.125 150.887C208.706 151.119 208.333 151.452 208.006 151.886C207.688 152.31 207.438 152.815 207.256 153.4C207.074 153.985 206.983 154.631 206.983 155.338C206.983 156.287 207.137 157.134 207.447 157.881C207.756 158.628 208.183 159.214 208.729 159.637C209.284 160.061 209.921 160.273 210.639 160.273C210.885 160.273 211.139 160.248 211.403 160.198C211.676 160.147 211.944 160.066 212.208 159.955C212.481 159.834 212.736 159.688 212.972 159.516V157.669C212.972 157.427 212.972 157.185 212.972 156.943C212.972 156.69 212.972 156.443 212.972 156.201C212.817 156.211 212.658 156.221 212.495 156.231C212.331 156.241 212.172 156.251 212.017 156.261V155.595H215.1V156.095C214.846 156.095 214.65 156.17 214.514 156.322C214.377 156.463 214.282 156.64 214.227 156.852C214.173 157.054 214.141 157.255 214.132 157.457C214.123 157.649 214.118 157.795 214.118 157.896V160.213H213.75C213.604 160.213 213.404 160.243 213.149 160.304C212.895 160.364 212.604 160.465 212.276 160.606C211.994 160.727 211.667 160.823 211.294 160.894C210.921 160.965 210.585 161 210.284 161Z" fill="#7E7E7E"/>
<path d="M220.295 150.66C219.958 150.67 219.722 150.756 219.585 150.917C219.458 151.078 219.385 151.296 219.367 151.568C219.358 151.841 219.353 152.158 219.353 152.522V158.956C219.353 159.229 219.349 159.466 219.34 159.668C219.34 159.859 219.331 160.021 219.313 160.152C219.476 160.142 219.64 160.132 219.804 160.122C219.967 160.112 220.131 160.102 220.295 160.092V160.758H217.225V160.258C217.571 160.238 217.807 160.152 217.935 160.001C218.062 159.839 218.13 159.622 218.139 159.35C218.157 159.067 218.167 158.749 218.167 158.396V151.856C218.167 151.654 218.171 151.462 218.18 151.28C218.189 151.089 218.198 150.917 218.207 150.766C218.044 150.776 217.88 150.786 217.716 150.796C217.553 150.806 217.389 150.816 217.225 150.826V150.16H220.295V150.66Z" fill="#7E7E7E"/>
<path d="M230.311 153.536C230.22 152.587 229.92 151.851 229.411 151.326C228.91 150.801 228.265 150.539 227.473 150.539C226.991 150.539 226.537 150.655 226.109 150.887C225.691 151.109 225.322 151.432 225.004 151.856C224.686 152.28 224.436 152.789 224.254 153.385C224.072 153.98 223.981 154.651 223.981 155.398C223.981 156.347 224.145 157.185 224.472 157.912C224.799 158.638 225.241 159.203 225.795 159.607C226.35 160.011 226.964 160.213 227.637 160.213C228.228 160.213 228.81 160.066 229.383 159.774C229.956 159.471 230.425 159.037 230.789 158.472L231.143 158.79C230.752 159.385 230.329 159.844 229.875 160.167C229.42 160.49 228.965 160.707 228.51 160.818C228.065 160.939 227.655 161 227.282 161C226.6 161 225.973 160.864 225.4 160.591C224.836 160.319 224.345 159.94 223.926 159.456C223.517 158.961 223.199 158.391 222.971 157.745C222.753 157.089 222.644 156.382 222.644 155.625C222.644 154.909 222.739 154.212 222.93 153.536C223.13 152.86 223.426 152.249 223.817 151.704C224.208 151.159 224.699 150.725 225.291 150.402C225.891 150.079 226.587 149.918 227.378 149.918C227.887 149.918 228.369 149.993 228.824 150.145C229.279 150.296 229.715 150.528 230.134 150.841L230.066 150.024H230.802V153.536H230.311Z" fill="#7E7E7E"/>
<path d="M232.432 160.758V160.258C232.705 160.258 232.914 160.177 233.06 160.016C233.205 159.854 233.323 159.632 233.414 159.35C233.514 159.067 233.628 158.739 233.755 158.366L236.566 149.872H236.893L239.936 158.487C240.008 158.699 240.09 158.971 240.181 159.304C240.272 159.637 240.309 159.92 240.29 160.152C240.445 160.142 240.6 160.132 240.754 160.122C240.909 160.112 241.063 160.102 241.218 160.092V160.758H238.094V160.258C238.439 160.248 238.667 160.162 238.776 160.001C238.885 159.839 238.926 159.648 238.899 159.425C238.872 159.203 238.826 159.002 238.762 158.82L238.285 157.397L234.738 157.488L234.26 159.108C234.197 159.35 234.137 159.542 234.083 159.683C234.037 159.824 233.983 159.981 233.919 160.152C234.101 160.142 234.278 160.132 234.451 160.122C234.633 160.112 234.81 160.102 234.983 160.092V160.758H232.432ZM234.942 156.837H238.094L237.125 153.945C237.025 153.632 236.921 153.324 236.811 153.021C236.711 152.709 236.611 152.396 236.511 152.083H236.484C236.393 152.365 236.298 152.648 236.197 152.931C236.107 153.213 236.011 153.501 235.911 153.794L234.942 156.837Z" fill="#7E7E7E"/>
</svg>
