<svg width="285" height="268" viewBox="0 0 285 268" fill="none" xmlns="http://www.w3.org/2000/svg">
<rect x="0.5" y="0.5" width="284" height="267" stroke="#7E7E7E"/>
<path d="M173.428 97.6719C182.309 106.788 186.753 118.766 186.753 133.609C186.753 147.153 182.309 158.934 173.428 168.959C164.547 178.988 153.297 184 139.681 184C126.194 184 115.041 178.987 106.225 168.963C97.4062 158.934 93 147.153 93 133.609C93 118.766 97.3438 106.788 106.034 97.6719C114.719 88.5594 125.938 84 139.681 84C153.297 84 164.547 88.5594 173.428 97.6719ZM156.409 118.569C156.022 114.534 155.244 110.594 154.075 106.753C152.909 102.913 151.125 99.95 148.728 97.8656C146.325 95.7844 143.312 94.7406 139.681 94.7406C136.05 94.7406 133.069 95.75 130.734 97.7688C128.4 99.7906 126.681 102.75 125.581 106.656C124.481 110.562 123.734 114.469 123.344 118.375C122.956 122.281 122.759 127.034 122.759 132.631C122.759 136.147 122.825 139.109 122.953 141.519C123.078 143.928 123.306 146.859 123.634 150.306C123.956 153.756 124.478 156.653 125.191 158.997C125.903 161.341 126.872 163.653 128.109 165.931C129.341 168.209 130.928 169.934 132.872 171.106C134.816 172.278 137.084 172.863 139.681 172.863C142.272 172.863 144.572 172.275 146.588 171.106C148.597 169.934 150.216 168.209 151.45 165.931C152.681 163.656 153.688 161.344 154.466 159C155.244 156.656 155.828 153.759 156.216 150.309C156.606 146.859 156.831 143.897 156.9 141.422C156.963 138.95 156.994 136.019 156.994 132.634C156.994 127.294 156.8 122.606 156.409 118.569Z" fill="#7E7E7E"/>
</svg>
