<svg width="285" height="268" viewBox="0 0 285 268" fill="none" xmlns="http://www.w3.org/2000/svg">
<rect x="0.5" y="0.5" width="284" height="267" stroke="#7E7E7E"/>
<path d="M142.816 86.1441C142.61 86.2386 142.291 86.4845 142.103 86.6926C141.784 87.033 141.766 89.2081 141.747 133.768L141.728 180.485L142.122 181.147C142.853 182.32 144.298 182.547 145.423 181.658C146.398 180.882 146.38 181.147 146.473 169.666L146.567 158.905L147.318 159.567C148.912 161.004 152.476 163.16 154.745 164.068C156.827 164.881 158.834 165.354 161.498 165.619C169.113 166.356 176.222 164.144 182.092 159.207C187.269 154.876 189.914 150.999 191.677 145.211C192.577 142.204 192.709 141.107 192.709 136.284C192.69 132.085 192.671 131.745 192.183 129.929C190.608 123.952 188.451 119.886 184.362 115.309C181.961 112.585 177.347 109.408 173.633 107.914C169.244 106.155 164.048 105.587 159.491 106.382C155.871 107.025 154.164 107.649 151.069 109.483C150.037 110.089 148.949 110.732 148.668 110.902C148.368 111.091 147.749 111.507 147.299 111.848L146.473 112.472V99.9888V87.5247L146.023 86.9763C145.348 86.163 143.773 85.7658 142.816 86.1441ZM168.1 112.472C171.795 113.209 174.74 114.685 178.266 117.522C180.31 119.167 180.667 119.508 182.055 121.342C184.043 123.971 185.206 126.241 186.106 129.38C187.007 132.444 187.175 133.485 187.307 136.473C187.382 138.61 187.344 139.329 187.007 140.956C186.031 145.722 183.931 149.637 180.611 152.89C177.178 156.276 173.464 158.243 168.4 159.321C164.086 160.247 160.71 159.964 156.602 158.28C152.682 156.673 150.018 154.554 147.355 150.866L146.473 149.675V144.228V138.762L147.111 138.875C148.612 139.121 150.225 138.497 150.225 137.684C150.225 137.532 149.981 137.135 149.681 136.832C149.174 136.322 149.024 136.284 147.805 136.284H146.473V128.473L146.492 120.661L148.124 119.035C149.643 117.541 152.194 115.63 154.164 114.495C157.033 112.869 161.648 111.829 165.136 112.037C165.755 112.075 167.087 112.264 168.1 112.472Z" fill="#7E7E7E"/>
<path d="M163.729 114.533L163.261 114.893L163.204 124.652C163.148 134.336 163.148 134.43 162.754 134.979C162.454 135.376 162.323 135.887 162.266 136.776L162.191 138.005L162.942 138.724C164.255 139.991 165.53 139.934 166.824 138.554C167.312 138.043 167.387 137.835 167.368 136.908C167.368 135.925 167.312 135.811 166.562 135.111L165.755 134.355L165.793 124.69L165.811 115.044L165.399 114.609C164.892 114.061 164.367 114.042 163.729 114.533Z" fill="#7E7E7E"/>
<path d="M152.719 118.13C151.894 118.47 151.631 119.717 152.269 120.284C152.738 120.718 153.695 120.718 154.164 120.302C154.651 119.849 154.651 118.81 154.164 118.319C153.77 117.922 153.376 117.865 152.719 118.13Z" fill="#7E7E7E"/>
<path d="M174.777 118.129C174.608 118.224 174.364 118.564 174.233 118.885C174.027 119.414 174.027 119.527 174.364 119.981C175.04 120.869 176.296 120.34 176.296 119.169C176.296 118.224 175.527 117.695 174.777 118.129Z" fill="#7E7E7E"/>
<path d="M175.565 126.657C171.963 130.194 168.118 134.128 167.875 134.582C167.762 134.771 167.799 135.111 167.95 135.489C168.175 136.019 168.306 136.095 168.944 136.095C169.713 136.095 170.257 135.754 171.532 134.487C171.963 134.071 173.633 132.444 175.283 130.875C181.098 125.295 181.173 125.219 181.173 124.69C181.173 124.047 180.366 123.423 179.541 123.423C178.941 123.423 178.566 123.725 175.565 126.657Z" fill="#7E7E7E"/>
<path d="M178.791 136.608C178.303 136.703 177.797 137.345 177.797 137.817C177.797 138.006 178.022 138.327 178.322 138.554C178.81 138.97 178.941 138.97 181.886 138.875C184.455 138.8 184.999 138.724 185.318 138.441C185.787 138.025 185.768 137.326 185.3 136.854C184.962 136.514 184.699 136.476 182.073 136.495C180.498 136.514 179.016 136.571 178.791 136.608Z" fill="#7E7E7E"/>
<path d="M164.292 140.445C164.067 140.596 163.992 141.353 163.954 144.984C163.917 148.143 163.954 149.448 164.123 149.637C164.442 150.034 165.361 149.977 165.605 149.542C165.811 149.145 165.886 141.088 165.68 140.558C165.549 140.218 164.742 140.161 164.292 140.445Z" fill="#7E7E7E"/>
<path d="M152.663 152.552C152.457 152.76 152.288 153.1 152.288 153.289C152.288 153.685 153.188 154.441 153.639 154.441C154.089 154.441 154.539 153.799 154.539 153.138C154.539 152.665 154.426 152.495 154.051 152.363C153.357 152.099 153.076 152.136 152.663 152.552Z" fill="#7E7E7E"/>
<path d="M174.458 152.586C174.327 152.719 174.233 153.135 174.233 153.533C174.233 154.119 174.327 154.308 174.683 154.46C175.321 154.762 175.996 154.535 176.259 153.968C176.559 153.305 176.54 153.173 176.109 152.738C175.696 152.322 174.814 152.227 174.458 152.586Z" fill="#7E7E7E"/>
<path d="M163.917 155.008C162.848 156.086 163.429 158.224 164.799 158.224C165.342 158.224 165.605 157.694 165.605 156.578C165.605 155.103 164.686 154.233 163.917 155.008Z" fill="#7E7E7E"/>
<path d="M134.281 87.6951C128.392 88.2247 122.69 89.5486 118.057 91.44C111.867 93.9933 106.747 97.6058 102.414 102.523C100.276 104.944 99.0002 106.798 97.8373 109.162C96.8245 111.224 96.7307 111.488 96.0179 113.871C95.3614 116.084 95.2864 117.579 95.7928 118.411L96.1492 118.978L95.3802 119.375C93.2419 120.472 93.2232 124.142 95.3614 125.22C95.7741 125.428 96.1492 125.617 96.1867 125.636C96.2055 125.655 95.9992 125.995 95.6803 126.392C94.086 128.435 94.5361 131.31 96.6744 132.974L97.4247 133.542L96.9745 134.449C96.5243 135.395 96.243 137.513 96.4493 138.402C96.6369 139.14 97.4247 139.878 98.0436 139.878H98.6063L98.7751 141.712C98.8877 142.734 98.9252 143.623 98.8877 143.698C98.8502 143.793 98.3625 143.849 97.8186 143.849C96.3743 143.849 95.8304 144.322 95.8304 145.571C95.8304 146.554 96.7119 148.654 97.1808 148.805C97.3309 148.862 97.2371 149.089 96.9182 149.542C96.1117 150.621 95.1364 152.777 94.8925 153.987C94.1985 157.524 97.2371 161.628 100.876 162.12C101.72 162.233 101.757 162.271 102.245 163.293C102.864 164.617 105.584 167.605 107.722 169.288C111.08 171.936 116.106 174.735 120.27 176.267C122.54 177.118 125.841 177.988 128.598 178.461C130.549 178.802 136.664 179.407 138.145 179.407H138.783V177.894V176.381H136.776C128.617 176.381 119.501 173.487 111.774 168.475C109.054 166.697 107.403 165.222 105.828 163.122C105.621 162.858 107.047 162.839 120.364 162.895C128.486 162.933 135.951 162.971 136.982 163.009L138.821 163.066L138.708 162.101C138.652 161.59 138.596 160.891 138.596 160.569V159.983L120.176 159.945C99.4879 159.907 101.082 160.021 99.3941 158.489C97.5185 156.786 97.4247 154.309 99.1503 153.117L99.8443 152.644L113.161 152.493C120.495 152.417 129.255 152.379 132.65 152.417L138.783 152.474V149.202V145.949L138.089 145.76C136.514 145.306 134.844 145.684 134.432 146.573C134.188 147.14 134 147.197 133.831 146.781C133.775 146.611 133.287 146.27 132.743 146.025C130.924 145.173 128.654 145.552 127.735 146.857C127.51 147.178 127.248 147.443 127.154 147.443C126.816 147.443 122.352 144.795 121.527 144.114C119.726 142.601 117.382 141.901 114.174 141.882C112.636 141.864 111.961 141.788 111.961 141.656C111.961 141.334 116.444 141.126 119.407 141.296C122.765 141.485 123.027 141.656 125.522 145.381C125.897 145.949 126.404 146.611 126.648 146.838L127.079 147.254L128.017 146.081C129.386 144.36 129.836 144.171 132.124 144.322C134.113 144.474 134.319 144.474 137.039 144.379L138.783 144.322V143.377C138.783 142.847 138.727 142.223 138.652 141.977C138.539 141.561 138.464 141.542 137.545 141.637C136.982 141.693 136.345 141.882 136.12 142.034C135.594 142.412 134.619 142.412 133.925 142.053C133.625 141.901 132.762 141.561 132.012 141.296C131.243 141.012 130.887 140.842 131.187 140.899C131.506 140.956 133.325 141.069 135.276 141.145L138.783 141.258V140.161V139.064L138.089 139.178C137.114 139.329 114.925 139.348 107.553 139.216C104.252 139.14 101.345 139.008 101.082 138.913C100.82 138.818 100.238 138.27 99.788 137.703C99.3378 137.135 98.8877 136.662 98.7939 136.662C98.6814 136.662 99.3941 135.187 99.863 134.431C99.8818 134.412 100.951 134.884 102.226 135.509C104.533 136.606 107.853 137.797 108.604 137.797C109.279 137.797 115.075 135.736 117.476 134.657L119.745 133.617L121.808 134.279C122.952 134.639 124.922 135.244 126.216 135.603C127.51 135.963 129.405 136.53 130.455 136.851C132.256 137.438 132.368 137.457 132.818 137.154C133.325 136.814 135.782 133.466 136.307 132.388C136.664 131.688 136.926 131.593 137.283 132.028C137.414 132.18 137.62 132.312 137.751 132.312C137.883 132.312 138.183 132.52 138.427 132.766L138.877 133.22L138.821 129.57L138.764 125.919L138.07 125.825C136.739 125.598 110.948 125.655 110.873 125.863C110.742 126.279 108.791 126.071 106.672 125.409C102.433 124.104 101.832 123.896 101.832 123.782C101.832 123.555 113.855 123.404 126.347 123.461L138.764 123.517L138.727 122.156L138.689 120.775H121.996C103.727 120.775 104.233 120.794 101.701 119.64C98.5126 118.184 98.0624 117.049 99.3191 113.626C100.857 109.484 102.677 106.571 105.846 103.242C110.554 98.2678 116.631 94.6931 124.115 92.4802C127.754 91.4211 133.606 90.5132 136.907 90.5132H138.783V89.1136C138.783 88.1679 138.708 87.6951 138.558 87.6384C138.164 87.487 136.195 87.5249 134.281 87.6951ZM99.094 121.607L100.557 122.231L99.6567 122.383C99.1503 122.458 98.4375 122.666 98.0436 122.874C97.1621 123.328 96.862 123.328 96.3931 122.855C95.9241 122.383 96.0742 122.004 96.937 121.437C97.3121 121.191 97.6122 120.983 97.631 120.983C97.631 120.964 98.3062 121.248 99.094 121.607ZM135.632 129.797C133.4 133.409 132.143 135.338 131.974 135.338C131.881 135.338 129.761 134.695 127.285 133.92C124.809 133.144 122.652 132.501 122.484 132.482C122.315 132.482 122.559 132.369 123.027 132.237C123.496 132.104 124.209 131.839 124.622 131.65C126.047 131.026 131.187 129.286 131.618 129.286C131.843 129.286 132.087 129.154 132.143 129.002C132.237 128.775 132.593 128.719 133.981 128.756C135.013 128.775 135.838 128.7 136.063 128.567C136.27 128.454 136.457 128.34 136.495 128.34C136.514 128.34 136.138 129.002 135.632 129.797ZM125.653 129.286C124.772 129.608 123.421 130.099 122.652 130.421C121.883 130.723 120.27 131.348 119.089 131.82C117.907 132.274 115.093 133.428 112.843 134.393L108.754 136.133L107.553 135.754C105.959 135.225 99.3191 132.028 98.3625 131.348C97.9311 131.045 97.4434 130.534 97.2559 130.213C96.937 129.664 96.937 129.608 97.2183 129.324C97.4997 129.04 98.8877 129.002 112.017 128.908C119.989 128.851 126.666 128.794 126.873 128.775C127.079 128.738 126.535 128.983 125.653 129.286ZM108.454 141.466C109.035 141.75 109.148 141.901 109.148 142.393V142.979L108.622 142.469C108.322 142.185 107.797 141.864 107.441 141.769C106.578 141.523 105.115 141.731 104.721 142.166C104.383 142.544 103.633 142.601 102.32 142.374C101.739 142.261 101.532 142.128 101.345 141.674L101.12 141.107H104.44C107.272 141.107 107.835 141.164 108.454 141.466ZM127.267 142.053C127.923 142.147 128.036 142.242 127.96 142.544C127.829 143.036 127.379 142.998 126.535 142.431C125.785 141.901 125.653 141.693 126.179 141.845C126.347 141.882 126.854 141.977 127.267 142.053ZM115.225 144.228L116.519 144.644L115.319 145.079C114.662 145.306 113.199 145.892 112.055 146.384C110.929 146.876 109.616 147.386 109.148 147.519C108.679 147.67 108.135 147.84 107.928 147.916C107.572 148.048 107.572 148.048 107.891 147.783C108.397 147.405 108.247 146.535 107.591 146.043C107.197 145.76 106.728 145.627 105.715 145.59C104.458 145.533 104.271 145.571 102.77 146.308C101.082 147.159 99.713 147.348 98.8314 146.876C98.4563 146.668 98.4375 146.63 98.7376 146.308C99.4879 145.476 102.902 144.568 105.396 144.549C106.934 144.53 108.116 145.117 108.679 146.176C108.885 146.554 109.148 146.876 109.26 146.876C109.654 146.876 110.948 145.571 111.492 144.606L112.055 143.641L112.993 143.736C113.518 143.774 114.512 144.001 115.225 144.228ZM119.145 148.37C119.464 148.691 116.2 148.786 114.981 148.502C114.324 148.351 113.78 148.2 113.743 148.162C113.705 148.124 114.868 148.124 116.331 148.162C117.794 148.2 119.07 148.294 119.145 148.37Z" fill="#7E7E7E"/>
<path d="M126.91 94.7498C126.854 94.8822 126.76 95.4685 126.685 96.0359C126.573 96.887 126.629 97.2086 126.948 97.8705C127.304 98.5514 127.435 98.646 127.979 98.646C128.467 98.646 128.748 98.4947 129.105 98.0597C129.705 97.341 129.724 96.8114 129.161 96.1683C128.523 95.4118 127.023 94.4661 126.91 94.7498ZM128.223 95.9792C129.048 96.5088 129.18 97.0573 128.598 97.6625C127.81 98.4379 127.154 97.7949 127.154 96.2629C127.154 95.5253 127.36 95.4685 128.223 95.9792Z" fill="#7E7E7E"/>
<path d="M134.413 95.1465C134.038 95.4871 133.719 95.8466 133.719 95.9412C133.719 96.0169 134 96.2439 134.319 96.4331C134.919 96.7737 134.938 96.7737 135.257 96.3764C135.651 95.8844 135.688 95.2789 135.351 94.8248C135.125 94.5599 135.05 94.5788 134.413 95.1465Z" fill="#7E7E7E"/>
<path d="M161.76 96.7924C161.066 97.3409 160.747 98.192 160.597 99.8753L160.485 101.294H159.416C157.821 101.294 157.484 101.634 157.39 103.337C157.315 104.66 157.315 104.679 157.821 104.812C158.103 104.887 159.772 104.831 161.535 104.717C163.317 104.585 165.755 104.471 166.975 104.452C168.85 104.415 169.188 104.452 169.263 104.717C169.338 104.944 169.713 105.058 170.726 105.152C171.457 105.209 172.301 105.322 172.602 105.379L173.108 105.493V103.677V101.861H169.919C167.912 101.861 166.731 101.786 166.731 101.672C166.731 101.559 167.406 101.483 168.381 101.483C169.3 101.483 170.688 101.426 171.476 101.37L172.92 101.237V99.7051C172.92 98.0975 172.583 97.1707 171.851 96.7924C171.664 96.6979 169.432 96.5655 166.881 96.5087C162.36 96.3953 162.248 96.3953 161.76 96.7924Z" fill="#7E7E7E"/>
<path d="M121.358 99.535C120.777 100.329 120.214 101.729 120.214 102.372C120.214 102.769 121.527 102.485 122.052 101.975C122.652 101.388 122.821 99.6863 122.333 99.081L121.996 98.6838L121.358 99.535ZM122.09 100.424C122.09 100.953 121.433 101.861 121.039 101.861C120.833 101.861 120.795 101.729 120.889 101.332C121.189 100.159 122.09 99.4593 122.09 100.424Z" fill="#7E7E7E"/>
<path d="M136.983 100.049C136.832 100.426 137.32 101.579 137.902 102.297C138.277 102.75 138.352 102.769 138.671 102.523C139.121 102.183 138.952 101.824 137.827 100.559C137.245 99.8974 137.076 99.803 136.983 100.049Z" fill="#7E7E7E"/>
<path d="M111.586 103.204C110.892 104.188 110.554 105.285 110.892 105.493C111.342 105.776 111.68 105.625 112.186 104.906C112.636 104.244 112.655 104.093 112.486 103.299C112.392 102.826 112.28 102.429 112.224 102.429C112.186 102.429 111.905 102.788 111.586 103.204Z" fill="#7E7E7E"/>
<path d="M125.241 105.379C124.622 106.59 124.566 107.497 125.11 108.178C125.597 108.802 126.273 108.821 126.873 108.197C127.548 107.535 127.529 106.098 126.854 105.285C125.972 104.225 125.804 104.244 125.241 105.379ZM126.554 105.682C126.835 105.965 126.854 107.044 126.591 107.554C126.329 108.027 125.935 108.008 125.579 107.497C124.828 106.419 125.71 104.831 126.554 105.682Z" fill="#7E7E7E"/>
<path d="M117.063 105.647C116.388 106.062 115.788 107.139 115.957 107.63C116.05 107.857 116.275 107.914 116.857 107.876C117.813 107.8 118.32 107.234 118.47 106.062C118.564 105.325 118.545 105.269 118.132 105.269C117.888 105.269 117.401 105.439 117.063 105.647ZM117.776 106.308C117.776 106.686 116.894 107.593 116.669 107.46C116.482 107.328 116.613 106.61 116.894 106.251C117.138 105.93 117.776 105.968 117.776 106.308Z" fill="#7E7E7E"/>
<path d="M131.918 105.928C131.599 107.214 132.575 109.124 133.494 109.011C133.888 108.973 134.019 108.84 134.056 108.405C134.15 107.554 133.944 107.025 133.231 106.211C132.443 105.341 132.087 105.266 131.918 105.928ZM133.344 107.176C133.456 107.365 133.531 107.687 133.531 107.914C133.531 108.216 133.437 108.311 133.119 108.254C132.762 108.216 132.668 108.065 132.631 107.403C132.575 106.722 132.631 106.609 132.875 106.703C133.025 106.779 133.25 106.987 133.344 107.176Z" fill="#7E7E7E"/>
<path d="M181.136 109.483C180.648 109.805 180.235 110.145 180.235 110.221C180.235 110.297 180.798 110.826 181.511 111.412C184.962 114.344 188.807 118.732 190.964 122.193C191.752 123.479 191.921 123.536 192.896 123.025C193.365 122.78 193.74 122.477 193.74 122.382C193.74 121.966 191.452 118.202 190.42 116.935C188.132 114.079 182.786 108.859 182.167 108.859C182.092 108.859 181.623 109.143 181.136 109.483Z" fill="#7E7E7E"/>
<path d="M189.332 111.81C188.338 112.718 188.263 112.831 188.507 113.153C188.657 113.342 189.295 114.117 189.951 114.893C190.589 115.668 191.114 116.387 191.114 116.5C191.114 116.614 191.564 116.236 192.108 115.649C192.633 115.063 193.215 114.552 193.365 114.496C193.646 114.401 193.571 114.306 191.302 111.772L190.439 110.807L189.332 111.81Z" fill="#7E7E7E"/>
<path d="M135.595 111.605C135.595 112.058 136.195 113.475 136.533 113.853C136.795 114.117 136.945 114.155 137.245 113.985C137.452 113.872 137.808 113.777 138.014 113.777C138.952 113.777 137.902 112.247 136.57 111.68C135.576 111.246 135.595 111.246 135.595 111.605Z" fill="#7E7E7E"/>
<path d="M105.94 112.282C105.809 112.547 105.771 113.02 105.865 113.569C105.94 114.041 106.015 114.779 106.034 115.195C106.053 116.103 106.203 116.235 107.197 116.235C109.129 116.235 109.016 113.947 107.028 112.49L106.165 111.866L105.94 112.282ZM107.534 113.985C108.303 114.892 108.135 115.668 107.178 115.668C106.934 115.668 106.334 113.985 106.334 113.323C106.334 112.888 106.878 113.19 107.534 113.985Z" fill="#7E7E7E"/>
<path d="M116.95 114.76C116.706 115.99 116.819 116.311 117.738 117.238C118.694 118.184 119.22 118.335 119.707 117.787C120.233 117.2 120.289 116.387 119.857 115.838C119.539 115.422 119.107 115.158 117.382 114.325C117.138 114.212 117.044 114.306 116.95 114.76ZM118.207 115.309C119.313 115.876 119.801 116.86 119.22 117.333C118.788 117.711 117.588 116.387 117.588 115.517C117.588 115.044 117.644 115.025 118.207 115.309Z" fill="#7E7E7E"/>
<path d="M128.073 114.439C127.679 114.647 127.548 114.912 127.435 115.611C127.379 116.103 127.267 116.708 127.21 116.935C127.135 117.295 127.192 117.37 127.567 117.37C128.111 117.37 128.448 117.011 129.011 115.895C129.405 115.12 129.405 115.044 129.124 114.609C128.786 114.079 128.73 114.079 128.073 114.439ZM128.467 115.46C128.467 115.763 128.298 116.198 128.073 116.444L127.698 116.898L127.811 116.065C127.867 115.611 127.961 115.157 128.017 115.063C128.223 114.722 128.467 114.931 128.467 115.46Z" fill="#7E7E7E"/>
<path d="M197.285 130.326C197.004 130.477 196.685 130.875 196.572 131.196C196.31 131.972 196.291 140.275 196.572 141.239C196.872 142.355 197.473 142.941 198.317 142.96C199.555 142.998 199.555 142.979 199.555 136.624V130.969L199.086 130.515C198.579 129.986 198.016 129.929 197.285 130.326Z" fill="#7E7E7E"/>
<path d="M194.153 131.764L193.703 131.934L193.778 136.852L193.834 141.769H194.322C195.278 141.769 195.503 141.372 195.635 139.556C195.803 137.532 195.635 132.35 195.391 131.877C195.203 131.518 194.828 131.48 194.153 131.764Z" fill="#7E7E7E"/>
<path d="M190.552 151.263C189.801 152.304 186.181 156.521 184.231 158.64L183.405 159.548L183.743 160.115C183.912 160.418 184.118 160.682 184.174 160.682C184.249 160.682 184.981 159.964 185.825 159.094L187.363 157.505L189.295 159.566L191.246 161.609L193.384 159.453L195.522 157.297L194.434 156.105C193.853 155.443 193.14 154.554 192.877 154.1C192.615 153.665 192.333 153.306 192.24 153.306C192.165 153.306 191.471 153.873 190.72 154.573C189.951 155.292 189.464 155.67 189.614 155.462C190.458 154.233 191.583 152.814 191.808 152.682C191.94 152.606 192.052 152.379 192.052 152.209C192.052 151.831 191.377 150.658 191.152 150.658C191.058 150.658 190.795 150.942 190.552 151.263Z" fill="#7E7E7E"/>
<path d="M168.513 167.491C167.256 167.661 163.448 167.699 160.185 167.548C157.728 167.434 157.54 167.529 157.54 168.853C157.54 170.139 157.915 170.328 160.691 170.366C162.004 170.385 162.548 170.423 161.91 170.46L160.729 170.536V171.368C160.729 172.257 160.916 172.825 161.61 173.96L162.042 174.678H166.881C171.495 174.678 171.739 174.659 172.133 174.3C172.958 173.524 172.939 172.011 172.114 171.387C171.683 171.066 171.214 170.971 169.769 170.896C167.087 170.763 167.5 170.442 170.426 170.366C173.277 170.309 173.183 170.385 173.071 168.418L173.014 167.397L171.326 167.378C170.407 167.359 169.132 167.415 168.513 167.491Z" fill="#7E7E7E"/>
</svg>
